<?xml version="1.0" standalone="no"?>
  <!DOCTYPE svg PUBLIC "-//W3C//DTD SVG 1.1//EN" "http://www.w3.org/Graphics/SVG/1.1/DTD/svg11.dtd" >
  <svg>
  <metadata>
  Created by font-carrier
  </metadata>
  <defs>
  <font id="Lato-Italic" horiz-adv-x="2539" vert-adv-y="2539" >
    <font-face
      
      font-family="Lato"
      
      font-weight="400"
      
      font-stretch="normal"
      
      units-per-em="2000"
      
      ascent="1974"
      
      descent="-426"
      
    />
      <missing-glyph />

      

      
      <glyph glyph-name="uni41" unicode="&#x41;" d="M867 531L736 1124Q731 1151 724 1186.50Q717 1222 712 1263Q697 1221 682 1186Q667 1151 655 1123L378 531L867 531M1178 0L1034 0Q1009 0 995 12.50Q981 25 975 45L897 395L314 395L150 45Q141 27 122.50 13.50Q104 0 81 0L-65 0L637 1433L827 1433L1178 0Z"  horiz-adv-x="1262" vert-adv-y="2000"  />

      
      <glyph glyph-name="uni0104" unicode="&#x0104;" d="M867 531L736 1124Q731 1151 724 1186.50Q717 1222 712 1263Q697 1221 682 1186Q667 1151 655 1123L378 531L867 531M1224-290Q1192-313 1147.50-327.50Q1103-342 1055-342Q977-342 935.50-307Q894-272 894-214Q894-151 936.50-96.50Q979-42 1048 0L1034 0Q1009 0 995 12.50Q981 25 975 45L897 395L314 395L150 45Q141 27 122.50 13.50Q104 0 81 0L-65 0L637 1433L827 1433L1178 0L1160 0Q1139-12 1116.50-28.50Q1094-45 1076-66Q1058-87 1046-112Q1034-137 1034-165Q1034-197 1053-216Q1072-235 1104-235Q1124-235 1138-231.50Q1152-228 1161.50-223.50Q1171-219 1177-215Q1183-211 1188-211Q1200-211 1204-224L1224-290Z"  horiz-adv-x="1262" vert-adv-y="2000"  />

      
      <glyph glyph-name="unic6" unicode="&#xc6;" d="M862 531L862 1280Q848 1244 833 1212Q818 1180 801 1151L438 531L862 531M1038 1280L1038 796L1550 796L1532 649L1038 649L1038 152L1592 152L1572 0L862 0L862 395L358 395L153 45Q142 27 122.50 13.50Q103 0 79 0L-66 0L794 1433L1748 1433L1730 1280L1038 1280Z"  horiz-adv-x="1735" vert-adv-y="2000"  />

      
      <glyph glyph-name="uni42" unicode="&#x42;" d="M584 148Q664 148 724 169Q784 190 823.50 229Q863 268 883 323Q903 378 903 447Q903 542 839.50 598.50Q776 655 646 655L365 655L303 148L584 148M443 1286L382 787L613 787Q694 787 754.50 808.50Q815 830 855.50 868.50Q896 907 916 961Q936 1015 936 1080Q936 1183 874 1234.50Q812 1286 682 1286L443 1286M699 1433Q810 1433 890.50 1410.50Q971 1388 1023 1346.50Q1075 1305 1100 1245.50Q1125 1186 1125 1113Q1125 1050 1106.50 991.50Q1088 933 1051.50 884Q1015 835 959.50 797Q904 759 830 736Q959 707 1023.50 635Q1088 563 1088 450Q1088 351 1052.50 268.50Q1017 186 950 126Q883 66 786.50 33Q690 0 569 0L98 0L274 1433L699 1433Z"  horiz-adv-x="1204" vert-adv-y="2000"  />

      
      <glyph glyph-name="uni43" unicode="&#x43;" d="M677 145Q743 145 794 156Q845 167 884 183Q923 199 950.50 218.50Q978 238 998.50 254Q1019 270 1033 281Q1047 292 1058 292Q1067 292 1073 288.50Q1079 285 1083 280L1148 199Q1054 97 931.50 40.50Q809-16 646-16Q517-16 415.50 30Q314 76 243.50 158.50Q173 241 135.50 355Q98 469 98 606Q98 793 156 948Q214 1103 315.50 1214.50Q417 1326 554 1387.50Q691 1449 849 1449Q925 1449 987 1436Q1049 1423 1100 1398Q1151 1373 1192.50 1338Q1234 1303 1270 1260L1206 1182Q1198 1172 1188 1165.50Q1178 1159 1163 1159Q1145 1159 1125 1179Q1105 1199 1070.50 1222.50Q1036 1246 981.50 1266Q927 1286 840 1286Q723 1286 622.50 1239.50Q522 1193 448 1106.50Q374 1020 331.50 897Q289 774 289 621Q289 510 318 422Q347 334 398.50 272.50Q450 211 521 178Q592 145 677 145Z"  horiz-adv-x="1249" vert-adv-y="2000"  />

      
      <glyph glyph-name="unic7" unicode="&#xc7;" d="M595-14Q478-5 385.50 44.50Q293 94 229.50 175.50Q166 257 132 366.50Q98 476 98 606Q98 793 156 948Q214 1103 315.50 1214.50Q417 1326 554 1387.50Q691 1449 849 1449Q925 1449 987 1436Q1049 1423 1100 1398Q1151 1373 1192.50 1338Q1234 1303 1270 1260L1206 1182Q1198 1172 1188 1165.50Q1178 1159 1163 1159Q1145 1159 1125 1179Q1105 1199 1070.50 1222.50Q1036 1246 981.50 1266Q927 1286 840 1286Q723 1286 622.50 1239.50Q522 1193 448 1106.50Q374 1020 331.50 897Q289 774 289 621Q289 510 318 422Q347 334 398.50 272.50Q450 211 521 178Q592 145 677 145Q743 145 794 156Q845 167 884 183Q923 199 950.50 218.50Q978 238 998.50 254Q1019 270 1033 281Q1047 292 1058 292Q1067 292 1073 288.50Q1079 285 1083 280L1148 199Q1062 105 951.50 49.50Q841-6 697-14L673-76Q749-93 783.50-124.50Q818-156 818-202Q818-238 801.50-267Q785-296 755-316Q725-336 684-346.50Q643-357 595-357Q557-357 524-348.50Q491-340 464-326L488-271Q495-253 513-253Q519-253 525.50-256.50Q532-260 541-264.50Q550-269 563-272.50Q576-276 595-276Q635-276 656-257Q677-238 677-209Q677-175 641.50-160.50Q606-146 541-137L595-14Z"  horiz-adv-x="1249" vert-adv-y="2000"  />

      
      <glyph glyph-name="uni44" unicode="&#x44;" d="M1342 817Q1342 634 1285.50 483.50Q1229 333 1129 225.50Q1029 118 891.50 59Q754 0 592 0L98 0L274 1433L769 1433Q901 1433 1007 1388Q1113 1343 1187.50 1261.50Q1262 1180 1302 1066.50Q1342 953 1342 817M1149 813Q1149 921 1122 1008Q1095 1095 1043.50 1155.50Q992 1216 918 1248.50Q844 1281 751 1281L444 1281L304 151L611 151Q730 151 829 196.50Q928 242 999 327.50Q1070 413 1109.50 535.50Q1149 658 1149 813Z"  horiz-adv-x="1415" vert-adv-y="2000"  />

      
      <glyph glyph-name="unid0" unicode="&#xd0;" d="M624 151Q744 151 842.50 196.50Q941 242 1012 327.50Q1083 413 1122 535.50Q1161 658 1161 813Q1161 921 1133.50 1008Q1106 1095 1055 1155.50Q1004 1216 930 1248.50Q856 1281 763 1281L456 1281L394 777L742 777L729 667L381 667L318 151L624 151M781 1433Q913 1433 1019 1388Q1125 1343 1199.50 1261.50Q1274 1180 1313.50 1066.50Q1353 953 1353 817Q1353 634 1296.50 483.50Q1240 333 1140.50 225.50Q1041 118 904 59Q767 0 606 0L111 0L193 667L14 667L27 777L206 777L287 1433L781 1433Z"  horiz-adv-x="1426" vert-adv-y="2000"  />

      
      <glyph glyph-name="uni45" unicode="&#x45;" d="M443 1280L384 797L891 797L872 650L366 650L305 152L934 152L915 0L98 0L274 1433L1090 1433L1071 1280L443 1280Z"  horiz-adv-x="1076" vert-adv-y="2000"  />

      
      <glyph glyph-name="uni0118" unicode="&#x0118;" d="M443 1280L384 797L891 797L872 650L366 650L305 152L934 152L915 0L848 0Q827-12 804.50-28.50Q782-45 764-66Q746-87 734-112Q722-137 722-165Q722-197 741-216Q760-235 792-235Q812-235 826-231.50Q840-228 849.50-223.50Q859-219 865-215Q871-211 876-211Q888-211 892-224L912-290Q880-313 835.50-327.50Q791-342 743-342Q665-342 623.50-307Q582-272 582-214Q582-151 624.50-96.50Q667-42 736 0L98 0L274 1433L1090 1433L1071 1280L443 1280Z"  horiz-adv-x="1076" vert-adv-y="2000"  />

      
      <glyph glyph-name="uni46" unicode="&#x46;" d="M443 1280L381 770L917 770L897 618L362 618L286 0L98 0L274 1433L1090 1433L1071 1280L443 1280Z"  horiz-adv-x="1060" vert-adv-y="2000"  />

      
      <glyph glyph-name="uni47" unicode="&#x47;" d="M848 686L1259 686L1191 139Q1137 100 1079.50 71Q1022 42 958.50 22.50Q895 3 824-6.50Q753-16 671-16Q541-16 435 30.50Q329 77 254 160.50Q179 244 138.50 360Q98 476 98 614Q98 799 155.50 952.50Q213 1106 314.50 1216.50Q416 1327 555.50 1388Q695 1449 860 1449Q944 1449 1011.50 1435Q1079 1421 1134.50 1396Q1190 1371 1234.50 1337Q1279 1303 1316 1263L1256 1185Q1241 1164 1220.50 1159Q1200 1154 1178 1168Q1156 1181 1129.50 1201.50Q1103 1222 1065 1240.50Q1027 1259 974 1272.50Q921 1286 846 1286Q723 1286 620.50 1239Q518 1192 444.50 1105Q371 1018 330.50 895Q290 772 290 621Q290 508 319.50 418Q349 328 403 265Q457 202 533 168.50Q609 135 702 135Q754 135 799 141Q844 147 884 157.50Q924 168 960 183.50Q996 199 1032 219L1072 543L872 543Q854 543 844 553.50Q834 564 836 579L848 686Z"  horiz-adv-x="1361" vert-adv-y="2000"  />

      
      <glyph glyph-name="uni48" unicode="&#x48;" d="M1350 1433L1173 0L985 0L1065 654L366 654L286 0L98 0L274 1433L462 1433L383 790L1082 790L1161 1433L1350 1433Z"  horiz-adv-x="1420" vert-adv-y="2000"  />

      
      <glyph glyph-name="uni0126" unicode="&#x0126;" d="M1126 1038L427 1038L397 790L1096 790L1126 1038M1467 1038L1315 1038L1187 0L999 0L1079 654L380 654L300 0L112 0L239 1038L95 1038L108 1150L253 1150L288 1433L476 1433L441 1150L1140 1150L1175 1433L1364 1433L1329 1150L1480 1150L1467 1038Z"  horiz-adv-x="1440" vert-adv-y="2000"  />

      
      <glyph glyph-name="uni49" unicode="&#x49;" d="M286 0L98 0L273 1433L461 1433L286 0Z"  horiz-adv-x="533" vert-adv-y="2000"  />

      
      <glyph glyph-name="uni012E" unicode="&#x012E;" d="M257 0Q236-12 213.50-28.50Q191-45 173-66Q155-87 143-112Q131-137 131-165Q131-197 150-216Q169-235 201-235Q221-235 235-231.50Q249-228 258.50-223.50Q268-219 274-215Q280-211 285-211Q297-211 301-224L321-290Q289-313 244.50-327.50Q200-342 152-342Q74-342 32.50-307Q-9-272-9-214Q-9-151 33.50-96.50Q76-42 145 0L98 0L273 1433L461 1433L286 0L257 0Z"  horiz-adv-x="533" vert-adv-y="2000"  />

      
      <glyph glyph-name="uni4a" unicode="&#x4a;" d="M625 475Q610 356 572.50 264.50Q535 173 475.50 110.50Q416 48 336.50 16Q257-16 158-16Q104-16 57.50-9Q11-2-36 12L-23 121Q-20 136-11 147Q-2 158 18 158Q29 158 41.50 155.50Q54 153 70.50 149.50Q87 146 108.50 143.50Q130 141 159 141Q211 141 257 158Q303 175 339.50 214Q376 253 401.50 316Q427 379 438 471L556 1433L743 1433L625 475Z"  horiz-adv-x="801" vert-adv-y="2000"  />

      
      <glyph glyph-name="uni4b" unicode="&#x4b;" d="M382 802L448 802Q483 802 505.50 811.50Q528 821 549 844L1045 1388Q1066 1415 1089 1424Q1112 1433 1142 1433L1301 1433L729 813Q689 767 651 750Q675 740 693.50 723.50Q712 707 727 679L1159 0L998 0Q961 0 946 10.50Q931 21 920 40L544 612Q529 637 509 647.50Q489 658 446 658L365 658L284 0L98 0L273 1433L460 1433L382 802Z"  horiz-adv-x="1236" vert-adv-y="2000"  />

      
      <glyph glyph-name="uni4c" unicode="&#x4c;" d="M870 158L851 0L98 0L274 1433L461 1433L304 158L870 158Z"  horiz-adv-x="951" vert-adv-y="2000"  />

      
      <glyph glyph-name="uni0141" unicode="&#x0141;" d="M901 158L882 0L129 0L197 556L8 461L24 589Q26 616 52 628L217 714L305 1433L492 1433L415 805L782 997L767 872Q762 841 737 830L395 648L335 158L901 158Z"  horiz-adv-x="983" vert-adv-y="2000"  />

      
      <glyph glyph-name="uni013D" unicode="&#x013D;" d="M853 1473Q870 1473 875.50 1465.50Q881 1458 881 1448Q881 1438 877.50 1423Q874 1408 862.50 1379.50Q851 1351 829.50 1304Q808 1257 772 1184Q760 1162 744.50 1155.50Q729 1149 706 1149L646 1149L739 1473L853 1473M870 158L851 0L98 0L274 1433L461 1433L304 158L870 158Z"  horiz-adv-x="951" vert-adv-y="2000"  />

      
      <glyph glyph-name="uni4d" unicode="&#x4d;" d="M1655 1433L1478 0L1315 0L1445 1059Q1448 1079 1452.50 1103Q1457 1127 1463 1153L904 252Q878 209 832 209L805 209Q783 209 766.50 220Q750 231 743 252L397 1153Q396 1129 395 1105.50Q394 1082 392 1062L263 0L98 0L274 1433L412 1433Q437 1433 448 1426.50Q459 1420 473 1401L820 500Q827 480 832 460Q837 440 842 419Q852 440 862 460Q872 480 884 500L1448 1401Q1465 1421 1478 1427Q1491 1433 1516 1433L1655 1433Z"  horiz-adv-x="1725" vert-adv-y="2000"  />

      
      <glyph glyph-name="uni4e" unicode="&#x4e;" d="M1350 1433L1173 0L1080 0Q1057 0 1043 8.50Q1029 17 1016 35L398 1131Q396 1111 395 1093.50Q394 1076 392 1060L263 0L98 0L274 1433L371 1433Q396 1433 407 1427Q418 1421 430 1401L1049 306Q1051 329 1052.50 350Q1054 371 1056 389L1185 1433L1350 1433Z"  horiz-adv-x="1420" vert-adv-y="2000"  />

      
      <glyph glyph-name="uni014A" unicode="&#x014A;" d="M1178 46L1173 4Q1164-77 1138.50-144Q1113-211 1070-258.50Q1027-306 966.50-332Q906-358 825-358Q780-358 745-349.50Q710-341 671-323L699-248Q707-226 718.50-219.50Q730-213 742-213Q754-213 772.50-220.50Q791-228 825-228Q901-228 947-175.50Q993-123 1006-15L1013 40L396 1122Q395 1099 393 1076.50Q391 1054 389 1034L262 0L98 0L274 1432L370 1432Q395 1432 406.50 1426Q418 1420 431 1400L1052 311Q1053 336 1054.50 359.50Q1056 383 1059 404L1185 1432L1349 1432L1179 46L1178 46Z"  horiz-adv-x="1420" vert-adv-y="2000"  />

      
      <glyph glyph-name="uni4f" unicode="&#x4f;" d="M1420 818Q1420 635 1363.50 482Q1307 329 1206.50 218.50Q1106 108 968.50 46.50Q831-15 669-15Q537-15 431.50 32Q326 79 251.50 162.50Q177 246 137.50 361Q98 476 98 613Q98 796 155 949.50Q212 1103 313 1214Q414 1325 551.50 1387Q689 1449 850 1449Q982 1449 1087.50 1401.50Q1193 1354 1267 1270Q1341 1186 1380.50 1070.50Q1420 955 1420 818M1228 814Q1228 923 1200 1011.50Q1172 1100 1120.50 1162Q1069 1224 994.50 1258Q920 1292 827 1292Q709 1292 610.50 1244.50Q512 1197 440.50 1109Q369 1021 329.50 896.50Q290 772 290 618Q290 509 317.50 421Q345 333 397 271Q449 209 523 175.50Q597 142 690 142Q809 142 908 189Q1007 236 1078 323.50Q1149 411 1188.50 535.50Q1228 660 1228 814Z"  horiz-adv-x="1491" vert-adv-y="2000"  />

      
      <glyph glyph-name="unid8" unicode="&#xd8;" d="M451 219Q499 181 558.50 161.50Q618 142 690 142Q809 142 908 189Q1007 236 1078 323.50Q1149 411 1188.50 535.50Q1228 660 1228 814Q1228 902 1210.50 975.50Q1193 1049 1159 1107L451 219M1087 1197Q1036 1243 971 1267.50Q906 1292 827 1292Q709 1292 610.50 1244.50Q512 1197 440.50 1109Q369 1021 329.50 896.50Q290 772 290 618Q290 521 311.50 442Q333 363 374 302L1087 1197M1278 1257Q1347 1173 1383.50 1061.50Q1420 950 1420 818Q1420 635 1363.50 482Q1307 329 1206.50 218.50Q1106 108 968.50 46.50Q831-15 669-15Q572-15 490 10Q408 35 341 82L232-55Q207-84 177.50-96.50Q148-109 121-109L46-109L257 156Q180 241 139 357Q98 473 98 613Q98 796 155 949.50Q212 1103 313 1214Q414 1325 551.50 1387Q689 1449 850 1449Q954 1449 1041.50 1419.50Q1129 1390 1198 1336L1287 1448Q1298 1461 1307 1470.50Q1316 1480 1325.50 1486Q1335 1492 1346 1494.50Q1357 1497 1373 1497L1469 1497L1278 1257Z"  horiz-adv-x="1491" vert-adv-y="2000"  />

      
      <glyph glyph-name="uni0152" unicode="&#x0152;" d="M644 137Q753 137 843.50 186Q934 235 999.50 325Q1065 415 1101 541.50Q1137 668 1137 824Q1137 930 1113.50 1017.50Q1090 1105 1045 1167Q1000 1229 935 1263Q870 1297 787 1297Q678 1297 587 1247.50Q496 1198 430.50 1107.50Q365 1017 328.50 890Q292 763 292 608Q292 501 316 414.50Q340 328 385 266Q430 204 495.50 170.50Q561 137 644 137M1389 1280L1330 796L1834 796L1817 649L1312 649L1252 152L1876 152L1857 0L1066 0L1094 227Q1004 112 880.50 49Q757-14 607-14Q489-14 395 32Q301 78 235.50 159.50Q170 241 135 354.50Q100 468 100 603Q100 788 152 943Q204 1098 296 1210.50Q388 1323 513.50 1386Q639 1449 785 1449Q936 1449 1043.50 1375Q1151 1301 1210 1174L1242 1433L2033 1433L2015 1280L1389 1280Z"  horiz-adv-x="2019" vert-adv-y="2000"  />

      
      <glyph glyph-name="uni50" unicode="&#x50;" d="M576 686Q661 686 726 712Q791 738 835 784.50Q879 831 902 895.50Q925 960 925 1036Q925 1094 908 1140Q891 1186 857 1218.50Q823 1251 771 1268.50Q719 1286 650 1286L442 1286L368 686L576 686M668 1433Q782 1433 866 1406Q950 1379 1004.50 1329Q1059 1279 1086 1209Q1113 1139 1113 1053Q1113 940 1076 845.50Q1039 751 968.50 683Q898 615 794.50 576.50Q691 538 558 538L350 538L284 0L98 0L273 1433L668 1433Z"  horiz-adv-x="1124" vert-adv-y="2000"  />

      
      <glyph glyph-name="unide" unicode="&#xde;" d="M544 421Q629 421 694 447Q759 473 803 519.50Q847 566 870 630.50Q893 695 893 771Q893 887 825 952.50Q757 1018 617 1018L409 1018L336 421L544 421M636 1165Q750 1165 833.50 1138Q917 1111 972 1061.50Q1027 1012 1054 942.50Q1081 873 1081 788Q1081 675 1044 580.50Q1007 486 936 417.50Q865 349 762 311Q659 273 526 273L318 273L284 0L98 0L273 1433L460 1433L427 1165L636 1165Z"  horiz-adv-x="1121" vert-adv-y="2000"  />

      
      <glyph glyph-name="uni51" unicode="&#x51;" d="M290 618Q290 509 317.50 421Q345 333 397 271Q449 209 523 175.50Q597 142 690 142Q809 142 908 189Q1007 236 1078 323.50Q1149 411 1188.50 535.50Q1228 660 1228 814Q1228 923 1200 1011.50Q1172 1100 1120.50 1162Q1069 1224 994.50 1258Q920 1292 827 1292Q709 1292 610.50 1244.50Q512 1197 440.50 1109Q369 1021 329.50 896.50Q290 772 290 618M897 20Q789-15 669-15Q537-15 431.50 32Q326 79 251.50 162.50Q177 246 137.50 361Q98 476 98 613Q98 796 155 949.50Q212 1103 313 1214Q414 1325 551.50 1387Q689 1449 850 1449Q982 1449 1087.50 1401.50Q1193 1354 1267 1270Q1341 1186 1380.50 1070.50Q1420 955 1420 818Q1420 697 1394.50 589Q1369 481 1322.50 388.50Q1276 296 1209 222Q1142 148 1060 96L1350-297L1199-297Q1164-297 1138.50-287Q1113-277 1093-253L897 20Z"  horiz-adv-x="1491" vert-adv-y="2000"  />

      
      <glyph glyph-name="uni52" unicode="&#x52;" d="M558 737Q643 737 708 761Q773 785 817.50 828.50Q862 872 884.50 931.50Q907 991 907 1062Q907 1171 838.50 1228.50Q770 1286 633 1286L443 1286L375 737L558 737M650 1433Q764 1433 847.50 1409Q931 1385 985.50 1340.50Q1040 1296 1066.50 1232.50Q1093 1169 1093 1091Q1093 1004 1067 929Q1041 854 992 795Q943 736 874 694.50Q805 653 718 633Q750 611 771 572L1080 0L914 0Q863 0 844 40L574 556Q561 581 544 591Q527 601 490 601L358 601L284 0L98 0L273 1433L650 1433Z"  horiz-adv-x="1167" vert-adv-y="2000"  />

      
      <glyph glyph-name="uni53" unicode="&#x53;" d="M927 1211Q916 1197 906 1189.50Q896 1182 882 1182Q865 1182 846 1199.50Q827 1217 797.50 1237.50Q768 1258 726 1275.50Q684 1293 621 1293Q557 1293 507 1273Q457 1253 422.50 1218.50Q388 1184 370 1138Q352 1092 352 1039Q352 987 376 951.50Q400 916 439 890.50Q478 865 528.50 845.50Q579 826 631 805.50Q683 785 733.50 760Q784 735 823 698Q862 661 886 609Q910 557 910 483Q910 381 875 290.50Q840 200 774.50 132Q709 64 616 24Q523-16 407-16Q279-16 178.50 34.50Q78 85 13 171L79 260Q87 271 99 278Q111 285 125 285Q144 285 166 262.50Q188 240 222 212.50Q256 185 306 162.50Q356 140 431 140Q500 140 555.50 162Q611 184 649.50 223Q688 262 709 316.50Q730 371 730 437Q730 492 706 528.50Q682 565 643 590Q604 615 554 633.50Q504 652 452 671Q400 690 350 714Q300 738 261 775Q222 812 198 866Q174 920 174 999Q174 1087 206 1168Q238 1249 298 1311Q358 1373 444.50 1410Q531 1447 639 1447Q749 1447 837 1405Q925 1363 982 1290L927 1211Z"  horiz-adv-x="1016" vert-adv-y="2000"  />

      
      <glyph glyph-name="uni015E" unicode="&#x015E;" d="M927 1211Q916 1197 906 1189.50Q896 1182 882 1182Q865 1182 846 1199.50Q827 1217 797.50 1237.50Q768 1258 726 1275.50Q684 1293 621 1293Q557 1293 507 1273Q457 1253 422.50 1218.50Q388 1184 370 1138Q352 1092 352 1039Q352 987 376 951.50Q400 916 439 890.50Q478 865 528.50 845.50Q579 826 631 805.50Q683 785 733.50 760Q784 735 823 698Q862 661 886 609Q910 557 910 483Q910 387 878.50 300.50Q847 214 788.50 147Q730 80 646.50 37.50Q563-5 458-14L434-76Q510-93 544.50-124.50Q579-156 579-202Q579-238 562.50-267Q546-296 516-316Q486-336 445-346.50Q404-357 356-357Q318-357 285-348.50Q252-340 225-326L249-271Q256-253 274-253Q280-253 286.50-256.50Q293-260 302-264.50Q311-269 324-272.50Q337-276 356-276Q396-276 417-257Q438-238 438-209Q438-175 402.50-160.50Q367-146 302-137L356-14Q246-4 158.50 44.50Q71 93 13 171L79 260Q87 271 99 278Q111 285 125 285Q144 285 166 262.50Q188 240 222 212.50Q256 185 306 162.50Q356 140 431 140Q500 140 555.50 162Q611 184 649.50 223Q688 262 709 316.50Q730 371 730 437Q730 492 706 528.50Q682 565 643 590Q604 615 554 633.50Q504 652 452 671Q400 690 350 714Q300 738 261 775Q222 812 198 866Q174 920 174 999Q174 1087 206 1168Q238 1249 298 1311Q358 1373 444.50 1410Q531 1447 639 1447Q749 1447 837 1405Q925 1363 982 1290L927 1211Z"  horiz-adv-x="1016" vert-adv-y="2000"  />

      
      <glyph glyph-name="uni54" unicode="&#x54;" d="M1144 1276L722 1276L564 0L378 0L534 1276L110 1276L128 1433L1163 1433L1144 1276Z"  horiz-adv-x="1092" vert-adv-y="2000"  />

      
      <glyph glyph-name="uni0166" unicode="&#x0166;" d="M740 1276L687 851L984 851L971 741L674 741L582 0L396 0L487 741L186 741L199 851L500 851L552 1276L128 1276L146 1433L1181 1433L1162 1276L740 1276Z"  horiz-adv-x="1127" vert-adv-y="2000"  />

      
      <glyph glyph-name="uni55" unicode="&#x55;" d="M628 147Q709 147 776 178Q843 209 894 263.50Q945 318 977.50 394Q1010 470 1021 560L1128 1433L1315 1433L1208 560Q1193 437 1143 331.50Q1093 226 1015 148.50Q937 71 834 27Q731-17 608-17Q486-17 393.50 27Q301 71 242 148.50Q183 226 159.50 331.50Q136 437 151 560L257 1433L444 1433L337 561Q326 471 340 395Q354 319 391 264Q428 209 487.50 178Q547 147 628 147Z"  horiz-adv-x="1370" vert-adv-y="2000"  />

      
      <glyph glyph-name="uni0172" unicode="&#x0172;" d="M1315 1433L1208 560Q1194 453 1154.50 359Q1115 265 1053.50 190.50Q992 116 910 65.50Q828 15 730-5Q709-17 686.50-33.50Q664-50 646-71Q628-92 616-117Q604-142 604-170Q604-202 623-221Q642-240 674-240Q694-240 708-236.50Q722-233 731.50-228.50Q741-224 747-220Q753-216 758-216Q770-216 774-229L794-295Q762-318 717.50-332.50Q673-347 625-347Q547-347 505.50-312Q464-277 464-219Q464-160 501.50-109Q539-58 599-17Q479-15 388 29.50Q297 74 239.50 151.50Q182 229 159 333.50Q136 438 151 560L257 1433L444 1433L337 561Q326 471 340 395Q354 319 391 264Q428 209 487.50 178Q547 147 628 147Q709 147 776 178Q843 209 894 263.50Q945 318 977.50 394Q1010 470 1021 560L1128 1433L1315 1433Z"  horiz-adv-x="1368" vert-adv-y="2000"  />

      
      <glyph glyph-name="uni56" unicode="&#x56;" d="M1352 1433L640 0L471 0L109 1433L259 1433Q284 1433 298.50 1420Q313 1407 316 1388L556 364Q564 332 571 293.50Q578 255 583 213Q597 255 612 293.50Q627 332 644 364L1133 1388Q1141 1405 1159.50 1419Q1178 1433 1202 1433L1352 1433Z"  horiz-adv-x="1259" vert-adv-y="2000"  />

      
      <glyph glyph-name="uni57" unicode="&#x57;" d="M1982 1433L1394 0L1225 0L1031 1103Q1029 1119 1026.50 1138Q1024 1157 1022 1177Q1015 1157 1008 1138Q1001 1119 995 1103L529 0L361 0L125 1433L272 1433Q297 1433 312 1420.50Q327 1408 329 1388L484 374Q486 348 488 317.50Q490 287 492 255Q503 288 513.50 318Q524 348 535 374L963 1388Q971 1405 989 1419Q1007 1433 1031 1433L1074 1433Q1099 1433 1113.50 1420.50Q1128 1408 1133 1388L1312 374Q1317 348 1320 319Q1323 290 1326 258Q1335 290 1344 319Q1353 348 1362 374L1765 1388Q1770 1405 1790.50 1419Q1811 1433 1835 1433L1982 1433Z"  horiz-adv-x="1910" vert-adv-y="2000"  />

      
      <glyph glyph-name="uni58" unicode="&#x58;" d="M760 773L1138 0L970 0Q950 0 939 11.50Q928 23 922 36L630 662Q623 645 612 631L180 36Q167 16 151.50 8Q136 0 118 0L-68 0L501 765L165 1433L334 1433Q354 1433 363 1426Q372 1419 380 1405L636 865Q641 874 646 883Q651 892 657 902L1021 1404Q1032 1419 1042.50 1426Q1053 1433 1068 1433L1261 1433L760 773Z"  horiz-adv-x="1218" vert-adv-y="2000"  />

      
      <glyph glyph-name="uni59" unicode="&#x59;" d="M672 573L601 0L414 0L485 571L107 1433L272 1433Q297 1433 311 1421Q325 1409 332 1389L569 815Q588 758 599 707Q611 733 625.50 759.50Q640 786 657 815L1037 1389Q1048 1406 1064.50 1419.50Q1081 1433 1105 1433L1260 1433L672 573Z"  horiz-adv-x="1164" vert-adv-y="2000"  />

      
      <glyph glyph-name="uni5a" unicode="&#x5a;" d="M1145 1373Q1143 1359 1136.50 1348Q1130 1337 1122 1324L247 152L984 152L964 0L-26 0L-18 59Q-16 73-10 84Q-4 95 4 107L881 1280L167 1280L186 1433L1153 1433L1145 1373Z"  horiz-adv-x="1111" vert-adv-y="2000"  />

      
      <glyph glyph-name="uni61" unicode="&#x61;" d="M753 889Q731 894 709.50 895.50Q688 897 667 897Q607 897 551 877.50Q495 858 446 823Q397 788 357 739.50Q317 691 288.50 633Q260 575 244 509.50Q228 444 228 375Q228 134 382 134Q431 134 478 164.50Q525 195 567.50 249.50Q610 304 646 378.50Q682 453 710 542L753 889M685 267Q649 203 607.50 151Q566 99 519.50 62.50Q473 26 421.50 6Q370-14 315-14Q255-14 206 9.50Q157 33 122.50 78.50Q88 124 69 190.50Q50 257 50 343Q50 433 72.50 518.50Q95 604 136.50 680Q178 756 236 819.50Q294 883 365.50 929.50Q437 976 519 1001.50Q601 1027 691 1027Q756 1027 817.50 1016.50Q879 1006 939 980L818 0L726 0Q691 0 678.50 18Q666 36 666 62L685 267Z"  horiz-adv-x="1022" vert-adv-y="2000"  />

      
      <glyph glyph-name="uni0105" unicode="&#x0105;" d="M754 889Q732 894 710.50 895.50Q689 897 668 897Q608 897 552 877.50Q496 858 447 823Q398 788 358 739.50Q318 691 289.50 633Q261 575 245 509.50Q229 444 229 375Q229 134 383 134Q432 134 479 164.50Q526 195 568.50 249.50Q611 304 647 378.50Q683 453 711 542L754 889M799 0Q778-12 755.50-28.50Q733-45 715-66Q697-87 685-112Q673-137 673-165Q673-197 692-216Q711-235 743-235Q763-235 777-231.50Q791-228 800.50-223.50Q810-219 816-215Q822-211 827-211Q839-211 843-224L863-290Q831-313 786.50-327.50Q742-342 694-342Q616-342 574.50-307Q533-272 533-214Q533-181 545-150.50Q557-120 579-92.50Q601-65 630.50-40Q660-15 696 6Q679 14 673 28.50Q667 43 667 62L686 267Q650 203 608.50 151Q567 99 520.50 62.50Q474 26 422.50 6Q371-14 316-14Q256-14 207 9.50Q158 33 123.50 78.50Q89 124 70 190.50Q51 257 51 343Q51 433 73.50 518.50Q96 604 137.50 680Q179 756 237 819.50Q295 883 366.50 929.50Q438 976 520 1001.50Q602 1027 692 1027Q757 1027 818.50 1016.50Q880 1006 940 980L819 0L799 0Z"  horiz-adv-x="1022" vert-adv-y="2000"  />

      
      <glyph glyph-name="unie6" unicode="&#xe6;" d="M619 479Q499 474 416 456Q333 438 281.50 408Q230 378 207.50 337Q185 296 185 246Q185 174 224 139.50Q263 105 328 105Q380 105 426.50 123.50Q473 142 510.50 179Q548 216 574 271.50Q600 327 609 401L619 479M1083 900Q1023 900 974 877.50Q925 855 888.50 813.50Q852 772 827 713Q802 654 790 581Q920 588 1004.50 606Q1089 624 1138.50 649.50Q1188 675 1208 707Q1228 739 1228 775Q1228 832 1190.50 866Q1153 900 1083 900M1400 187Q1349 135 1300.50 97Q1252 59 1201 34.50Q1150 10 1094.50-2Q1039-14 975-14Q871-14 791 43Q711 100 672 214Q640 152 595.50 108.50Q551 65 501 37Q451 9 398-3.50Q345-16 296-16Q163-16 91 43.50Q19 103 19 223Q19 294 51 358.50Q83 423 155 472.50Q227 522 344 552.50Q461 583 632 588L640 648Q655 768 617 828.50Q579 889 490 889Q430 889 387.50 872.50Q345 856 313.50 835.50Q282 815 258 798.50Q234 782 212 782Q194 782 183 791Q172 800 164 814L141 869Q228 950 316.50 990Q405 1030 509 1030Q618 1030 678.50 982Q739 934 761 849Q821 933 907.50 980Q994 1027 1105 1027Q1165 1027 1216 1008.50Q1267 990 1304.50 957Q1342 924 1363 879.50Q1384 835 1384 784Q1384 727 1356.50 673Q1329 619 1260.50 576.50Q1192 534 1075 506.50Q958 479 780 476Q779 466 779 456.50Q779 447 779 436Q779 281 840 203.50Q901 126 1009 126Q1057 126 1095 136Q1133 146 1162.50 160.50Q1192 175 1214.50 192.50Q1237 210 1256 224.50Q1275 239 1290.50 249Q1306 259 1322 259Q1332 259 1340 254.50Q1348 250 1356 242L1400 187Z"  horiz-adv-x="1485" vert-adv-y="2000"  />

      
      <glyph glyph-name="uni62" unicode="&#x62;" d="M259 222Q297 169 350.50 146.50Q404 124 458 124Q510 124 556 146Q602 168 640 205.50Q678 243 707.50 293.50Q737 344 758 401.50Q779 459 789.50 520.50Q800 582 800 642Q800 761 757.50 823Q715 885 637 885Q589 885 540 855Q491 825 445 771.50Q399 718 359.50 644.50Q320 571 291 484L259 222M324 756Q362 818 405.50 868Q449 918 497 953.50Q545 989 597 1008.50Q649 1028 703 1028Q833 1028 905 934Q977 840 977 659Q977 577 960 495Q943 413 911.50 338.50Q880 264 835.50 199.50Q791 135 736.50 87.50Q682 40 618 13Q554-14 484-14Q403-14 338 20Q273 54 230 117L216 52Q208 26 196 13Q184 0 153 0L59 0L237 1473L411 1473L324 756Z"  horiz-adv-x="1057" vert-adv-y="2000"  />

      
      <glyph glyph-name="uni63" unicode="&#x63;" d="M818 182Q766 125 719 87Q672 49 625 26.50Q578 4 527.50-5Q477-14 419-14Q331-14 263.50 16Q196 46 150.50 100.50Q105 155 81.50 231.50Q58 308 58 400Q58 523 96.50 636Q135 749 204 836Q273 923 368.50 975Q464 1027 577 1027Q678 1027 746 991.50Q814 956 865 888L809 821Q802 813 793.50 808Q785 803 774 803Q760 803 746.50 815.50Q733 828 711 843.50Q689 859 656.50 871.50Q624 884 573 884Q504 884 443 846.50Q382 809 336 744Q290 679 263.50 590Q237 501 237 399Q237 337 251 286.50Q265 236 293 200.50Q321 165 361.50 145.50Q402 126 456 126Q523 126 568.50 146Q614 166 645 189.50Q676 213 697.50 233Q719 253 740 253Q759 253 774 236L818 182L818 182Z"  horiz-adv-x="909" vert-adv-y="2000"  />

      
      <glyph glyph-name="unie7" unicode="&#xe7;" d="M809 821Q802 813 793.50 808Q785 803 774 803Q760 803 746.50 815.50Q733 828 711 843.50Q689 859 656.50 871.50Q624 884 573 884Q504 884 443 846.50Q382 809 336 744Q290 679 263.50 590Q237 501 237 399Q237 337 251 286.50Q265 236 293 200.50Q321 165 361.50 145.50Q402 126 456 126Q523 126 568.50 146Q614 166 645 189.50Q676 213 697.50 233Q719 253 740 253Q759 253 774 236L818 182Q771 130 728 94Q685 58 642.50 35.50Q600 13 555.50 1.50Q511-10 461-13L437-76Q513-93 547.50-124.50Q582-156 582-202Q582-238 565.50-267Q549-296 519-316Q489-336 448-346.50Q407-357 359-357Q321-357 288-348.50Q255-340 228-326L252-271Q259-253 277-253Q283-253 289.50-256.50Q296-260 305-264.50Q314-269 327-272.50Q340-276 359-276Q399-276 420-257Q441-238 441-209Q441-175 405.50-160.50Q370-146 305-137L361-10Q287 0 230.50 33.50Q174 67 135.50 120.50Q97 174 77.50 245Q58 316 58 400Q58 523 96.50 636Q135 749 204 836Q273 923 368.50 975Q464 1027 577 1027Q678 1027 746 991.50Q814 956 865 888L809 821Z"  horiz-adv-x="909" vert-adv-y="2000"  />

      
      <glyph glyph-name="uni64" unicode="&#x64;" d="M774 792Q736 846 682.50 867.50Q629 889 574 889Q495 889 432 842Q369 795 324.50 720.50Q280 646 256 554Q232 462 232 373Q232 254 274.50 191.50Q317 129 396 129Q444 129 493 159Q542 189 587.50 242.50Q633 296 672.50 369Q712 442 741 529L774 792M1032 1473L851 0L758 0Q723 0 711 18Q699 36 699 62L718 275Q680 209 635 156Q590 103 540.50 65Q491 27 437.50 6.50Q384-14 329-14Q199-14 127 80.50Q55 175 55 355Q55 437 72 519Q89 601 120.50 676Q152 751 196.50 815.50Q241 880 296 927Q351 974 414.50 1001Q478 1028 548 1028Q623 1028 684.50 998.50Q746 969 789 915L858 1473L1032 1473Z"  horiz-adv-x="1058" vert-adv-y="2000"  />

      
      <glyph glyph-name="uni010F" unicode="&#x010F;" d="M1265 1473Q1282 1473 1287.50 1465.50Q1293 1458 1293 1448Q1293 1438 1289.50 1423Q1286 1408 1274.50 1379.50Q1263 1351 1241.50 1304Q1220 1257 1184 1184Q1172 1162 1157 1155.50Q1142 1149 1118 1149L1074 1149L1167 1473L1265 1473M774 792Q736 846 682.50 867.50Q629 889 574 889Q495 889 432 842Q369 795 324.50 720.50Q280 646 256 554Q232 462 232 373Q232 254 274.50 191.50Q317 129 396 129Q444 129 493 159Q542 189 587.50 242.50Q633 296 672.50 369Q712 442 741 529L774 792M1032 1473L851 0L758 0Q723 0 711 18Q699 36 699 62L718 275Q680 209 635 156Q590 103 540.50 65Q491 27 437.50 6.50Q384-14 329-14Q199-14 127 80.50Q55 175 55 355Q55 437 72 519Q89 601 120.50 676Q152 751 196.50 815.50Q241 880 296 927Q351 974 414.50 1001Q478 1028 548 1028Q623 1028 684.50 998.50Q746 969 789 915L858 1473L1032 1473Z"  horiz-adv-x="1058" vert-adv-y="2000"  />

      
      <glyph glyph-name="uni0111" unicode="&#x0111;" d="M772 774Q734 826 680.50 847.50Q627 869 574 869Q495 869 432 825Q369 781 324.50 710.50Q280 640 256 551Q232 462 232 373Q232 254 274.50 191.50Q317 129 396 129Q444 129 493 159Q542 189 587.50 242.50Q633 296 672.50 369Q712 442 741 529L772 774M1125 1144L992 1144L851 0L758 0Q723 0 711 18Q699 36 699 62L718 275Q680 209 635 156Q590 103 540.50 65Q491 27 437.50 6.50Q384-14 329-14Q199-14 127 80.50Q55 175 55 355Q55 479 92.50 596Q130 713 196.50 804.50Q263 896 353 951.50Q443 1007 548 1007Q622 1007 683 978.50Q744 950 787 897L817 1144L663 1144Q626 1144 613.50 1160Q601 1176 606 1208L614 1254L831 1254L858 1473L1032 1473L1005 1254L1137 1254L1125 1144Z"  horiz-adv-x="1058" vert-adv-y="2000"  />

      
      <glyph glyph-name="unif0" unicode="&#xf0;" d="M453 121Q518 121 573.50 146.50Q629 172 673 226.50Q717 281 748 366Q779 451 795 570Q785 613 765.50 653.50Q746 694 716 725Q686 756 644 774.50Q602 793 546 793Q471 793 411.50 763Q352 733 311 680.50Q270 628 248.50 557.50Q227 487 227 406Q227 339 244 286Q261 233 291.50 196.50Q322 160 363.50 140.50Q405 121 453 121M794 1214Q875 1130 922 1009.50Q969 889 969 724Q969 559 934 423.50Q899 288 831 191Q763 94 663 40.50Q563-13 433-13Q350-13 281 15.50Q212 44 162 97.50Q112 151 84 226.50Q56 302 56 397Q56 505 90.50 601.50Q125 698 187.50 770Q250 842 337 884.50Q424 927 529 927Q626 927 704 881.50Q782 836 830 744Q828 880 790 978.50Q752 1077 676 1146L485 1008L453 1065Q445 1078 448.50 1091Q452 1104 463 1112L592 1207Q551 1231 503.50 1250Q456 1269 400 1284Q370 1294 364 1312.50Q358 1331 370 1357L396 1412Q484 1396 565.50 1364Q647 1332 717 1281L891 1405L920 1348Q927 1336 925.50 1321.50Q924 1307 907 1297L794 1214Z"  horiz-adv-x="1054" vert-adv-y="2000"  />

      
      <glyph glyph-name="uni65" unicode="&#x65;" d="M574 899Q511 899 458 873Q405 847 364 801.50Q323 756 294 694.50Q265 633 249 562Q403 581 496 605.50Q589 630 639 658.50Q689 687 705 720Q721 753 721 789Q721 807 713 826.50Q705 846 687.50 862Q670 878 642 888.50Q614 899 574 899M856 187Q805 134 756 96.50Q707 59 656.50 34Q606 9 550.50-2.50Q495-14 431-14Q344-14 275 15Q206 44 158 97.50Q110 151 84 227Q58 303 58 397Q58 475 74.50 552.50Q91 630 122.50 700Q154 770 199.50 830Q245 890 303.50 933.50Q362 977 432.50 1002Q503 1027 584 1027Q661 1027 717 1005Q773 983 809 949Q845 915 862.50 874Q880 833 880 796Q880 730 853 674.50Q826 619 754 574.50Q682 530 556 497Q430 464 232 444Q232 433 231.50 422.50Q231 412 231 401Q231 267 289.50 196.50Q348 126 466 126Q514 126 551.50 136Q589 146 618.50 160.50Q648 175 670.50 192.50Q693 210 711.50 224.50Q730 239 746 249Q762 259 778 259Q797 259 812 242L856 187Z"  horiz-adv-x="957" vert-adv-y="2000"  />

      
      <glyph glyph-name="uni0119" unicode="&#x0119;" d="M574 899Q511 899 458 873Q405 847 364 801.50Q323 756 294 694.50Q265 633 249 562Q403 581 496 605.50Q589 630 639 658.50Q689 687 705 720Q721 753 721 789Q721 807 713 826.50Q705 846 687.50 862Q670 878 642 888.50Q614 899 574 899M626-290Q594-313 549.50-327.50Q505-342 457-342Q379-342 337.50-307Q296-272 296-214Q296-156 332-105Q368-54 428-14Q342-14 273.50 15.50Q205 45 157 98.50Q109 152 83.50 227.50Q58 303 58 397Q58 475 74.50 552.50Q91 630 122.50 700Q154 770 199.50 830Q245 890 303.50 933.50Q362 977 432.50 1002Q503 1027 584 1027Q661 1027 717 1005Q773 983 809 949Q845 915 862.50 874Q880 833 880 796Q880 730 853 674.50Q826 619 754 574.50Q682 530 556 497Q430 464 232 444Q232 433 231.50 422.50Q231 412 231 401Q231 267 289.50 196.50Q348 126 466 126Q514 126 551.50 136Q589 146 618.50 160.50Q648 175 670.50 192.50Q693 210 711.50 224.50Q730 239 746 249Q762 259 778 259Q797 259 812 242L856 187Q781 110 711.50 64.50Q642 19 561 0L562 0Q541-12 518.50-28.50Q496-45 478-66Q460-87 448-112Q436-137 436-165Q436-197 455-216Q474-235 506-235Q526-235 540-231.50Q554-228 563.50-223.50Q573-219 579-215Q585-211 590-211Q602-211 606-224L626-290Z"  horiz-adv-x="957" vert-adv-y="2000"  />

      
      <glyph glyph-name="uni66" unicode="&#x66;" d="M395 865L294 33L247-174Q236-210 214.50-229.50Q193-249 155-249L86-249L220 862L120 875Q102 880 91.50 890Q81 900 83 921L92 993L236 993L248 1091Q259 1178 291.50 1245.50Q324 1313 373.50 1359.50Q423 1406 486.50 1430Q550 1454 624 1454Q685 1454 737 1434L720 1342Q716 1322 693 1322Q670 1322 635 1322Q592 1322 555.50 1309.50Q519 1297 491 1269Q463 1241 443.50 1196Q424 1151 416 1086L405 993L658 993L641 865L395 865Z"  horiz-adv-x="641" vert-adv-y="2000"  />

      
      <glyph glyph-name="uniFB00" unicode="&#xFB00;" d="M986 993L1253 993L1237 868L977 868L875 33L829-174Q818-210 796.50-229.50Q775-249 737-249L667-249L802 868L397 868L295 33L249-174Q238-210 216.50-229.50Q195-249 157-249L87-249L223 866L124 879Q104 882 92.50 892.50Q81 903 83 923L92 993L239 993L249 1076Q260 1163 292 1230.50Q324 1298 372.50 1344.50Q421 1391 484 1415Q547 1439 619 1439Q680 1439 732 1419L715 1326Q712 1316 705 1312Q698 1308 687 1307Q676 1306 661.50 1306.50Q647 1307 630 1307Q588 1307 552.50 1296Q517 1285 489.50 1259Q462 1233 443.50 1189.50Q425 1146 417 1081L405 993L817 993L830 1102Q841 1189 873.50 1256.50Q906 1324 955 1370.50Q1004 1417 1067.50 1441Q1131 1465 1205 1465Q1267 1465 1318 1445L1301 1353Q1298 1343 1291 1339Q1284 1335 1273 1333.50Q1262 1332 1247.50 1332.50Q1233 1333 1216 1333Q1173 1333 1137 1320.50Q1101 1308 1073 1280Q1045 1252 1026 1207Q1007 1162 999 1097L986 993Z"  horiz-adv-x="1234" vert-adv-y="2000"  />

      
      <glyph glyph-name="uniFB01" unicode="&#xFB01;" d="M405 993L972 993L851 0L676 0L782 864L396 864L294 32L247-175Q236-211 214.50-230.50Q193-250 155-250L85-250L222 862L124 874Q103 879 92 888.50Q81 898 83 918L91 993L238 993L245 1049Q256 1142 293 1219Q330 1296 390.50 1351Q451 1406 535.50 1436.50Q620 1467 727 1467Q745 1467 764.50 1465.50Q784 1464 803.50 1461.50Q823 1459 840.50 1455.50Q858 1452 871 1447L853 1357Q851 1347 843.50 1343Q836 1339 824 1338Q812 1337 796 1338Q780 1339 759 1339Q676 1339 615 1321Q554 1303 512 1267Q470 1231 445.50 1176Q421 1121 412 1046L405 993Z"  horiz-adv-x="1067" vert-adv-y="2000"  />

      
      <glyph glyph-name="uniFB03" unicode="&#xFB03;" d="M1537 868L1431 0L1259 0L1365 868L977 868L875 32L828-175Q817-211 795.50-230.50Q774-250 736-250L666-250L803 868L397 868L295 33L249-174Q238-210 216.50-229.50Q195-249 157-249L87-249L223 866L124 879Q104 882 92.50 892.50Q81 903 83 923L92 993L239 993L249 1076Q260 1163 292 1230.50Q324 1298 372.50 1344.50Q421 1391 484 1415Q547 1439 619 1439Q680 1439 732 1419L715 1326Q712 1316 705 1312Q698 1308 687 1307Q676 1306 661.50 1306.50Q647 1307 630 1307Q588 1307 552.50 1296Q517 1285 489.50 1259Q462 1233 443.50 1189.50Q425 1146 417 1081L405 993L819 993L826 1049Q837 1142 874 1219Q911 1296 971.50 1351Q1032 1406 1116.50 1436.50Q1201 1467 1308 1467Q1325 1467 1345 1465.50Q1365 1464 1384.50 1461.50Q1404 1459 1421.50 1455.50Q1439 1452 1451 1447L1434 1357Q1432 1347 1424.50 1343Q1417 1339 1405 1338Q1393 1337 1377 1338Q1361 1339 1340 1339Q1175 1339 1093 1267Q1011 1195 993 1046L986 993L1553 993L1538 868L1537 868Z"  horiz-adv-x="1647" vert-adv-y="2000"  />

      
      <glyph glyph-name="uniFB02" unicode="&#xFB02;" d="M397 865L294 32L247-175Q236-211 214.50-230.50Q193-250 155-250L85-250L222 862L124 874Q103 879 92 888.50Q81 898 83 918L92 993L238 993L245 1048Q255 1132 288 1207Q321 1282 375.50 1338Q430 1394 506 1426.50Q582 1459 679 1459Q751 1459 815.50 1453Q880 1447 943 1446L1063 1446L885 0L712 0L873 1316Q828 1320 781 1325Q734 1330 690 1330Q573 1330 500.50 1256.50Q428 1183 412 1048L406 993L644 993L629 865L397 865Z"  horiz-adv-x="1098" vert-adv-y="2000"  />

      
      <glyph glyph-name="uniFB04" unicode="&#xFB04;" d="M402 992L817 992L824 1048Q834 1132 867 1207Q900 1282 955 1338Q1010 1394 1086 1426.50Q1162 1459 1259 1459Q1336 1459 1406 1452.50Q1476 1446 1544 1446L1642 1446L1465 0L1292 0L1452 1316Q1407 1320 1360 1325Q1313 1330 1270 1330Q1152 1330 1079.50 1256.50Q1007 1183 992 1048L986 992L1253 992L1237 866L976 866L873 32L827-175Q816-211 794.50-230.50Q773-250 735-250L665-250L801 866L393 866L293 33L246-174Q235-210 213.50-229.50Q192-249 154-249L84-249L220 865L124 877Q104 881 92.50 891Q81 901 83 921L92 992L235 992L246 1076Q257 1163 289 1230.50Q321 1298 369.50 1344.50Q418 1391 481 1415Q544 1439 616 1439Q678 1439 729 1419L712 1326Q709 1316 702 1312Q695 1308 684 1307Q673 1306 658.50 1306.50Q644 1307 627 1307Q585 1307 549.50 1296Q514 1285 486.50 1259Q459 1233 440.50 1189.50Q422 1146 414 1081L402 992Z"  horiz-adv-x="1677" vert-adv-y="2000"  />

      
      <glyph glyph-name="uni67" unicode="&#x67;" d="M439 457Q493 457 534.50 480.50Q576 504 604.50 542.50Q633 581 648 629Q663 677 663 726Q663 814 618.50 859Q574 904 496 904Q442 904 401 882Q360 860 331.50 823Q303 786 288.50 739Q274 692 274 641Q274 551 317.50 504Q361 457 439 457M640-25Q640 2 635 24.50Q630 47 622 67Q490 88 394 82.50Q298 77 235.50 53Q173 29 143-9Q113-47 113-91Q113-163 173.50-201Q234-239 345-239Q411-239 465.50-221.50Q520-204 558.50-175Q597-146 618.50-107Q640-68 640-25M980 976L973 917Q968 881 933 869L806 847Q825 795 825 732Q825 682 813.50 642Q802 602 785 568Q768 534 748 504Q728 474 711 444.50Q694 415 682.50 383.50Q671 352 671 315Q671 288 680.50 263.50Q690 239 704.50 215.50Q719 192 736.50 168Q754 144 768.50 117Q783 90 792.50 58.50Q802 27 802-11Q801-82 768-145.50Q735-209 674-258Q613-307 526-335.50Q439-364 330-364Q243-364 171.50-346Q100-328 49.50-295Q-1-262-28.50-215.50Q-56-169-56-113Q-56-49-29 0Q-2 49 44 84.50Q90 120 151 143Q212 166 280.50 177Q349 188 421 187.50Q493 187 562 177Q553 196 547.50 216.50Q542 237 542 261Q542 292 551.50 325Q561 358 583 400Q545 374 498 359.50Q451 345 391 345Q333 345 282.50 364Q232 383 194 420Q156 457 134 512.50Q112 568 112 642Q112 714 138.50 783.50Q165 853 216 907.50Q267 962 342 995Q417 1028 515 1028Q569 1028 618 1015Q667 1002 706 976L980 976Z"  horiz-adv-x="968" vert-adv-y="2000"  />

      
      <glyph glyph-name="uni68" unicode="&#x68;" d="M332 789Q411 907 507.50 967.50Q604 1028 704 1028Q769 1028 818 1002.50Q867 977 897.50 928Q928 879 939 807.50Q950 736 939 645L863 0L685 0L761 645Q776 765 747 823Q718 881 639 881Q594 881 546 856.50Q498 832 453.50 787Q409 742 369.50 678Q330 614 301 535L236 0L59 0L237 1473L415 1473L332 789Z"  horiz-adv-x="1059" vert-adv-y="2000"  />

      
      <glyph glyph-name="uni0125" unicode="&#x0125;" d="M207 1559Q198 1553 184.50 1549.50Q171 1546 159 1546L29 1546L274 1755L444 1755L638 1546L507 1546Q496 1546 483.50 1550Q471 1554 463 1559L359 1656Q355 1659 349 1665Q346 1663 342.50 1660.50Q339 1658 336 1656L207 1559M332 789Q411 907 507.50 967.50Q604 1028 704 1028Q769 1028 818 1002.50Q867 977 897.50 928Q928 879 939 807.50Q950 736 939 645L863 0L685 0L761 645Q776 765 747 823Q718 881 639 881Q594 881 546 856.50Q498 832 453.50 787Q409 742 369.50 678Q330 614 301 535L236 0L59 0L237 1473L415 1473L332 789Z"  horiz-adv-x="1059" vert-adv-y="2000"  />

      
      <glyph glyph-name="uni0127" unicode="&#x0127;" d="M329 765Q408 884 504.50 945Q601 1006 702 1006Q767 1006 816 980.50Q865 955 895.50 906.50Q926 858 937 786.50Q948 715 937 624L863 0L685 0L759 624Q774 743 745 801Q716 859 637 859Q591 859 543.50 834.50Q496 810 451 764.50Q406 719 366.50 654.50Q327 590 298 510L236 0L59 0L197 1143L43 1143L58 1256L211 1256L237 1473L415 1473L389 1256L636 1256L626 1192Q618 1143 565 1143L375 1143L329 765Z"  horiz-adv-x="1059" vert-adv-y="2000"  />

      
      <glyph glyph-name="uni69" unicode="&#x69;" d="M366 1013L244 0L69 0L191 1013L366 1013M434 1331Q434 1305 423.50 1282.50Q413 1260 395.50 1242.50Q378 1225 355.50 1215Q333 1205 309 1205Q286 1205 264 1215Q242 1225 225.50 1242.50Q209 1260 199 1282.50Q189 1305 189 1331Q189 1357 199 1380Q209 1403 226 1420.50Q243 1438 265 1448.50Q287 1459 310 1459Q334 1459 356.50 1449Q379 1439 396 1421.50Q413 1404 423.50 1380.50Q434 1357 434 1331Z"  horiz-adv-x="460" vert-adv-y="2000"  />

      
      <glyph glyph-name="uni012F" unicode="&#x012F;" d="M219 0Q198-12 175.50-28.50Q153-45 135-66Q117-87 105-112Q93-137 93-165Q93-197 112-216Q131-235 163-235Q183-235 197-231.50Q211-228 220.50-223.50Q230-219 236-215Q242-211 247-211Q259-211 263-224L283-290Q251-313 206.50-327.50Q162-342 114-342Q36-342-5.50-307Q-47-272-47-214Q-47-151-4.50-96.50Q38-42 107 0L69 0L191 1013L366 1013L244 0L219 0M310 1459Q334 1459 356.50 1449Q379 1439 396 1421.50Q413 1404 423.50 1380.50Q434 1357 434 1331Q434 1305 423.50 1282.50Q413 1260 395.50 1242.50Q378 1225 355.50 1215Q333 1205 309 1205Q286 1205 264 1215Q242 1225 225.50 1242.50Q209 1260 199 1282.50Q189 1305 189 1331Q189 1357 199 1380Q209 1403 226 1420.50Q243 1438 265 1448.50Q287 1459 310 1459Z"  horiz-adv-x="460" vert-adv-y="2000"  />

      
      <glyph glyph-name="uni0131" unicode="&#x0131;" d="M366 1013L244 0L69 0L191 1013L366 1013Z"  horiz-adv-x="460" vert-adv-y="2000"  />

      
      <glyph glyph-name="uni6a" unicode="&#x6a;" d="M366 1013L232-75Q225-136 202-188.50Q179-241 141.50-280Q104-319 51-341.50Q-2-364-69-364Q-104-364-128.50-359Q-153-354-177-344L-159-248Q-156-239-151.50-234.50Q-147-230-139.50-229Q-132-228-120.50-228.50Q-109-229-92-229Q-21-229 13-192.50Q47-156 58-75L191 1013L366 1013M429 1331Q429 1305 418.50 1282.50Q408 1260 390.50 1242.50Q373 1225 351 1215Q329 1205 305 1205Q281 1205 259.50 1215Q238 1225 221.50 1242.50Q205 1260 195 1282.50Q185 1305 185 1331Q185 1357 195 1380Q205 1403 222 1420.50Q239 1438 260.50 1448.50Q282 1459 306 1459Q330 1459 352 1449Q374 1439 391.50 1421.50Q409 1404 419 1380.50Q429 1357 429 1331Z"  horiz-adv-x="458" vert-adv-y="2000"  />

      
      <glyph glyph-name="uni0237" unicode="&#x0237;" d="M366 1013L232-75Q225-136 202-188.50Q179-241 141.50-280Q104-319 51-341.50Q-2-364-69-364Q-104-364-128.50-359Q-153-354-177-344L-159-248Q-156-239-151.50-234.50Q-147-230-139.50-229Q-132-228-120.50-228.50Q-109-229-92-229Q-21-229 13-192.50Q47-156 58-75L191 1013L366 1013Z"  horiz-adv-x="458" vert-adv-y="2000"  />

      
      <glyph glyph-name="uni6b" unicode="&#x6b;" d="M413 1473L307 606L337 606Q358 606 371 611.50Q384 617 399 634L735 977Q749 994 765 1003.50Q781 1013 804 1013L962 1013L571 616Q541 581 510 563Q526 551 537.50 535.50Q549 520 559 500L863 0L710 0Q688 0 673.50 7.50Q659 15 650 35L392 450Q380 471 367 477.50Q354 484 326 484L292 484L233 0L57 0L238 1473L413 1473Z"  horiz-adv-x="948" vert-adv-y="2000"  />

      
      <glyph glyph-name="uni0138" unicode="&#x0138;" d="M358 1013L308 606L338 606Q355 606 369 611Q383 616 400 634L735 977Q749 994 765 1003.50Q781 1013 804 1013L961 1013L573 616Q544 581 512 562Q527 550 538 534.50Q549 519 559 500L863 0L711 0Q689 0 674.50 7.50Q660 15 651 35L392 450Q380 471 367 477.50Q354 484 326 484L293 484L233 0L57 0L183 1013L358 1013Z"  horiz-adv-x="947" vert-adv-y="2000"  />

      
      <glyph glyph-name="uni0142" unicode="&#x0142;" d="M584 976L584 874Q584 841 556 830L404 762L311 0L136 0L220 695L50 621L50 726Q50 753 75 766L238 839L315 1473L490 1473L421 906L584 976Z"  horiz-adv-x="577" vert-adv-y="2000"  />

      
      <glyph glyph-name="uni013E" unicode="&#x013E;" d="M667 1473Q684 1473 689.50 1465.50Q695 1458 695 1448Q695 1438 691 1423Q687 1408 675.50 1379.50Q664 1351 642.50 1304Q621 1257 585 1184Q574 1162 558.50 1155.50Q543 1149 520 1149L476 1149L569 1473L667 1473M64 0L243 1473L418 1473L239 0L64 0Z"  horiz-adv-x="450" vert-adv-y="2000"  />

      
      <glyph glyph-name="uni6d" unicode="&#x6d;" d="M59 0L181 1014L269 1014Q330 1014 330 954L316 774Q391 899 480.50 963.50Q570 1028 668 1028Q771 1028 820 957.50Q869 887 869 756Q944 895 1038.50 961.50Q1133 1028 1238 1028Q1368 1028 1422 928Q1476 828 1454 645L1378 0L1202 0L1279 645Q1293 764 1271.50 822Q1250 880 1175 880Q1132 880 1089.50 858.50Q1047 837 1007 795.50Q967 754 932.50 692.50Q898 631 871 551L871 550L806 0L630 0L706 645Q721 764 702 822Q683 880 608 880Q560 880 515.50 856Q471 832 431.50 786.50Q392 741 358 675.50Q324 610 296 528L233 0L59 0Z"  horiz-adv-x="1574" vert-adv-y="2000"  />

      
      <glyph glyph-name="uni6e" unicode="&#x6e;" d="M314 757Q395 891 497 959.50Q599 1028 707 1028Q771 1028 819.50 1002.50Q868 977 898.50 928Q929 879 940 807.50Q951 736 940 645L864 0L687 0L763 645Q777 765 748 822.50Q719 880 641 880Q593 880 543.50 854Q494 828 448 780Q402 732 362.50 664.50Q323 597 295 514L237 0L59 0L181 1014L269 1014Q329 1014 329 954L314 757Z"  horiz-adv-x="1060" vert-adv-y="2000"  />

      
      <glyph glyph-name="uni014B" unicode="&#x014B;" d="M314 757Q395 891 497 959.50Q599 1028 707 1028Q771 1028 819.50 1002.50Q868 977 898.50 928Q929 879 940 807.50Q951 736 940 645L874 75L864-3Q854-86 828-153Q802-220 758.50-267Q715-314 653.50-340Q592-366 510-366Q466-366 436-361Q406-356 368-343L383-259Q388-237 395.50-228.50Q403-220 426-220Q437-220 455.50-225.50Q474-231 509-231Q584-231 627.50-181Q671-131 684-23L694 58L763 645Q777 765 748 822.50Q719 880 641 880Q593 880 543.50 854Q494 828 448 780Q402 732 362.50 664.50Q323 597 295 514L237 0L59 0L181 1014L269 1014Q330 1014 329 954L314 757Z"  horiz-adv-x="1060" vert-adv-y="2000"  />

      
      <glyph glyph-name="uni6f" unicode="&#x6f;" d="M453 125Q526 125 585.50 165Q645 205 687.50 271.50Q730 338 753 425Q776 512 776 607Q776 747 720.50 817.50Q665 888 561 888Q487 888 427.50 848.50Q368 809 326 743Q284 677 261 590Q238 503 238 408Q238 268 293 196.50Q348 125 453 125M436-14Q353-14 284 14.50Q215 43 165 97Q115 151 87 229Q59 307 59 407Q59 535 99 648Q139 761 209 845.50Q279 930 373.50 979Q468 1028 577 1028Q660 1028 729 999.50Q798 971 848 917Q898 863 926 785Q954 707 954 608Q954 481 914 368Q874 255 804.50 170Q735 85 640 35.50Q545-14 436-14Z"  horiz-adv-x="1038" vert-adv-y="2000"  />

      
      <glyph glyph-name="unif8" unicode="&#xf8;" d="M319 159Q375 114 452 114Q525 114 586.50 152.50Q648 191 692.50 257.50Q737 324 761.50 414Q786 504 786 607Q786 652 779.50 689.50Q773 727 761 759L319 159M695 855Q639 900 561 900Q487 900 426 862Q365 824 320.50 757.50Q276 691 251.50 601Q227 511 227 408Q227 319 253 253L695 855M873 888Q911 835 932.50 765Q954 695 954 608Q954 481 914 368Q874 255 804 170Q734 85 639.50 35.50Q545-14 436-14Q312-14 222 47L186-2Q164-32 134.50-44.50Q105-57 76-57L9-57L142 124Q102 177 80.50 248Q59 319 59 407Q59 535 99 648Q139 761 208.50 846Q278 931 372.50 980Q467 1029 577 1029Q701 1029 793 966L826 1011Q846 1039 862 1050Q878 1061 910 1061L1000 1061L873 888Z"  horiz-adv-x="1036" vert-adv-y="2000"  />

      
      <glyph glyph-name="uni0153" unicode="&#x0153;" d="M425 121Q503 121 562 156Q621 191 662.50 254Q704 317 727.50 405Q751 493 758 599Q762 666 753 720Q744 774 721 812.50Q698 851 660 872Q622 893 569 893Q491 893 428.50 855Q366 817 322 747Q278 677 254.50 579Q231 481 231 360Q231 313 241 270Q251 227 274 194Q297 161 334 141Q371 121 425 121M1212 902Q1153 902 1102 878.50Q1051 855 1011 811Q971 767 943.50 703.50Q916 640 904 559Q1049 577 1140 602Q1231 627 1283 656Q1335 685 1354 717.50Q1373 750 1373 783Q1373 807 1363.50 828.50Q1354 850 1334 866.50Q1314 883 1284 892.50Q1254 902 1212 902M895 436Q895 281 955.50 203.50Q1016 126 1125 126Q1173 126 1210.50 136Q1248 146 1277.50 160.50Q1307 175 1329.50 192.50Q1352 210 1371 224.50Q1390 239 1405.50 249Q1421 259 1437 259Q1456 259 1471 242L1515 187Q1465 135 1416 97Q1367 59 1316 34.50Q1265 10 1209.50-2Q1154-14 1090-14Q986-14 905.50 44Q825 102 787 216Q718 107 615 46.50Q512-14 382-14Q301-14 240 15.50Q179 45 138.50 95.50Q98 146 77.50 212Q57 278 57 350Q57 514 99.50 640.50Q142 767 215 853.50Q288 940 383.50 984.50Q479 1029 586 1029Q693 1029 765 978Q837 927 872 836Q935 927 1027 978Q1119 1029 1239 1029Q1304 1029 1356.50 1011.50Q1409 994 1445.50 962.50Q1482 931 1502 886.50Q1522 842 1522 789Q1522 748 1510.50 710Q1499 672 1471 638.50Q1443 605 1397 576Q1351 547 1281 522.50Q1211 498 1116 479.50Q1021 461 895 448L895 436Z"  horiz-adv-x="1609" vert-adv-y="2000"  />

      
      <glyph glyph-name="uni70" unicode="&#x70;" d="M259 222Q297 169 350 146.50Q403 124 458 124Q510 124 556 146Q602 168 640 205.50Q678 243 708 293.50Q738 344 758.50 401.50Q779 459 790 520.50Q801 582 801 642Q801 761 758 823Q715 885 637 885Q589 885 540 855.50Q491 826 445.50 773Q400 720 360.50 647Q321 574 292 487L259 222M313 738Q351 804 396 857.50Q441 911 491 949Q541 987 594.50 1007.50Q648 1028 704 1028Q834 1028 905.50 934Q977 840 977 659Q977 577 960 495Q943 413 911.50 338.50Q880 264 835.50 199.50Q791 135 736.50 87.50Q682 40 618 13Q554-14 484-14Q409-14 348 15.50Q287 45 244 99L190-343L17-343L182 1014L270 1014Q330 1014 330 954L313 738Z"  horiz-adv-x="1057" vert-adv-y="2000"  />

      
      <glyph glyph-name="unife" unicode="&#xfe;" d="M259 223Q297 169 350 146.50Q403 124 458 124Q510 124 556 146Q602 168 640 205.50Q678 243 708 293.50Q738 344 758.50 401.50Q779 459 790 520.50Q801 582 801 642Q801 761 758 823Q715 885 637 885Q589 885 540 855Q491 825 445.50 772Q400 719 360 646Q320 573 291 487L259 223M325 758Q363 819 406.50 869Q450 919 498 954.50Q546 990 598 1009Q650 1028 704 1028Q834 1028 905.50 934Q977 840 977 659Q977 577 960 495Q943 413 911.50 338.50Q880 264 835.50 199.50Q791 135 736.50 87.50Q682 40 618 13Q554-14 484-14Q409-14 347.50 15.50Q286 45 244 99L197-279Q194-305 174.50-324Q155-343 125-343L17-343L238 1473L413 1473L325 758Z"  horiz-adv-x="1057" vert-adv-y="2000"  />

      
      <glyph glyph-name="uni71" unicode="&#x71;" d="M754 889Q732 894 710.50 895.50Q689 897 668 897Q607 897 551 877.50Q495 858 446 823Q397 788 357 739.50Q317 691 288.50 633Q260 575 244 509.50Q228 444 228 375Q228 255 267.50 194.50Q307 134 383 134Q431 134 478 164Q525 194 567 247.50Q609 301 645 374.50Q681 448 709 535L754 889M672 244Q637 185 596.50 137.50Q556 90 511.50 56Q467 22 418 4Q369-14 316-14Q256-14 207 9.50Q158 33 123 78.50Q88 124 69 190.50Q50 257 50 343Q50 433 72.50 518.50Q95 604 136.50 680Q178 756 236.50 819.50Q295 883 366.50 929.50Q438 976 520 1001.50Q602 1027 692 1027Q757 1027 818 1016.50Q879 1006 939 980L776-343L664-343Q646-343 634-336.50Q622-330 615.50-319.50Q609-309 607-295Q605-281 607-267L672 244Z"  horiz-adv-x="1023" vert-adv-y="2000"  />

      
      <glyph glyph-name="uni72" unicode="&#x72;" d="M313 731Q353 816 399.50 878.50Q446 941 497 976.50Q548 1012 602 1019.50Q656 1027 712 1003L680 832Q550 884 450.50 794Q351 704 289 469L233 0L59 0L181 1014L269 1014Q330 1014 330 954L313 731Z"  horiz-adv-x="684" vert-adv-y="2000"  />

      
      <glyph glyph-name="uni73" unicode="&#x73;" d="M712 851Q704 839 696 833.50Q688 828 676 828Q662 828 645.50 839Q629 850 605.50 863.50Q582 877 548 888.50Q514 900 466 900Q421 900 384 887.50Q347 875 320.50 853Q294 831 279.50 801.50Q265 772 265 739Q265 692 296 664Q327 636 374 615.50Q421 595 475 576Q529 557 576 528Q623 499 654 454Q685 409 685 337Q685 267 657.50 203Q630 139 578.50 90.50Q527 42 454.50 13Q382-16 292-16Q195-16 120.50 18.50Q46 53-1 107L43 175Q52 188 62.50 195Q73 202 90 202Q106 202 122 188Q138 174 162 156.50Q186 139 222.50 125Q259 111 315 111Q364 111 403.50 126Q443 141 470.50 166Q498 191 512.50 224.50Q527 258 527 296Q527 347 496 377Q465 407 418 427Q371 447 317 464.50Q263 482 216 509.50Q169 537 138 581Q107 625 107 698Q107 762 132.50 821.50Q158 881 206 927Q254 973 322.50 1000.50Q391 1028 477 1028Q568 1028 637.50 997.50Q707 967 757 915L712 851Z"  horiz-adv-x="800" vert-adv-y="2000"  />

      
      <glyph glyph-name="uni015F" unicode="&#x015F;" d="M43 175Q52 188 62.50 195Q73 202 90 202Q106 202 122 188Q138 174 162 156.50Q186 139 222.50 125Q259 111 315 111Q364 111 403.50 126Q443 141 470.50 166Q498 191 512.50 224.50Q527 258 527 296Q527 347 496 377Q465 407 418 427Q371 447 317 464.50Q263 482 216 509.50Q169 537 138 581Q107 625 107 698Q107 762 132.50 821.50Q158 881 206 927Q254 973 322.50 1000.50Q391 1028 477 1028Q568 1028 637.50 997.50Q707 967 757 915L712 851Q704 839 696 833.50Q688 828 676 828Q662 828 645.50 839Q629 850 605.50 863.50Q582 877 548 888.50Q514 900 466 900Q421 900 384 887.50Q347 875 320.50 853Q294 831 279.50 801.50Q265 772 265 739Q265 692 296 664Q327 636 374 615.50Q421 595 475 576Q529 557 576 528Q623 499 654 454Q685 409 685 337Q685 272 661 212.50Q637 153 593 105.50Q549 58 485.50 26.50Q422-5 343-13L319-76Q395-93 429.50-124.50Q464-156 464-202Q464-238 447.50-267Q431-296 401-316Q371-336 330-346.50Q289-357 241-357Q203-357 170-348.50Q137-340 110-326L134-271Q141-253 159-253Q165-253 171.50-256.50Q178-260 187-264.50Q196-269 209-272.50Q222-276 241-276Q281-276 302-257Q323-238 323-209Q323-175 287.50-160.50Q252-146 187-137L241-13Q162-5 101 27.50Q40 60-1 107L43 175Z"  horiz-adv-x="800" vert-adv-y="2000"  />

      
      <glyph glyph-name="unidf" unicode="&#xdf;" d="M249 991Q272 1083 319.50 1166.50Q367 1250 433 1314Q499 1378 581 1415.50Q663 1453 756 1453Q844 1453 907.50 1426Q971 1399 1011 1357.50Q1051 1316 1070 1265.50Q1089 1215 1089 1168Q1089 1100 1065.50 1052Q1042 1004 1007.50 968Q973 932 932 905Q891 878 856.50 852.50Q822 827 798.50 799Q775 771 775 733Q775 698 796.50 674.50Q818 651 850 630.50Q882 610 919.50 588.50Q957 567 989 536.50Q1021 506 1042.50 462Q1064 418 1064 353Q1064 267 1033 198.50Q1002 130 949.50 82.50Q897 35 826.50 9.50Q756-16 678-16Q588-16 519 18.50Q450 53 401 107L449 173Q458 185 469.50 192Q481 199 498 199Q515 199 532 184.50Q549 170 572 153Q595 136 627 121.50Q659 107 707 107Q749 107 784.50 122.50Q820 138 845.50 165Q871 192 885 228.50Q899 265 899 307Q899 355 876 386.50Q853 418 819 441Q785 464 745 484Q705 504 671 530Q637 556 614 592Q591 628 591 684Q591 746 615.50 790Q640 834 677 868.50Q714 903 757 932Q800 961 837 993Q874 1025 898.50 1065Q923 1105 923 1161Q923 1189 913 1218.50Q903 1248 880 1272Q857 1296 820.50 1311Q784 1326 732 1326Q670 1326 615.50 1292.50Q561 1259 518.50 1201Q476 1143 447 1066.50Q418 990 408 905L301 33L254-174Q243-210 221.50-229.50Q200-249 162-249L92-249L228 863L119 876Q98 881 86.50 891Q75 901 79 920L86 991L249 991Z"  horiz-adv-x="1158" vert-adv-y="2000"  />

      
      <glyph glyph-name="uni017F" unicode="&#x017F;" d="M255 1091Q266 1178 297 1245.50Q328 1313 376 1359Q424 1405 487 1429Q550 1453 624 1453Q656 1453 684.50 1447.50Q713 1442 738 1432L722 1344Q720 1334 713 1330Q706 1326 694.50 1325Q683 1324 668.50 1325Q654 1326 637 1326Q595 1326 560.50 1313Q526 1300 499.50 1271.50Q473 1243 455 1197.50Q437 1152 429 1086L301 33L254-174Q243-210 221.50-229.50Q200-249 162-249L92-249L227 863L119 876Q98 881 86.50 891Q75 901 79 920L86 991L243 991L255 1091Z"  horiz-adv-x="540" vert-adv-y="2000"  />

      
      <glyph glyph-name="uni74" unicode="&#x74;" d="M139 191Q139 197 139 206.50Q139 216 140.50 234Q142 252 145.50 281Q149 310 155 357L217 864L104 864Q90 864 81.50 873.50Q73 883 75 903L83 974L239 995L315 1308Q320 1323 330.50 1332.50Q341 1342 357 1342L450 1342L407 993L673 993L658 864L391 864L330 366Q325 325 322 300Q319 275 317.50 260Q316 245 315.50 239Q315 233 315 230Q315 179 339 154.50Q363 130 403 130Q430 130 449.50 137.50Q469 145 484 154Q499 163 509 170.50Q519 178 526 178Q535 178 539.50 174Q544 170 548 161L586 76Q537 33 474.50 8.50Q412-16 349-16Q252-16 196.50 37Q141 90 139 191Z"  horiz-adv-x="709" vert-adv-y="2000"  />

      
      <glyph glyph-name="uni0165" unicode="&#x0165;" d="M742 1473Q759 1473 764.50 1465.50Q770 1458 770 1448Q770 1438 766.50 1423Q763 1408 751.50 1379.50Q740 1351 718.50 1304Q697 1257 661 1184Q649 1162 634 1155.50Q619 1149 595 1149L552 1149L645 1473L742 1473M139 191Q139 197 139 206.50Q139 216 140.50 234Q142 252 145.50 281Q149 310 155 357L217 864L104 864Q90 864 81.50 873.50Q73 883 75 903L83 974L239 995L315 1308Q320 1323 330.50 1332.50Q341 1342 357 1342L450 1342L407 993L673 993L658 864L391 864L330 366Q325 325 322 300Q319 275 317.50 260Q316 245 315.50 239Q315 233 315 230Q315 179 339 154.50Q363 130 403 130Q430 130 449.50 137.50Q469 145 484 154Q499 163 509 170.50Q519 178 526 178Q535 178 539.50 174Q544 170 548 161L586 76Q537 33 474.50 8.50Q412-16 349-16Q252-16 196.50 37Q141 90 139 191Z"  horiz-adv-x="709" vert-adv-y="2000"  />

      
      <glyph glyph-name="uni0167" unicode="&#x0167;" d="M148 191Q148 197 148 206.50Q148 216 149.50 234Q151 252 154.50 281Q158 310 164 357L191 579L73 579Q57 579 46.50 589.50Q36 600 38 620L48 692L205 692L226 864L113 864Q99 864 90.50 873.50Q82 883 84 903L92 974L248 995L324 1308Q329 1323 339.50 1332.50Q350 1342 366 1342L459 1342L416 993L682 993L667 864L400 864L379 692L635 692L620 579L365 579L339 366Q334 325 331 300Q328 275 326.50 260Q325 245 324.50 239Q324 233 324 230Q324 179 348 154.50Q372 130 412 130Q439 130 458.50 137.50Q478 145 493 154Q508 163 518 170.50Q528 178 535 178Q544 178 548.50 174Q553 170 557 161L595 76Q546 33 483.50 8.50Q421-16 358-16Q261-16 205.50 37Q150 90 148 191Z"  horiz-adv-x="719" vert-adv-y="2000"  />

      
      <glyph glyph-name="uni75" unicode="&#x75;" d="M975 1013L853 0L765 0Q700 0 700 64L715 249Q635 119 534.50 52.50Q434-14 328-14Q264-14 215 11.50Q166 37 135.50 86Q105 135 94 206Q83 277 95 369L171 1013L348 1013L272 369Q258 250 286.50 192Q315 134 394 134Q440 134 489 159Q538 184 583 230Q628 276 667.50 341.50Q707 407 735 487L798 1013L975 1013Z"  horiz-adv-x="1059" vert-adv-y="2000"  />

      
      <glyph glyph-name="uni0173" unicode="&#x0173;" d="M830 0Q809-12 786.50-28.50Q764-45 746-66Q728-87 716-112Q704-137 704-165Q704-197 723-216Q742-235 774-235Q794-235 808-231.50Q822-228 831.50-223.50Q841-219 847-215Q853-211 858-211Q870-211 874-224L894-290Q862-313 817.50-327.50Q773-342 725-342Q647-342 605.50-307Q564-272 564-214Q564-148 610.50-91.50Q657-35 729 7Q700 22 700 64L715 249Q635 119 534.50 52.50Q434-14 328-14Q264-14 215 11.50Q166 37 135.50 86Q105 135 94 206Q83 277 95 369L171 1013L348 1013L272 369Q258 250 286.50 192Q315 134 394 134Q440 134 489 159Q538 184 583 230Q628 276 667.50 341.50Q707 407 735 487L798 1013L975 1013L853 0L830 0Z"  horiz-adv-x="1059" vert-adv-y="2000"  />

      
      <glyph glyph-name="uni76" unicode="&#x76;" d="M988 1013L480 0L332 0L70 1013L214 1013Q234 1013 246 1002Q258 991 262 976L412 324Q418 286 422 249Q426 212 429 174Q440 211 453 248Q466 285 483 324L796 976Q804 992 818 1002.50Q832 1013 850 1013L988 1013Z"  horiz-adv-x="958" vert-adv-y="2000"  />

      
      <glyph glyph-name="uni77" unicode="&#x77;" d="M1463 1013L1038 0L903 0Q879 0 873 34L750 721Q748 738 746.50 753.50Q745 769 743 786Q732 753 719 720L427 34Q413 0 386 0L256 0L78 1013L211 1013Q231 1013 243 1003Q255 993 259 976L352 324Q354 289 356 256Q358 223 359 191Q370 223 383 256Q396 289 410 324L687 980Q692 995 706 1005Q720 1015 737 1015L811 1015Q830 1015 841 1005Q852 995 854 980L968 324Q973 289 977 256.50Q981 224 984 191Q993 223 1003.50 256Q1014 289 1026 324L1283 976Q1288 992 1302.50 1002.50Q1317 1013 1334 1013L1463 1013Z"  horiz-adv-x="1446" vert-adv-y="2000"  />

      
      <glyph glyph-name="uni78" unicode="&#x78;" d="M571 544L840 0L682 0Q662 0 650.50 10Q639 20 632 35L442 441Q433 420 421 402L145 34Q134 20 122 10Q110 0 92 0L-63 0L346 545L103 1013L262 1013Q282 1013 291 1007.50Q300 1002 306 988L476 639Q487 661 501 682L730 985Q746 1013 772 1013L932 1013L571 544Z"  horiz-adv-x="928" vert-adv-y="2000"  />

      
      <glyph glyph-name="uni79" unicode="&#x79;" d="M992 1013L308-302Q297-323 282.50-333Q268-343 246-343L115-343L335 60L72 1013L219 1013Q241 1013 251 1002.50Q261 992 266 976L429 338Q434 317 437 296Q440 275 442 254Q451 275 460 296.50Q469 318 479 339L799 978Q807 994 821.50 1003.50Q836 1013 851 1013L992 1013Z"  horiz-adv-x="959" vert-adv-y="2000"  />

      
      <glyph glyph-name="uni7a" unicode="&#x7a;" d="M836 1013L826 937Q824 918 815.50 900.50Q807 883 796 869L212 139L711 139L695 0L-18 0L-9 74Q-8 87 0 105Q8 123 21 138L608 873L117 873L134 1013L836 1013Z"  horiz-adv-x="848" vert-adv-y="2000"  />

      
      <glyph glyph-name="uniaa" unicode="&#xaa;" d="M500 1103Q434 1101 388.50 1092Q343 1083 314.50 1067.50Q286 1052 273 1031Q260 1010 260 984Q260 950 281 935Q302 920 334 920Q380 920 415.50 939Q451 958 487 993L500 1103M213 1353Q267 1403 327 1426Q387 1449 455 1449Q504 1449 540.50 1430.50Q577 1412 600 1380.50Q623 1349 632.50 1307.50Q642 1266 636 1221L589 840L531 840Q514 840 506.50 845.50Q499 851 492 868L487 917Q462 896 439 880Q416 864 392 853Q368 842 341.50 836.50Q315 831 284 831Q220 831 179 865.50Q138 900 138 968Q138 1008 156.50 1045.50Q175 1083 218.50 1113Q262 1143 333 1162Q404 1181 510 1183L514 1221Q519 1278 500 1312Q481 1346 427 1346Q392 1346 368 1337Q344 1328 326 1317.50Q308 1307 293.50 1298Q279 1289 264 1289Q250 1289 242.50 1296.50Q235 1304 230 1313L213 1353Z"  horiz-adv-x="685" vert-adv-y="2000"  />

      
      <glyph glyph-name="uniba" unicode="&#xba;" d="M478 1448Q536 1448 582.50 1429.50Q629 1411 661 1376.50Q693 1342 710.50 1293.50Q728 1245 728 1185Q728 1103 704 1037Q680 971 637.50 924.50Q595 878 535 853Q475 828 403 828Q344 828 297 846.50Q250 865 217.50 899.50Q185 934 167.50 983Q150 1032 150 1092Q150 1173 174 1239Q198 1305 241.50 1351.50Q285 1398 345.50 1423Q406 1448 478 1448M416 931Q506 931 550 999.50Q594 1068 594 1185Q594 1260 562 1302.50Q530 1345 466 1345Q416 1345 381.50 1326Q347 1307 325.50 1273.50Q304 1240 294 1193Q284 1146 284 1090Q284 1015 316.50 973Q349 931 416 931Z"  horiz-adv-x="751" vert-adv-y="2000"  />

      
      <glyph glyph-name="uni207F" unicode="&#x207F;" d="M274 1358Q312 1394 354.50 1417Q397 1440 454 1440Q496 1440 526.50 1425.50Q557 1411 576 1384.50Q595 1358 601.50 1322Q608 1286 603 1243L563 915L441 915L481 1243Q487 1291 468.50 1317Q450 1343 405 1343Q372 1343 341.50 1328.50Q311 1314 282 1288L236 915L115 915L178 1432L242 1432Q267 1432 272 1406L274 1358Z"  horiz-adv-x="597" vert-adv-y="2000"  />

      
      <glyph glyph-name="uni60" unicode="&#x60;" d="M439 1449Q469 1449 483 1438.50Q497 1428 507 1405L616 1163L523 1163Q504 1163 492.50 1169.50Q481 1176 470 1191L284 1449L439 1449Z"  horiz-adv-x="736" vert-adv-y="2000"  />

      
      <glyph glyph-name="unib4" unicode="&#xb4;" d="M799 1449L555 1191Q541 1176 528 1169.50Q515 1163 496 1163L398 1163L561 1405Q576 1428 592.50 1438.50Q609 1449 639 1449L799 1449Z"  horiz-adv-x="736" vert-adv-y="2000"  />

      
      <glyph glyph-name="uni02C6" unicode="&#x02C6;" d="M781 1169L671 1169Q661 1169 651.50 1173Q642 1177 633 1188L534 1320Q531 1325 527.50 1329.50Q524 1334 521 1339Q516 1334 512 1329Q508 1324 504 1320L374 1188Q355 1169 332 1169L218 1169L453 1433L605 1433L781 1169Z"  horiz-adv-x="736" vert-adv-y="2000"  />

      
      <glyph glyph-name="uni02C7" unicode="&#x02C7;" d="M811 1433L576 1169L423 1169L247 1433L361 1433Q372 1433 381.50 1428Q391 1423 396 1418L499 1282Q502 1277 505.50 1272Q509 1267 512 1262Q517 1267 521 1272Q525 1277 530 1282L663 1418Q670 1423 680.50 1428Q691 1433 701 1433L811 1433Z"  horiz-adv-x="736" vert-adv-y="2000"  />

      
      <glyph glyph-name="uni0315" unicode="&#x0315;" d="M626 1475Q643 1475 649 1466.50Q655 1458 655 1449Q655 1440 651.50 1425.50Q648 1411 636 1382.50Q624 1354 602 1306.50Q580 1259 544 1184Q532 1162 516 1155Q500 1148 476 1148L414 1148L507 1475L626 1475Z"   vert-adv-y="2000"  />

      
      <glyph glyph-name="uni02DC" unicode="&#x02DC;" d="M619 1325Q686 1325 698 1411L798 1411Q793 1364 777 1324.50Q761 1285 736 1257Q711 1229 679.50 1213.50Q648 1198 611 1198Q579 1198 552.50 1212.50Q526 1227 503 1244Q480 1261 459.50 1275.50Q439 1290 418 1290Q351 1290 340 1202L238 1202Q243 1250 259.50 1289.50Q276 1329 301 1357.50Q326 1386 358 1401.50Q390 1417 426 1417Q459 1417 485 1402.50Q511 1388 534 1371Q557 1354 577.50 1339.50Q598 1325 619 1325Z"  horiz-adv-x="736" vert-adv-y="2000"  />

      
      <glyph glyph-name="uniaf" unicode="&#xaf;" d="M256 1348L784 1348L771 1231L242 1231L256 1348Z"  horiz-adv-x="736" vert-adv-y="2000"  />

      
      <glyph glyph-name="uni02C9" unicode="&#x02C9;" d="M256 1348L784 1348L771 1231L242 1231L256 1348Z"  horiz-adv-x="736" vert-adv-y="2000"  />

      
      <glyph glyph-name="uni02D8" unicode="&#x02D8;" d="M499 1164Q429 1164 383 1185.50Q337 1207 311.50 1243.50Q286 1280 278.50 1329Q271 1378 277 1433L394 1433Q390 1400 393 1371.50Q396 1343 409.50 1323Q423 1303 448 1291.50Q473 1280 512 1280Q551 1280 578.50 1291.50Q606 1303 624 1323Q642 1343 651.50 1371.50Q661 1400 665 1433L781 1433Q775 1378 756.50 1329Q738 1280 704.50 1243.50Q671 1207 620 1185.50Q569 1164 499 1164Z"  horiz-adv-x="736" vert-adv-y="2000"  />

      
      <glyph glyph-name="uni02DA" unicode="&#x02DA;" d="M332 1315Q336 1357 355 1391Q374 1425 402 1450Q430 1475 464.50 1488.50Q499 1502 536 1502Q573 1502 605.50 1488.50Q638 1475 661 1450Q684 1425 695 1391Q706 1357 701 1315Q696 1274 677.50 1240Q659 1206 631 1182Q603 1158 567.50 1144.50Q532 1131 494 1131Q457 1131 425.50 1144.50Q394 1158 371.50 1182Q349 1206 338 1240Q327 1274 332 1315M424 1315Q419 1271 440.50 1243Q462 1215 506 1215Q547 1215 575.50 1243Q604 1271 609 1315Q614 1360 591.50 1388Q569 1416 528 1416Q485 1416 457 1388Q429 1360 424 1315Z"  horiz-adv-x="736" vert-adv-y="2000"  />

      
      <glyph glyph-name="uni02DD" unicode="&#x02DD;" d="M643 1449L431 1191Q418 1175 404.50 1169Q391 1163 371 1163L303 1163L458 1405Q472 1428 488 1438.50Q504 1449 534 1449L643 1449M932 1449L680 1191Q666 1176 652.50 1169.50Q639 1163 620 1163L542 1163L734 1405Q751 1427 766 1438Q781 1449 812 1449L932 1449Z"  horiz-adv-x="736" vert-adv-y="2000"  />

      
      <glyph glyph-name="uni02D9" unicode="&#x02D9;" d="M643 1331Q643 1305 632.50 1282.50Q622 1260 604.50 1242.50Q587 1225 564.50 1215Q542 1205 518 1205Q495 1205 473 1215Q451 1225 434.50 1242.50Q418 1260 408 1282.50Q398 1305 398 1331Q398 1357 408 1380Q418 1403 435 1420.50Q452 1438 474 1448.50Q496 1459 519 1459Q543 1459 565.50 1449Q588 1439 605 1421.50Q622 1404 632.50 1380.50Q643 1357 643 1331Z"  horiz-adv-x="736" vert-adv-y="2000"  />

      
      <glyph glyph-name="unib8" unicode="&#xb8;" d="M389-76Q465-93 499.50-124.50Q534-156 534-202Q534-238 517.50-267Q501-296 471-316Q441-336 400-346.50Q359-357 311-357Q273-357 240-348.50Q207-340 180-326L204-271Q211-253 229-253Q235-253 241.50-256.50Q248-260 257-264.50Q266-269 279-272.50Q292-276 311-276Q351-276 372-257Q393-238 393-209Q393-175 357.50-160.50Q322-146 257-137L328 25L428 25L389-76Z"  horiz-adv-x="736" vert-adv-y="2000"  />

      
      <glyph glyph-name="uni02DB" unicode="&#x02DB;" d="M474-211Q486-211 490-224L510-290Q478-313 433.50-327.50Q389-342 341-342Q263-342 221.50-307Q180-272 180-214Q180-180 193-148Q206-116 229.50-87.50Q253-59 285.50-33.50Q318-8 356 13L446 0Q425-12 402.50-28.50Q380-45 362-66Q344-87 332-112Q320-137 320-165Q320-197 339-216Q358-235 390-235Q410-235 424-231.50Q438-228 447.50-223.50Q457-219 463-215Q469-211 474-211Z"  horiz-adv-x="736" vert-adv-y="2000"  />

      
      <glyph glyph-name="uni0393" unicode="&#x0393;" d="M1071 1285L443 1285L285 0L97 0L273 1432L1088 1432L1071 1285Z"  horiz-adv-x="1026" vert-adv-y="2000"  />

      
      <glyph glyph-name="uni0394" unicode="&#x0394;" d="M198 150L969 150L739 1124Q733 1147 727.50 1175Q722 1203 717 1236Q691 1170 668 1123L198 150M1197 0L-68 0L656 1431L825 1431L1197 0Z"  horiz-adv-x="1279" vert-adv-y="2000"  />

      
      <glyph glyph-name="uni0398" unicode="&#x0398;" d="M509 801L1023 801L1004 649L491 649L509 801M1420 818Q1420 635 1363.50 482Q1307 329 1206.50 218.50Q1106 108 968.50 46.50Q831-15 669-15Q537-15 431.50 32Q326 79 251.50 162.50Q177 246 137.50 361Q98 476 98 613Q98 796 155 949.50Q212 1103 313 1214Q414 1325 551.50 1387Q689 1449 850 1449Q982 1449 1087.50 1401.50Q1193 1354 1267 1270Q1341 1186 1380.50 1070.50Q1420 955 1420 818M1228 814Q1228 923 1200 1011.50Q1172 1100 1120.50 1162Q1069 1224 994.50 1258Q920 1292 827 1292Q709 1292 610.50 1244.50Q512 1197 440.50 1109Q369 1021 329.50 896.50Q290 772 290 618Q290 509 317.50 421Q345 333 397 271Q449 209 523 175.50Q597 142 690 142Q809 142 908 189Q1007 236 1078 323.50Q1149 411 1188.50 535.50Q1228 660 1228 814Z"  horiz-adv-x="1491" vert-adv-y="2000"  />

      
      <glyph glyph-name="uni039B" unicode="&#x039B;" d="M1177 0L1027 0Q1002 0 987.50 12.50Q973 25 968 44L730 1068Q722 1100 714.50 1138Q707 1176 702 1218Q674 1133 641 1068L152 44Q144 27 125.50 13.50Q107 0 84 0L-66 0L647 1432L816 1432L1177 0Z"  horiz-adv-x="1261" vert-adv-y="2000"  />

      
      <glyph glyph-name="uni039E" unicode="&#x039E;" d="M1173 1432L1154 1274L164 1274L183 1432L1173 1432M1016 158L998 0L8 0L26 158L1016 158M335 806L865 806L845 643L314 643L335 806Z"  horiz-adv-x="1150" vert-adv-y="2000"  />

      
      <glyph glyph-name="uni03A0" unicode="&#x03A0;" d="M1173 0L985 0L1143 1285L443 1285L285 0L97 0L273 1432L1348 1432L1173 0Z"  horiz-adv-x="1419" vert-adv-y="2000"  />

      
      <glyph glyph-name="uni03A3" unicode="&#x03A3;" d="M491 1285Q446 1285 410 1288.50Q374 1292 339 1299Q377 1276 406 1248.50Q435 1221 455 1186L668 822Q690 784 698 766.50Q706 749 704 732Q702 712 689 691Q676 670 644 632L302 224Q276 193 253 173Q230 153 204 138Q240 143 271.50 145Q303 147 330 147L994 147L976 0L-14 0L-5 70Q-3 91 9.50 112Q22 133 38 149L546 714L168 1296Q160 1308 155 1322.50Q150 1337 152 1351L161 1432L1152 1432L1134 1285L491 1285Z"  horiz-adv-x="1126" vert-adv-y="2000"  />

      
      <glyph glyph-name="uni03A6" unicode="&#x03A6;" d="M814 225Q887 226 952.50 246.50Q1018 267 1073.50 303.50Q1129 340 1174 391Q1219 442 1250 503.50Q1281 565 1298 635.50Q1315 706 1315 782Q1315 870 1289.50 948Q1264 1026 1215 1085Q1166 1144 1095.50 1179Q1025 1214 935 1215L814 225M757 1215Q647 1213 555.50 1168.50Q464 1124 397.50 1048Q331 972 294 871.50Q257 771 257 658Q257 570 282.50 492Q308 414 357 355Q406 296 476.50 261Q547 226 637 225L757 1215M953 1361Q1083 1359 1184 1313Q1285 1267 1354.50 1189.50Q1424 1112 1460.50 1009Q1497 906 1497 791Q1497 645 1446 516Q1395 387 1303 290Q1211 193 1081.50 136.50Q952 80 796 79L772-115L595-115L619 79Q489 80 387.50 126Q286 172 216.50 250Q147 328 111 431Q75 534 75 649Q75 795 126.50 924Q178 1053 271 1149.50Q364 1246 492.50 1302.50Q621 1359 775 1361L798 1547L976 1547L953 1361Z"  horiz-adv-x="1544" vert-adv-y="2000"  />

      
      <glyph glyph-name="uni03A8" unicode="&#x03A8;" d="M1519 1432L1456 921Q1441 794 1391.50 691Q1342 588 1261 514Q1180 440 1068.50 398Q957 356 816 350L773 0L585 0L628 350Q489 356 388.50 398.50Q288 441 225.50 515Q163 589 139.50 691.50Q116 794 131 921L194 1432L318 1432Q349 1432 363 1413Q377 1394 374 1367L319 921Q307 824 319 748.50Q331 673 370.50 620Q410 567 478.50 537.50Q547 508 647 502L761 1432L949 1432L835 502Q937 507 1012.50 537Q1088 567 1141 620Q1194 673 1225 748.50Q1256 824 1268 921L1323 1367Q1326 1394 1344.50 1413Q1363 1432 1394 1432L1519 1432Z"  horiz-adv-x="1512" vert-adv-y="2000"  />

      
      <glyph glyph-name="uni03A9" unicode="&#x03A9;" d="M882 158L1264 158L1253 61Q1251 34 1231 17Q1211 0 1182 0L718 0L771 433Q855 451 926.50 488Q998 525 1050.50 585Q1103 645 1133 729Q1163 813 1163 925Q1163 1015 1136.50 1084Q1110 1153 1061.50 1200.50Q1013 1248 945.50 1272Q878 1296 796 1296Q695 1296 608 1263Q521 1230 457 1166Q393 1102 357 1008Q321 914 321 792Q321 715 342 654.50Q363 594 401 549.50Q439 505 492 476Q545 447 609 433L557 0L92 0Q63 0 48.50 17Q34 34 37 61L48 158L431 158L452 337Q376 359 316.50 401Q257 443 215.50 502Q174 561 152 634.50Q130 708 130 792Q130 937 183 1058Q236 1179 328.50 1265Q421 1351 546 1399Q671 1447 814 1447Q936 1447 1036 1409Q1136 1371 1207 1303Q1278 1235 1317 1140.50Q1356 1046 1356 934Q1356 820 1323.50 722Q1291 624 1231.50 547Q1172 470 1089 415.50Q1006 361 904 336L882 158Z"  horiz-adv-x="1418" vert-adv-y="2000"  />

      
      <glyph glyph-name="uni03B1" unicode="&#x03B1;" d="M391 129Q439 129 484.50 153.50Q530 178 572 222Q614 266 652.50 328.50Q691 391 726 468Q733 549 735.50 625Q738 701 724.50 760Q711 819 677 854.50Q643 890 578 890Q508 890 445 849Q382 808 335 738Q288 668 260 575.50Q232 483 232 381Q232 256 272.50 192.50Q313 129 391 129M1072 1013Q1026 847 967 700Q908 553 839 430Q837 372 838.50 321.50Q840 271 850.50 233.50Q861 196 883 174.50Q905 153 946 153L1007 153L990 54Q988 43 982 32Q976 21 964 12Q952 3 932.50-2.50Q913-8 884-8Q842-8 813.50 9.50Q785 27 767.50 61Q750 95 741.50 145Q733 195 730 260Q633 130 528 58Q423-14 314-14Q255-14 207.50 8.50Q160 31 126 77Q92 123 73.50 192Q55 261 55 354Q55 443 73 527.50Q91 612 124 687Q157 762 203 825Q249 888 305 933Q361 978 425 1003.50Q489 1029 558 1029Q624 1029 671 1006Q718 983 749.50 943Q781 903 799 849.50Q817 796 825 735Q832 758 838.50 782Q845 806 852 830Q868 890 880 926Q892 962 903 981.50Q914 1001 925 1007Q936 1013 951 1013L1072 1013Z"  horiz-adv-x="1109" vert-adv-y="2000"  />

      
      <glyph glyph-name="uni03B2" unicode="&#x03B2;" d="M258 222Q293 174 349 149.50Q405 125 468 125Q541 125 598 152.50Q655 180 694 227Q733 274 753 337Q773 400 773 472Q773 536 753 582.50Q733 629 698.50 659.50Q664 690 617 704.50Q570 719 516 719L459 719L476 855L512 855Q568 855 617 872Q666 889 702 923Q738 957 758.50 1009Q779 1061 779 1132Q779 1220 732 1269.50Q685 1319 602 1319Q547 1319 504.50 1296.50Q462 1274 430.50 1224.50Q399 1175 377 1096.50Q355 1018 341 906L258 222M169 911Q185 1041 218.50 1141Q252 1241 306 1309Q360 1377 436 1412Q512 1447 613 1447Q693 1447 754.50 1423.50Q816 1400 858 1359.50Q900 1319 921.50 1263.50Q943 1208 943 1145Q943 1010 876 920Q809 830 694 793Q815 762 879.50 678.50Q944 595 944 472Q944 370 912 281.50Q880 193 821.50 127.50Q763 62 681 24Q599-14 499-14Q427-14 358.50 15.50Q290 45 243 105L223-62L176-268Q165-304 143.50-324Q122-344 84-344L16-344L95 311L169 911Z"  horiz-adv-x="1040" vert-adv-y="2000"  />

      
      <glyph glyph-name="uni03B3" unicode="&#x03B3;" d="M1029 1013Q987 885 932.50 762Q878 639 814.50 522.50Q751 406 680 296.50Q609 187 534 87L481-343L309-343L361 85Q350 263 332.50 411.50Q315 560 285.50 666Q256 772 212 831Q168 890 104 890L75 890L83 953Q84 968 88.50 980Q93 992 103.50 1000.50Q114 1009 132 1013.50Q150 1018 178 1018Q262 1018 320.50 966.50Q379 915 416 814.50Q453 714 471 567Q489 420 491 229Q544 307 591 394Q638 481 679 573.50Q720 666 755 761.50Q790 857 819 952Q829 987 845.50 1000Q862 1013 886 1013L1029 1013Z"  horiz-adv-x="1010" vert-adv-y="2000"  />

      
      <glyph glyph-name="uni03B4" unicode="&#x03B4;" d="M455 119Q518 119 574 145.50Q630 172 672 221.50Q714 271 738 341Q762 411 762 499Q762 566 745 619.50Q728 673 699 716.50Q670 760 632.50 796Q595 832 555 864Q491 840 432.50 802.50Q374 765 329 709.50Q284 654 257.50 579Q231 504 231 404Q231 347 244.50 295.50Q258 244 285.50 204.50Q313 165 355 142Q397 119 455 119M912 1301Q906 1278 895 1270Q884 1262 862 1262Q849 1262 822 1269.50Q795 1277 759 1286Q723 1295 681 1302.50Q639 1310 597 1310Q554 1310 524 1301Q494 1292 474.50 1277Q455 1262 446 1242Q437 1222 437 1200Q437 1167 458.50 1138.50Q480 1110 515 1081Q550 1052 594.50 1021.50Q639 991 685.50 954.50Q732 918 776.50 875Q821 832 856 777.50Q891 723 912.50 656Q934 589 934 505Q934 391 898 296Q862 201 797 132Q732 63 641.50 25Q551-13 442-13Q348-13 275.50 18.50Q203 50 153.50 105.50Q104 161 78.50 235Q53 309 53 395Q53 596 160 727Q267 858 481 919Q440 949 403 978.50Q366 1008 337.50 1041Q309 1074 292 1112Q275 1150 275 1197Q275 1250 297 1295.50Q319 1341 361.50 1374.50Q404 1408 467.50 1427Q531 1446 615 1446Q651 1446 692.50 1442.50Q734 1439 777 1433.50Q820 1428 861.50 1420.50Q903 1413 938 1405L912 1301Z"  horiz-adv-x="1027" vert-adv-y="2000"  />

      
      <glyph glyph-name="uni03B5" unicode="&#x03B5;" d="M736 141Q700 101 656.50 72Q613 43 566.50 24Q520 5 472-4Q424-13 379-13Q308-13 246 6.50Q184 26 138.50 62Q93 98 67 148.50Q41 199 41 261Q41 309 56.50 351.50Q72 394 103 429.50Q134 465 180.50 491.50Q227 518 289 533Q241 548 208.50 571Q176 594 156 622Q136 650 127.50 681Q119 712 119 742Q119 796 144.50 847.50Q170 899 219.50 939Q269 979 341 1003.50Q413 1028 506 1028Q609 1028 685.50 995Q762 962 809 909L763 846Q751 829 741.50 824.50Q732 820 719 820Q707 820 691.50 832Q676 844 652 858.50Q628 873 592 885Q556 897 503 897Q449 897 408.50 883.50Q368 870 340.50 847.50Q313 825 299 794.50Q285 764 285 731Q285 701 298 674.50Q311 648 336 629Q361 610 397.50 599Q434 588 481 588L633 588L619 472L467 472Q404 472 357 458.50Q310 445 279.50 420Q249 395 233.50 360Q218 325 218 282Q218 247 230.50 217Q243 187 267 165Q291 143 326 131Q361 119 406 119Q466 119 507.50 135Q549 151 578 169.50Q607 188 627 204Q647 220 664 220Q685 220 695 204L736 141Z"  horiz-adv-x="844" vert-adv-y="2000"  />

      
      <glyph glyph-name="uni03B6" unicode="&#x03B6;" d="M841 1374Q842 1359 838.50 1345.50Q835 1332 823 1314.50Q811 1297 787.50 1273Q764 1249 726 1214Q674 1167 616.50 1113.50Q559 1060 503.50 1000Q448 940 398 874.50Q348 809 309.50 738Q271 667 248.50 591Q226 515 226 435Q226 381 240.50 341Q255 301 282.50 271.50Q310 242 350 220.50Q390 199 440 182Q512 157 558.50 129.50Q605 102 632 73Q659 44 669.50 13Q680-18 680-50Q680-124 650.50-191.50Q621-259 569-332L442-278Q454-260 467-239Q480-218 490.50-195.50Q501-173 507.50-149Q514-125 514-102Q514-85 507-67Q500-49 481-31Q462-13 427.50 5.50Q393 24 339 42Q271 65 218.50 95Q166 125 129.50 166.50Q93 208 74 262.50Q55 317 55 388Q55 516 101.50 632Q148 748 229.50 860Q311 972 421.50 1083.50Q532 1195 661 1313Q598 1304 523.50 1297Q449 1290 361 1290L283 1290Q245 1290 231 1308.50Q217 1327 219 1347L230 1432L835 1432L841 1374Z"  horiz-adv-x="722" vert-adv-y="2000"  />

      
      <glyph glyph-name="uni03B7" unicode="&#x03B7;" d="M60 960Q63 986 85 1003.50Q107 1021 158 1021Q205 1021 243 1007Q281 993 307 964Q333 935 345 889.50Q357 844 351 780Q430 902 528 965Q626 1028 729 1028Q793 1028 841.50 1002.50Q890 977 920.50 928Q951 879 962 807.50Q973 736 962 645L841-343L669-343L790 645L791 645Q806 765 775.50 822.50Q745 880 664 880Q622 880 577.50 859Q533 838 491 799.50Q449 761 411.50 706Q374 651 344 583L273 0L102 0L192 740Q202 819 177 856Q152 893 92 893L52 893L60 960Z"  horiz-adv-x="1081" vert-adv-y="2000"  />

      
      <glyph glyph-name="uni03B8" unicode="&#x03B8;" d="M279 667Q277 635 276 600.50Q275 566 275 531Q275 332 332.50 227Q390 122 502 122Q576 122 635.50 158.50Q695 195 739.50 265Q784 335 813 436.50Q842 538 856 667L279 667M864 787Q867 842 867 903Q867 1104 811 1208.50Q755 1313 646 1313Q571 1313 511.50 1277.50Q452 1242 407 1174.50Q362 1107 332.50 1009Q303 911 289 787L864 787M656 1448Q743 1448 813 1410Q883 1372 931.50 1299.50Q980 1227 1006 1122.50Q1032 1018 1032 885Q1032 671 993 503.50Q954 336 883 221Q812 106 712 46Q612-14 491-14Q401-14 330.50 24Q260 62 210.50 134Q161 206 135 311Q109 416 109 550Q109 764 148 931Q187 1098 259 1213Q331 1328 432 1388Q533 1448 656 1448Z"  horiz-adv-x="1119" vert-adv-y="2000"  />

      
      <glyph glyph-name="uni03B9" unicode="&#x03B9;" d="M175 1012L347 1012L256 274Q247 197 271.50 157Q296 117 362 117L439 117L433 63Q431 45 417.50 31Q404 17 383.50 7.50Q363-2 336-7Q309-12 280-12Q223-12 182.50 8Q142 28 117.50 64.50Q93 101 84 152Q75 203 83 265L175 1012Z"  horiz-adv-x="494" vert-adv-y="2000"  />

      
      <glyph glyph-name="uni03BB" unicode="&#x03BB;" d="M941 119L932 50Q927 13 904 1.50Q881-10 839-10Q793-10 756.50-1Q720 8 691.50 33.50Q663 59 642 106Q621 153 607 230L520 609Q512 656 509 689.50Q506 723 505 751Q487 695 456 626L171 36Q164 20 149.50 10Q135 0 109 0L-33 0L445 929L387 1209Q381 1238 371.50 1258.50Q362 1279 347 1291.50Q332 1304 309 1310Q286 1316 252 1316L193 1316L201 1381Q202 1394 208.50 1405.50Q215 1417 228 1426Q241 1435 262 1440Q283 1445 315 1445Q354 1445 390 1437Q426 1429 455.50 1410Q485 1391 506.50 1358Q528 1325 539 1276L768 230Q781 171 807.50 145Q834 119 888 119L941 119Z"  horiz-adv-x="1000" vert-adv-y="2000"  />

      
      <glyph glyph-name="uni03BC" unicode="&#x03BC;" d="M1045 124L1037 52Q1034 29 1001 9.50Q968-10 911-10Q872-10 838 2Q804 14 777.50 38.50Q751 63 734.50 101Q718 139 715 190Q650 102 575.50 54Q501 6 413 6Q286 6 226 89Q227 50 224.50 10Q222-30 217-64L183-343L95-343Q57-343 38.50-323Q20-303 25-267L182 1013L361 1013L282 373Q274 270 314 211.50Q354 153 442 153Q524 153 590.50 202Q657 251 708 339L791 1013L969 1013L878 274Q869 196 899.50 160Q930 124 989 124L1045 124Z"  horiz-adv-x="1109" vert-adv-y="2000"  />

      
      <glyph glyph-name="uni03BD" unicode="&#x03BD;" d="M972 1012Q879 725 741.50 470.50Q604 216 433 0L326 0L71 1012L211 1012Q231 1012 243.50 1001.50Q256 991 259 976L406 315Q413 283 417.50 252Q422 221 425 189Q482 269 530.50 359.50Q579 450 621 548Q663 646 699 749.50Q735 853 767 958Q775 988 791.50 1000Q808 1012 826 1012L972 1012Z"  horiz-adv-x="953" vert-adv-y="2000"  />

      
      <glyph glyph-name="uni03BE" unicode="&#x03BE;" d="M806 1360Q802 1328 779 1310.50Q756 1293 730 1293L649 1293Q581 1293 524 1270.50Q467 1248 426.50 1209Q386 1170 363.50 1117.50Q341 1065 341 1006Q341 924 401.50 876Q462 828 578 828L661 828L645 691L521 691Q445 691 389.50 669.50Q334 648 297.50 610.50Q261 573 243.50 521.50Q226 470 226 409Q226 361 242.50 325Q259 289 291.50 260Q324 231 371 207Q418 183 480 158Q529 138 563 116Q597 94 617 69Q637 44 646 16Q655-12 655-43Q655-118 626-187.50Q597-257 543-331L416-278Q428-259 441-238Q454-217 464.50-194Q475-171 482-147Q489-123 489-98Q489-80 483.50-63.50Q478-47 464.50-32Q451-17 428-3.50Q405 10 369 22Q300 45 241.50 77Q183 109 141 152Q99 195 75.50 251.50Q52 308 52 380Q52 437 68 495.50Q84 554 118.50 606.50Q153 659 208.50 701.50Q264 744 344 768Q258 798 219 855Q180 912 180 987Q180 1045 201.50 1094Q223 1143 259 1182.50Q295 1222 342.50 1252Q390 1282 443 1302Q424 1300 404.50 1300Q385 1300 363 1300L242 1300Q204 1300 190 1318Q176 1336 180 1367L188 1432L815 1432L806 1360Z"  horiz-adv-x="729" vert-adv-y="2000"  />

      
      <glyph glyph-name="uni03C0" unicode="&#x03C0;" d="M1123 919Q1120 895 1103.50 878.50Q1087 862 1059 862L925 862Q914 801 904.50 751Q895 701 887 645Q879 589 874.50 518.50Q870 448 870 348Q870 277 876 233.50Q882 190 894 166Q906 142 923.50 134Q941 126 964 126L1001 126L992 54Q989 25 954 9.50Q919-6 869-6Q775-6 729 55.50Q683 117 683 245Q683 306 692.50 368Q702 430 716.50 503Q731 576 749 663.50Q767 751 784 862L455 862Q431 690 404.50 558Q378 426 349 329.50Q320 233 288 168Q256 103 222.50 64Q189 25 153 8.50Q117-8 79-8Q67-8 54.50-6Q42-4 31.50 0.50Q21 5 15 12Q9 19 10 28L24 149L43 149Q71 149 104 187.50Q137 226 171 310.50Q205 395 238.50 531Q272 667 301 862L101 862L110 937Q111 948 117.50 959.50Q124 971 133.50 981Q143 991 156.50 997Q170 1003 187 1003L1133 1003L1123 919Z"  horiz-adv-x="1145" vert-adv-y="2000"  />

      
      <glyph glyph-name="uni03C1" unicode="&#x03C1;" d="M248 261Q288 187 346.50 153Q405 119 463 119Q533 119 592 153Q651 187 693.50 250Q736 313 759.50 402Q783 491 783 602Q783 676 767.50 730.50Q752 785 724.50 820.50Q697 856 657.50 873.50Q618 891 570 891Q519 891 472 870.50Q425 850 387 808Q349 766 321.50 701.50Q294 637 284 549L248 261M111 542Q126 662 165.50 753Q205 844 266 905.50Q327 967 408 998Q489 1029 587 1029Q668 1029 736.50 999.50Q805 970 854.50 914.50Q904 859 932 778Q960 697 960 595Q960 469 924.50 358.50Q889 248 825.50 165Q762 82 674.50 34Q587-14 483-14Q408-14 342.50 21Q277 56 231 116L174-343L2-343L111 542Z"  horiz-adv-x="1046" vert-adv-y="2000"  />

      
      <glyph glyph-name="uni03C3" unicode="&#x03C3;" d="M626 874Q524 874 450.50 842Q377 810 329.50 750Q282 690 259.50 604Q237 518 237 411Q237 271 295.50 195.50Q354 120 468 120Q548 120 608.50 153.50Q669 187 710 250Q751 313 771.50 403Q792 493 792 606Q792 653 784.50 696.50Q777 740 761 775.50Q745 811 721.50 836.50Q698 862 666 874L626 874M1152 1008L1142 933Q1139 908 1121.50 891Q1104 874 1067 874L831 874Q893 824 929 747Q965 670 965 571Q965 445 928 338Q891 231 823.50 153Q756 75 661.50 30.50Q567-14 453-14Q363-14 290 16Q217 46 166 101.50Q115 157 87.50 236.50Q60 316 60 415Q60 547 101 656Q142 765 218.50 843.50Q295 922 403.50 965Q512 1008 647 1008L1152 1008Z"  horiz-adv-x="1114" vert-adv-y="2000"  />

      
      <glyph glyph-name="uni03C2" unicode="&#x03C2;" d="M813 835Q804 825 795.50 819Q787 813 773 813Q759 813 744 825.50Q729 838 706 853.50Q683 869 650 881.50Q617 894 567 894Q493 894 433.50 862.50Q374 831 332 776Q290 721 267.50 645.50Q245 570 245 483Q245 407 265.50 357Q286 307 323.50 272Q361 237 413.50 212.50Q466 188 529 164Q584 143 620.50 120.50Q657 98 678.50 73Q700 48 709 19.50Q718-9 718-43Q718-119 689-188Q660-257 607-332L479-278Q491-260 504-238.50Q517-217 527.50-194Q538-171 544.50-146Q551-121 551-95Q551-77 546-61.50Q541-46 527-31.50Q513-17 488.50-3Q464 11 424 25Q351 51 286 84Q221 117 172 167Q123 217 94.50 289Q66 361 66 466Q66 585 100.50 687.50Q135 790 200 866Q265 942 358.50 985Q452 1028 570 1028Q670 1028 742 994Q814 960 866 898L813 835Z"  horiz-adv-x="864" vert-adv-y="2000"  />

      
      <glyph glyph-name="uni03C4" unicode="&#x03C4;" d="M871 933Q867 904 849.50 887.50Q832 871 803 871L513 871L440 279Q431 201 455.50 161.50Q480 122 546 122L623 122L617 68Q615 50 601.50 36Q588 22 567 12.50Q546 3 519.50-2Q493-7 464-7Q407-7 366.50 13Q326 33 301.50 69.50Q277 106 268 156.50Q259 207 267 269L341 871L54 871L64 946Q67 969 83.50 985.50Q100 1002 129 1002L879 1002L871 933Z"  horiz-adv-x="864" vert-adv-y="2000"  />

      
      <glyph glyph-name="uni03C5" unicode="&#x03C5;" d="M923 1012Q924 983 925.50 949Q927 915 928 881Q929 847 929.50 815.50Q930 784 930 762Q930 546 885.50 397Q841 248 769 156.50Q697 65 606 24.50Q515-16 421-16Q332-16 266 10.50Q200 37 158 86.50Q116 136 99 207Q82 278 93 367L172 1012L345 1012L266 367Q258 309 268 263Q278 217 302 185.50Q326 154 363.50 137.50Q401 121 449 121Q501 121 556 148Q611 175 655.50 239.50Q700 304 728.50 411Q757 518 757 679Q757 707 756 741.50Q755 776 754 812.50Q753 849 751.50 885Q750 921 750 953Q750 969 755.50 980.50Q761 992 769 999Q777 1006 786 1009Q795 1012 804 1012L923 1012Z"  horiz-adv-x="1026" vert-adv-y="2000"  />

      
      <glyph glyph-name="uni03C6" unicode="&#x03C6;" d="M704 116Q804 117 882 156Q960 195 1012.50 261.50Q1065 328 1092.50 416.50Q1120 505 1120 607Q1120 671 1107.50 724.50Q1095 778 1071.50 816.50Q1048 855 1013.50 876.50Q979 898 935 898Q872 898 830.50 853Q789 808 777 711L704 116M615 711Q635 873 720 950.50Q805 1028 945 1028Q1026 1028 1090.50 995.50Q1155 963 1200 907Q1245 851 1269 774.50Q1293 698 1293 610Q1293 473 1249 359Q1205 245 1125 162.50Q1045 80 933.50 33.50Q822-13 688-14L648-343L486-343L526-14Q416-13 329.50 22.50Q243 58 183.50 119Q124 180 92.50 262.50Q61 345 61 442Q61 545 89.50 635Q118 725 170 799Q222 873 294.50 929.50Q367 986 454 1022L493 952Q503 932 493 910.50Q483 889 466 879Q410 849 367 805Q324 761 294.50 705.50Q265 650 249.50 585Q234 520 234 449Q234 379 253.50 319Q273 259 311.50 214.50Q350 170 407.50 143.50Q465 117 542 116L615 711Z"  horiz-adv-x="1376" vert-adv-y="2000"  />

      
      <glyph glyph-name="uni03C7" unicode="&#x03C7;" d="M647-117Q662-175 687.50-201.50Q713-228 766-228L799-228L790-297Q788-315 783.50-327Q779-339 770.50-345.50Q762-352 748-354.50Q734-357 713-357Q674-357 640-349.50Q606-342 577.50-321.50Q549-301 526.50-264.50Q504-228 488-169L376 231Q368 203 358.50 177Q349 151 339 131L94-305Q88-319 74.50-330Q61-341 38-341L-84-341L319 371L203 787Q194 816 183.50 836.50Q173 857 157.50 869.50Q142 882 120 888Q98 894 66 894L33 894L42 958Q43 971 45 983Q47 995 54.50 1003.50Q62 1012 77 1017Q92 1022 121 1022Q216 1022 272.50 983.50Q329 945 356 853L463 469Q471 497 480.50 523Q490 549 500 570L725 976Q732 990 745.50 1001.50Q759 1013 781 1013L904 1013L520 332L647-117Z"  horiz-adv-x="885" vert-adv-y="2000"  />

      
      <glyph glyph-name="uni03C8" unicode="&#x03C8;" d="M1316 1013Q1317 984 1318.50 949.50Q1320 915 1321.50 881Q1323 847 1323.50 815.50Q1324 784 1324 762Q1324 617 1301 504.50Q1278 392 1237.50 308.50Q1197 225 1140.50 167Q1084 109 1017 72Q950 35 875 15.50Q800-4 722-10L681-343L509-343L550-12Q299 5 187.50 131Q76 257 102 475L168 1013L287 1013Q309 1013 322 991.50Q335 970 332 945L274 475Q265 399 280.50 338.50Q296 278 334 234.50Q372 191 431 164Q490 137 567 128L727 1432L899 1432L739 127Q826 135 900.50 165Q975 195 1029.50 259Q1084 323 1115.50 426.50Q1147 530 1147 685Q1147 759 1141 826Q1135 893 1137 953Q1140 985 1157 999Q1174 1013 1192 1013L1316 1013Z"  horiz-adv-x="1418" vert-adv-y="2000"  />

      
      <glyph glyph-name="uni03C9" unicode="&#x03C9;" d="M1263 1013Q1278 968 1291 916.50Q1304 865 1313.50 811.50Q1323 758 1328 704Q1333 650 1333 600Q1333 456 1299.50 341.50Q1266 227 1208 147.50Q1150 68 1072 26Q994-16 906-16Q852-16 810.50-1.50Q769 13 739 39.50Q709 66 689 102Q669 138 659 181Q638 138 609 102Q580 66 544 39.50Q508 13 463.50-1.50Q419-16 366-16Q298-16 242.50 13.50Q187 43 147.50 98Q108 153 86.50 231Q65 309 65 405Q65 492 80 571.50Q95 651 121.50 725.50Q148 800 183.50 871.50Q219 943 261 1013L372 1013Q384 1013 396 1008.50Q408 1004 414.50 994Q421 984 419.50 968Q418 952 403 930Q370 879 340 823.50Q310 768 287.50 706Q265 644 252 572.50Q239 501 239 418Q239 333 254 276Q269 219 292 184.50Q315 150 344 135.50Q373 121 401 121Q442 121 475.50 141.50Q509 162 534.50 199Q560 236 576.50 288.50Q593 341 601 404L634 677L806 677L771 387Q765 327 770 278Q775 229 790.50 194Q806 159 833.50 140Q861 121 901 121Q940 121 985.50 142Q1031 163 1069.50 214Q1108 265 1133.50 351Q1159 437 1159 567Q1159 616 1152.50 669Q1146 722 1136 771Q1126 820 1114 862.50Q1102 905 1090 935Q1084 956 1087.50 971Q1091 986 1099.50 995Q1108 1004 1119.50 1008.50Q1131 1013 1141 1013L1263 1013Z"  horiz-adv-x="1426" vert-adv-y="2000"  />

      
      <glyph glyph-name="uni0384" unicode="&#x0384;" d="M447 1148L548 1493L650 1493Q675 1493 682 1475.50Q689 1458 677 1429L545 1148L447 1148Z"  horiz-adv-x="736" vert-adv-y="2000"  />

      
      <glyph glyph-name="uni0385" unicode="&#x0385;" d="M446 1154L547 1499L649 1499Q674 1499 680.50 1481.50Q687 1464 675 1435L543 1154L446 1154M870 1282Q868 1263 858.50 1246Q849 1229 835.50 1216.50Q822 1204 805.50 1196.50Q789 1189 772 1189Q754 1189 739 1196.50Q724 1204 713.50 1216.50Q703 1229 697.50 1246Q692 1263 694 1282Q696 1302 705 1319.50Q714 1337 727.50 1350.50Q741 1364 757.50 1371.50Q774 1379 792 1379Q810 1379 825.50 1371.50Q841 1364 851.50 1350.50Q862 1337 867 1319.50Q872 1302 870 1282M407 1282Q405 1263 396 1246Q387 1229 373.50 1216.50Q360 1204 343 1196.50Q326 1189 308 1189Q291 1189 276 1196.50Q261 1204 250.50 1216.50Q240 1229 235 1246Q230 1263 232 1282Q234 1302 243 1319.50Q252 1337 265.50 1350.50Q279 1364 295.50 1371.50Q312 1379 329 1379Q347 1379 362.50 1371.50Q378 1364 388.50 1350.50Q399 1337 404 1319.50Q409 1302 407 1282Z"  horiz-adv-x="736" vert-adv-y="2000"  />

      
      <glyph glyph-name="uni0374" unicode="&#x0374;" d="M432 1508Q441 1365 391 1229Q341 1093 226 978L177 1012Q163 1023 163.50 1036.50Q164 1050 172 1061Q200 1097 223.50 1132Q247 1167 260 1203Q273 1239 274 1277.50Q275 1316 259 1358L271 1460Q274 1480 286.50 1494Q299 1508 324 1508L432 1508Z"  horiz-adv-x="394" vert-adv-y="2000"  />

      
      <glyph glyph-name="uni0375" unicode="&#x0375;" d="M299 325Q308 182 258 46Q208-90 93-205L44-171Q30-160 30.50-146.50Q31-133 39-122Q67-86 90.50-51Q114-16 127 20Q140 56 141 94.50Q142 133 126 175L138 277Q141 297 153.50 311Q166 325 191 325L299 325Z"  horiz-adv-x="397" vert-adv-y="2000"  />

      
      <glyph glyph-name="uni0411" unicode="&#x0411;" d="M366 665L302 148L553 148Q633 148 692.50 169Q752 190 791.50 230Q831 270 850.50 326.50Q870 383 870 455Q870 555 810 610Q750 665 617 665L366 665M442 1284L384 813L636 813Q746 813 825.50 788Q905 763 956.50 718.50Q1008 674 1032.50 613Q1057 552 1057 479Q1057 371 1021.50 282.50Q986 194 918.50 131Q851 68 754 34Q657 0 535 0L97 0L273 1432L1132 1432L1114 1284L442 1284Z"  horiz-adv-x="1161" vert-adv-y="2000"  />

      
      <glyph glyph-name="uni0413" unicode="&#x0413;" d="M1052 1285L443 1285L285 0L97 0L273 1432L1070 1432L1052 1285Z"  horiz-adv-x="1007" vert-adv-y="2000"  />

      
      <glyph glyph-name="uni0490" unicode="&#x0490;" d="M1052 1285L443 1285L285 0L97 0L273 1432L925 1432L965 1756L1110 1756L1052 1285Z"  horiz-adv-x="1007" vert-adv-y="2000"  />

      
      <glyph glyph-name="uni0414" unicode="&#x0414;" d="M955 147L1095 1285L669 1285Q627 1036 583 849Q539 662 494 525Q449 388 402.50 296.50Q356 205 309 147L955 147M1358 147L1304-294Q1300-319 1281.50-334Q1263-349 1237-349L1125-349L1168 0L117 0L80-294Q78-319 59-334Q40-349 14-349L-98-349L-37 147L97 147Q127 162 159.50 196Q192 230 225.50 292.50Q259 355 294 450.50Q329 546 364.50 683.50Q400 821 436.50 1006Q473 1191 510 1432L1301 1432L1143 147L1358 147Z"  horiz-adv-x="1456" vert-adv-y="2000"  />

      
      <glyph glyph-name="uni0416" unicode="&#x0416;" d="M1529 858Q1498 816 1466.50 789.50Q1435 763 1393 749Q1438 734 1469.50 703.50Q1501 673 1525 622L1834 0L1710 0Q1668 0 1641 18Q1614 36 1600 67L1336 580Q1316 621 1287 640Q1258 659 1209 659L1058 659L977 0L800 0L881 659L731 659Q682 659 648.50 640Q615 621 585 580L196 67Q174 36 142.50 18Q111 0 70 0L-55 0L406 622Q442 673 481.50 703.50Q521 734 569 749Q531 763 505.50 789.50Q480 816 459 858L151 1433L298 1433Q327 1433 350.50 1418Q374 1403 385 1377L647 876Q670 831 699 817Q728 803 770 803L899 803L976 1433L1153 1433L1076 803L1206 803Q1247 803 1279.50 817Q1312 831 1346 876L1731 1377Q1749 1403 1775.50 1418Q1802 1433 1831 1433L1978 1433L1529 858Z"  horiz-adv-x="1926" vert-adv-y="2000"  />

      
      <glyph glyph-name="uni0417" unicode="&#x0417;" d="M179 1299Q267 1369 374.50 1407.50Q482 1446 607 1446Q701 1446 774 1421.50Q847 1397 897 1353.50Q947 1310 973 1250.50Q999 1191 999 1120Q999 992 930.50 899.50Q862 807 743 763Q846 722 901.50 642.50Q957 563 957 459Q957 361 921 275Q885 189 817.50 124.50Q750 60 653.50 23Q557-14 436-14Q288-14 174.50 37.50Q61 89-11 175L53 262Q62 273 74 280Q86 287 100 287Q120 287 144.50 264.50Q169 242 207.50 214.50Q246 187 303 164.50Q360 142 444 142Q523 142 585.50 164.50Q648 187 691 228Q734 269 757 326.50Q780 384 780 455Q780 505 763 547Q746 589 713 619Q680 649 631 666Q582 683 518 683L340 683L359 837L531 837Q593 837 646 854Q699 871 738 904Q777 937 799 984.50Q821 1032 821 1093Q821 1137 806 1173.50Q791 1210 761.50 1236.50Q732 1263 687.50 1277.50Q643 1292 585 1292Q511 1292 456.50 1275Q402 1258 362 1237Q322 1216 296 1199Q270 1182 253 1182Q227 1182 214 1211L179 1299Z"  horiz-adv-x="1073" vert-adv-y="2000"  />

      
      <glyph glyph-name="uni0418" unicode="&#x0418;" d="M1348 1433L1173 0L985 0L1109 1010Q1114 1052 1122 1098Q1130 1144 1143 1196Q1122 1151 1099 1112.50Q1076 1074 1054 1044L328 59Q312 37 288 18.50Q264 0 235 0L97 0L273 1433L461 1433L337 423Q332 381 324 335.50Q316 290 303 239Q348 328 392 388L1118 1374Q1135 1396 1158.50 1414.50Q1182 1433 1209 1433L1348 1433Z"  horiz-adv-x="1419" vert-adv-y="2000"  />

      
      <glyph glyph-name="uni041A" unicode="&#x041A;" d="M834 842Q782 773 705 749Q753 735 783.50 705.50Q814 676 840 622L1160 0L991 0Q963 0 946 15Q929 30 915 59L640 588Q630 607 619.50 621Q609 635 595 643Q581 651 563 655Q545 659 521 659L365 659L284 0L97 0L273 1433L460 1433L383 803L518 803Q559 803 589.50 816.50Q620 830 653 871L1053 1379Q1070 1402 1092.50 1417.50Q1115 1433 1143 1433L1301 1433L834 842Z"  horiz-adv-x="1250" vert-adv-y="2000"  />

      
      <glyph glyph-name="uni041B" unicode="&#x041B;" d="M1107 0L919 0L1077 1285L651 1285Q605 1008 558 804Q511 600 462 456Q413 312 362.50 220.50Q312 129 259 77Q206 25 149 6Q92-13 32-13Q-19-13-45.50-3.50Q-72 6-69 24L-55 142L10 142Q46 142 83.50 158Q121 174 160 221.50Q199 269 239 356.50Q279 444 320.50 587.50Q362 731 405 938Q448 1145 492 1432L1283 1432L1107 0Z"  horiz-adv-x="1353" vert-adv-y="2000"  />

      
      <glyph glyph-name="uni0409" unicode="&#x0409;" d="M1376 148Q1456 148 1515.50 169Q1575 190 1614.50 230Q1654 270 1673.50 326.50Q1693 383 1693 455Q1693 555 1633 610Q1573 665 1440 665L1189 665L1125 148L1376 148M1458 813Q1568 813 1648 788Q1728 763 1779.50 718.50Q1831 674 1855.50 613Q1880 552 1880 479Q1880 371 1844.50 282.50Q1809 194 1741.50 131Q1674 68 1577 34Q1480 0 1357 0L919 0L1077 1285L651 1285Q605 1008 558 804Q511 600 462 456Q413 312 362.50 220.50Q312 129 259 77Q206 25 149 6Q92-13 32-13Q-19-13-45.50-3.50Q-72 6-69 24L-55 142L10 142Q46 142 83.50 158Q121 174 160 221.50Q199 269 239 356.50Q279 444 320.50 587.50Q362 731 405 938Q448 1145 492 1432L1283 1432L1207 813L1458 813Z"  horiz-adv-x="1957" vert-adv-y="2000"  />

      
      <glyph glyph-name="uni040A" unicode="&#x040A;" d="M1437 148Q1517 148 1576.50 169Q1636 190 1675.50 230Q1715 270 1734.50 326.50Q1754 383 1754 455Q1754 555 1694 610Q1634 665 1501 665L1255 665L1191 148L1437 148M1520 813Q1630 813 1709.50 788Q1789 763 1840.50 718.50Q1892 674 1916.50 613Q1941 552 1941 479Q1941 371 1905.50 282.50Q1870 194 1802.50 131Q1735 68 1638 34Q1541 0 1418 0L985 0L1065 654L366 654L286 0L98 0L274 1433L462 1433L383 790L1082 790L1161 1433L1350 1433L1273 813L1520 813Z"  horiz-adv-x="2018" vert-adv-y="2000"  />

      
      <glyph glyph-name="uni0472" unicode="&#x0472;" d="M291 659Q290 649 290 639Q290 629 290 618Q290 509 317.50 421Q345 333 397 271Q449 209 523 175.50Q597 142 690 142Q793 142 881.50 178Q970 214 1038.50 280.50Q1107 347 1153 443Q1199 539 1217 659L291 659M1228 814Q1228 923 1200 1011.50Q1172 1100 1120.50 1162Q1069 1224 994.50 1258Q920 1292 827 1292Q728 1292 642 1258Q556 1224 488.50 1160.50Q421 1097 374 1006Q327 915 306 801L1228 801L1228 814M850 1449Q982 1449 1087.50 1401.50Q1193 1354 1267 1270Q1341 1186 1380.50 1070.50Q1420 955 1420 818Q1420 635 1363.50 482Q1307 329 1206.50 218.50Q1106 108 968.50 46.50Q831-15 669-15Q537-15 431.50 32Q326 79 251.50 162.50Q177 246 137.50 361Q98 476 98 613Q98 796 155 949.50Q212 1103 313 1214Q414 1325 551.50 1387Q689 1449 850 1449Z"  horiz-adv-x="1491" vert-adv-y="2000"  />

      
      <glyph glyph-name="uni041F" unicode="&#x041F;" d="M1122 0L933 0L1091 1285L443 1285L285 0L97 0L273 1432L1297 1432L1122 0Z"  horiz-adv-x="1368" vert-adv-y="2000"  />

      
      <glyph glyph-name="uni0423" unicode="&#x0423;" d="M1260 1432L571 186Q539 128 505.50 89.50Q472 51 436.50 28.50Q401 6 364-3.50Q327-13 287-13Q227-13 198.50-1Q170 11 173 39L186 142L251 142Q306 142 348 168Q390 194 431 265L514 415L107 1432L277 1432Q302 1432 315 1420Q328 1408 336 1388L572 727Q598 648 610 572Q624 611 642.50 649.50Q661 688 681 727L1032 1388Q1043 1405 1060.50 1418.50Q1078 1432 1101 1432L1260 1432Z"  horiz-adv-x="1172" vert-adv-y="2000"  />

      
      <glyph glyph-name="uni0474" unicode="&#x0474;" d="M1014 1248Q1056 1345 1122 1391.50Q1188 1438 1285 1438Q1314 1438 1332 1436Q1350 1434 1359 1428.50Q1368 1423 1370 1413.50Q1372 1404 1370 1389L1358 1284L1307 1284Q1267 1284 1233 1257.50Q1199 1231 1175 1178L638 0L469 0L108 1432L253 1432Q278 1432 292.50 1419.50Q307 1407 312 1387L551 365Q559 332 566 294Q573 256 578 214Q605 298 639 365L1014 1248Z"  horiz-adv-x="1300" vert-adv-y="2000"  />

      
      <glyph glyph-name="uni0424" unicode="&#x0424;" d="M782 320Q876 321 955.50 360.50Q1035 400 1093 466.50Q1151 533 1184 621Q1217 709 1217 807Q1217 883 1194.50 951Q1172 1019 1129.50 1070.50Q1087 1122 1026 1152Q965 1182 888 1184L782 320M711 1184Q617 1182 537.50 1143Q458 1104 400 1038Q342 972 309 884.50Q276 797 276 698Q276 621 298.50 553Q321 485 363 434Q405 383 466 352Q527 321 605 320L711 1184M906 1330Q1021 1327 1113.50 1284.50Q1206 1242 1270.50 1172Q1335 1102 1369.50 1009.50Q1404 917 1404 814Q1404 727 1382 647Q1360 567 1319.50 496.50Q1279 426 1221.50 367.50Q1164 309 1092.50 266.50Q1021 224 938 199.50Q855 175 764 173L743 0L566 0L587 173Q472 176 379.50 218.50Q287 261 222.50 331Q158 401 123 493.50Q88 586 88 690Q88 777 110.50 857.50Q133 938 173.50 1008.50Q214 1079 272 1137Q330 1195 401 1237Q472 1279 554.50 1303.50Q637 1328 728 1330L749 1498L927 1498L906 1330Z"  horiz-adv-x="1457" vert-adv-y="2000"  />

      
      </font>
</defs>
</svg>
