<?xml version="1.0" standalone="no"?>
  <!DOCTYPE svg PUBLIC "-//W3C//DTD SVG 1.1//EN" "http://www.w3.org/Graphics/SVG/1.1/DTD/svg11.dtd" >
  <svg>
  <metadata>
  Created by font-carrier
  </metadata>
  <defs>
  <font id=".HelveticaNeueDeskInterface-Bold" horiz-adv-x="2730" vert-adv-y="2730" >
    <font-face
      
      font-family="SFNS Display"
      
      font-weight="400"
      
      font-stretch="normal"
      
      units-per-em="2048"
      
      ascent="1980"
      
      descent="-432"
      
    />
      <missing-glyph />

      

      
      <glyph glyph-name="uni41" unicode="&#x41;" d="M955 350L448 350L338 0L28 0L529 1443L884 1443L1386 0L1065 0L955 350M513 576L890 576L705 1167L698 1167L513 576Z"  horiz-adv-x="1413" vert-adv-y="2048"  />

      
      <glyph glyph-name="unic0" unicode="&#xc0;" d="M955 350L448 350L338 0L28 0L529 1443L884 1443L1386 0L1065 0L955 350M513 576L890 576L705 1167L698 1167L513 576M319 1868L592 1868L824 1558L597 1558L319 1868Z"  horiz-adv-x="1413" vert-adv-y="2048"  />

      
      <glyph glyph-name="unic1" unicode="&#xc1;" d="M955 350L448 350L338 0L28 0L529 1443L884 1443L1386 0L1065 0L955 350M513 576L890 576L705 1167L698 1167L513 576M588 1553L820 1863L1093 1863L816 1553L588 1553Z"  horiz-adv-x="1413" vert-adv-y="2048"  />

      
      <glyph glyph-name="unic4" unicode="&#xc4;" d="M955 350L448 350L338 0L28 0L529 1443L884 1443L1386 0L1065 0L955 350M513 576L890 576L705 1167L698 1167L513 576M498 1561Q469 1561 444.50 1571.50Q420 1582 402 1599.50Q384 1617 373.50 1641Q363 1665 363 1692Q363 1719 373.50 1743Q384 1767 402 1784.50Q420 1802 444.50 1812.50Q469 1823 498 1823Q527 1823 551.50 1812.50Q576 1802 594 1784.50Q612 1767 622.50 1743Q633 1719 633 1692Q633 1665 622.50 1641Q612 1617 594 1599.50Q576 1582 551.50 1571.50Q527 1561 498 1561M917 1561Q888 1561 863.50 1571.50Q839 1582 821 1599.50Q803 1617 792.50 1641Q782 1665 782 1692Q782 1719 792.50 1743Q803 1767 821 1784.50Q839 1802 863.50 1812.50Q888 1823 917 1823Q946 1823 970.50 1812.50Q995 1802 1013 1784.50Q1031 1767 1041.50 1743Q1052 1719 1052 1692Q1052 1665 1041.50 1641Q1031 1617 1013 1599.50Q995 1582 970.50 1571.50Q946 1561 917 1561Z"  horiz-adv-x="1413" vert-adv-y="2048"  />

      
      <glyph glyph-name="uni01DE" unicode="&#x01DE;" d="M955 350L448 350L338 0L28 0L529 1443L884 1443L1386 0L1065 0L955 350M513 576L890 576L705 1167L698 1167L513 576M503 1813Q530 1813 553.50 1803Q577 1793 594 1776.50Q611 1760 621 1737Q631 1714 631 1689Q631 1663 621 1640.50Q611 1618 594 1601Q577 1584 553.50 1574Q530 1564 503 1564Q475 1564 451.50 1574Q428 1584 410.50 1601Q393 1618 383.50 1640.50Q374 1663 374 1689Q374 1714 383.50 1737Q393 1760 410.50 1776.50Q428 1793 451.50 1803Q475 1813 503 1813M1053 2073L1053 1930L361 1930L361 2073L1053 2073M911 1813Q939 1813 962.50 1803Q986 1793 1003 1776.50Q1020 1760 1030 1737Q1040 1714 1040 1689Q1040 1663 1030 1640.50Q1020 1618 1003 1601Q986 1584 962.50 1574Q939 1564 911 1564Q884 1564 860.50 1574Q837 1584 820 1601Q803 1618 793 1640.50Q783 1663 783 1689Q783 1714 793 1737Q803 1760 820 1776.50Q837 1793 860.50 1803Q884 1813 911 1813Z"  horiz-adv-x="1413" vert-adv-y="2048"  />

      
      <glyph glyph-name="unic5" unicode="&#xc5;" d="M955 350L448 350L338 0L28 0L529 1443L884 1443L1386 0L1065 0L955 350M513 576L890 576L705 1167L698 1167L513 576M707 1513Q662 1513 622 1530Q582 1547 551.50 1576.50Q521 1606 503.50 1645.50Q486 1685 486 1730Q486 1775 503.50 1814.50Q521 1854 551.50 1883.50Q582 1913 622 1930Q662 1947 707 1947Q752 1947 792.50 1930Q833 1913 863 1883.50Q893 1854 910.50 1814.50Q928 1775 928 1730Q928 1685 910.50 1645.50Q893 1606 863 1576.50Q833 1547 792.50 1530Q752 1513 707 1513M707 1630Q728 1630 746.50 1638Q765 1646 779 1659.50Q793 1673 801 1691Q809 1709 809 1730Q809 1751 801 1769Q793 1787 779 1801Q765 1815 746.50 1823Q728 1831 707 1831Q686 1831 667.50 1823Q649 1815 635 1801Q621 1787 613 1769Q605 1751 605 1730Q605 1709 613 1691Q621 1673 635 1659.50Q649 1646 667.50 1638Q686 1630 707 1630Z"  horiz-adv-x="1413" vert-adv-y="2048"  />

      
      <glyph glyph-name="uni01FA" unicode="&#x01FA;" d="M955 350L448 350L338 0L28 0L529 1443L884 1443L1386 0L1065 0L955 350M513 576L890 576L705 1167L698 1167L513 576M707 1497Q663 1497 625 1512.50Q587 1528 559.50 1555Q532 1582 516 1619Q500 1656 500 1699Q500 1742 516 1779Q532 1816 559.50 1843Q587 1870 625 1885.50Q663 1901 707 1901Q751 1901 788.50 1885.50Q826 1870 854 1843Q882 1816 897.50 1779Q913 1742 913 1699Q913 1656 897.50 1619Q882 1582 854 1555Q826 1528 788.50 1512.50Q751 1497 707 1497M707 1606Q747 1606 774 1633Q801 1660 801 1699Q801 1739 774 1765.50Q747 1792 707 1792Q667 1792 640 1765.50Q613 1739 613 1699Q613 1660 640 1633Q667 1606 707 1606M978 2148L808 1955L611 1955L729 2148L978 2148Z"  horiz-adv-x="1413" vert-adv-y="2048"  />

      
      <glyph glyph-name="unic3" unicode="&#xc3;" d="M955 350L448 350L338 0L28 0L529 1443L884 1443L1386 0L1065 0L955 350M513 576L890 576L705 1167L698 1167L513 576M847 1541Q813 1541 785.50 1551Q758 1561 735.50 1576Q713 1591 694.50 1609Q676 1627 658.50 1642Q641 1657 624 1667Q607 1677 589 1677Q555 1677 538 1644Q521 1611 520 1558L362 1558Q362 1622 378.50 1672.50Q395 1723 423.50 1758Q452 1793 491.50 1811Q531 1829 577 1829Q630 1829 667.50 1808Q705 1787 734 1761.50Q763 1736 787 1715Q811 1694 838 1694Q870 1694 886 1726Q902 1758 903 1816L1061 1816Q1061 1752 1044.50 1701Q1028 1650 999.50 1614.50Q971 1579 931.50 1560Q892 1541 847 1541Z"  horiz-adv-x="1413" vert-adv-y="2048"  />

      
      <glyph glyph-name="uni1EB0" unicode="&#x1EB0;" d="M955 350L448 350L338 0L28 0L529 1443L884 1443L1386 0L1065 0L955 350M513 576L890 576L705 1167L698 1167L513 576M1063 1850Q1063 1789 1038 1735.50Q1013 1682 967.50 1642Q922 1602 856 1579Q790 1556 707 1556Q624 1556 558 1579Q492 1602 446.50 1642Q401 1682 376 1735.50Q351 1789 351 1850L534 1850Q535 1820 547.50 1793Q560 1766 583 1746Q606 1726 637.50 1714.50Q669 1703 707 1703Q745 1703 776.50 1714.50Q808 1726 831 1746Q854 1766 866.50 1793Q879 1820 880 1850L1063 1850M633 1887L396 2130L650 2130L844 1887L633 1887Z"  horiz-adv-x="1413" vert-adv-y="2048"  />

      
      <glyph glyph-name="uni01E0" unicode="&#x01E0;" d="M955 350L448 350L338 0L28 0L529 1443L884 1443L1386 0L1065 0L955 350M513 576L890 576L705 1167L698 1167L513 576M707 1555Q677 1555 652 1565.50Q627 1576 608.50 1594Q590 1612 579.50 1636.50Q569 1661 569 1689Q569 1716 579.50 1740Q590 1764 608.50 1782Q627 1800 652 1810.50Q677 1821 707 1821Q737 1821 762 1810.50Q787 1800 805.50 1782Q824 1764 834.50 1740Q845 1716 845 1689Q845 1661 834.50 1636.50Q824 1612 805.50 1594Q787 1576 762 1565.50Q737 1555 707 1555M1053 1930L361 1930L361 2073L1053 2073L1053 1930Z"  horiz-adv-x="1413" vert-adv-y="2048"  />

      
      <glyph glyph-name="uni1E00" unicode="&#x1E00;" d="M955 350L448 350L338 0L28 0L529 1443L884 1443L1386 0L1065 0L955 350M513 576L890 576L705 1167L698 1167L513 576M707-580Q662-580 622-563Q582-546 551.50-516.50Q521-487 503.50-447.50Q486-408 486-363Q486-318 503.50-278.50Q521-239 551.50-209.50Q582-180 622-163Q662-146 707-146Q752-146 792.50-163Q833-180 863-209.50Q893-239 910.50-278.50Q928-318 928-363Q928-408 910.50-447.50Q893-487 863-516.50Q833-546 792.50-563Q752-580 707-580M707-463Q728-463 746.50-455Q765-447 779-433.50Q793-420 801-402Q809-384 809-363Q809-342 801-324Q793-306 779-292Q765-278 746.50-270Q728-262 707-262Q686-262 667.50-270Q649-278 635-292Q621-306 613-324Q605-342 605-363Q605-384 613-402Q621-420 635-433.50Q649-447 667.50-455Q686-463 707-463Z"  horiz-adv-x="1413" vert-adv-y="2048"  />

      
      <glyph glyph-name="unic2" unicode="&#xc2;" d="M955 350L448 350L338 0L28 0L529 1443L884 1443L1386 0L1065 0L955 350M513 576L890 576L705 1167L698 1167L513 576M821 1861L1095 1543L873 1543L710 1740L704 1740L541 1543L319 1543L593 1861L821 1861Z"  horiz-adv-x="1413" vert-adv-y="2048"  />

      
      <glyph glyph-name="uni1EAC" unicode="&#x1EAC;" d="M955 350L448 350L338 0L28 0L529 1443L884 1443L1386 0L1065 0L955 350M513 576L890 576L705 1167L698 1167L513 576M707-458Q675-458 648-446.50Q621-435 601-414.50Q581-394 569.50-367Q558-340 558-309Q558-278 569.50-251Q581-224 601-204Q621-184 648-172.50Q675-161 707-161Q738-161 765.50-172.50Q793-184 813-204Q833-224 844.50-251Q856-278 856-309Q856-340 844.50-367Q833-394 813-414.50Q793-435 765.50-446.50Q738-458 707-458M821 1861L1095 1543L873 1543L710 1740L704 1740L541 1543L319 1543L593 1861L821 1861Z"  horiz-adv-x="1413" vert-adv-y="2048"  />

      
      <glyph glyph-name="uni1EA4" unicode="&#x1EA4;" d="M955 350L448 350L338 0L28 0L529 1443L884 1443L1386 0L1065 0L955 350M513 576L890 576L705 1167L698 1167L513 576M825 1820L1086 1556L854 1556L715 1705L703 1705L563 1556L331 1556L592 1820L825 1820M987 2130L1242 2130L1005 1887L794 1887L987 2130Z"  horiz-adv-x="1413" vert-adv-y="2048"  />

      
      <glyph glyph-name="uni1EAA" unicode="&#x1EAA;" d="M955 350L448 350L338 0L28 0L529 1443L884 1443L1386 0L1065 0L955 350M513 576L890 576L705 1167L698 1167L513 576M841 1873Q805 1873 778 1882.50Q751 1892 729.50 1906Q708 1920 691 1937Q674 1954 658 1968Q642 1982 625.50 1991.50Q609 2001 590 2001Q554 2001 537 1972Q520 1943 518 1891L363 1891Q363 1952 379 1999.50Q395 2047 424 2080Q453 2113 492.50 2130Q532 2147 579 2147Q615 2147 643 2137.50Q671 2128 693 2114Q715 2100 732.50 2083.50Q750 2067 765.50 2053Q781 2039 796 2029.50Q811 2020 829 2020Q864 2020 881 2049Q898 2078 901 2132L1055 2132Q1055 2072 1038.50 2024Q1022 1976 993.50 1942.50Q965 1909 926 1891Q887 1873 841 1873M823 1811L1084 1556L853 1556L713 1696L701 1696L561 1556L330 1556L591 1811L823 1811Z"  horiz-adv-x="1413" vert-adv-y="2048"  />

      
      <glyph glyph-name="uni1EA6" unicode="&#x1EA6;" d="M955 350L448 350L338 0L28 0L529 1443L884 1443L1386 0L1065 0L955 350M513 576L890 576L705 1167L698 1167L513 576M823 1820L1084 1556L853 1556L713 1705L701 1705L561 1556L330 1556L591 1820L823 1820M840 1887L602 2130L857 2130L1051 1887L840 1887Z"  horiz-adv-x="1413" vert-adv-y="2048"  />

      
      <glyph glyph-name="uni1EA8" unicode="&#x1EA8;" d="M955 350L448 350L338 0L28 0L529 1443L884 1443L1386 0L1065 0L955 350M513 576L890 576L705 1167L698 1167L513 576M825 1820L1085 1556L854 1556L714 1705L702 1705L562 1556L331 1556L592 1820L825 1820M825 2107Q849 2119 885.50 2126Q922 2133 960 2133Q1011 2133 1052 2120Q1093 2107 1122.50 2082Q1152 2057 1167.50 2022Q1183 1987 1183 1944Q1183 1911 1173 1880Q1163 1849 1143.50 1821.50Q1124 1794 1096 1772Q1068 1750 1032 1737L940 1835Q978 1849 996 1874.50Q1014 1900 1014 1929Q1014 1960 989.50 1979Q965 1998 923 1998Q898 1998 871 1993.50Q844 1989 825 1981L825 2107Z"  horiz-adv-x="1413" vert-adv-y="2048"  />

      
      <glyph glyph-name="uni0102" unicode="&#x0102;" d="M955 350L448 350L338 0L28 0L529 1443L884 1443L1386 0L1065 0L955 350M513 576L890 576L705 1167L698 1167L513 576M532 1860Q533 1823 545.50 1791.50Q558 1760 581 1737Q604 1714 636 1701Q668 1688 707 1688Q746 1688 778 1701Q810 1714 833 1737Q856 1760 868.50 1791.50Q881 1823 882 1860L1060 1860Q1059 1793 1034.50 1735Q1010 1677 964.50 1634.50Q919 1592 854 1567.50Q789 1543 707 1543Q625 1543 560 1567.50Q495 1592 449.50 1634.50Q404 1677 379.50 1735Q355 1793 354 1860L532 1860Z"  horiz-adv-x="1413" vert-adv-y="2048"  />

      
      <glyph glyph-name="uni1EAE" unicode="&#x1EAE;" d="M955 350L448 350L338 0L28 0L529 1443L884 1443L1386 0L1065 0L955 350M513 576L890 576L705 1167L698 1167L513 576M534 1850Q535 1820 547.50 1793Q560 1766 583 1746Q606 1726 637.50 1714.50Q669 1703 707 1703Q745 1703 776.50 1714.50Q808 1726 831 1746Q854 1766 866.50 1793Q879 1820 880 1850L1063 1850Q1063 1789 1038 1735.50Q1013 1682 967.50 1642Q922 1602 856 1579Q790 1556 707 1556Q624 1556 558 1579Q492 1602 446.50 1642Q401 1682 376 1735.50Q351 1789 351 1850L534 1850M764 2130L1018 2130L781 1887L570 1887L764 2130Z"  horiz-adv-x="1413" vert-adv-y="2048"  />

      
      <glyph glyph-name="uni1EB4" unicode="&#x1EB4;" d="M955 350L448 350L338 0L28 0L529 1443L884 1443L1386 0L1065 0L955 350M513 576L890 576L705 1167L698 1167L513 576M535 1824Q538 1798 551 1776Q564 1754 586 1737.50Q608 1721 638.50 1711.50Q669 1702 707 1702Q744 1702 775 1711.50Q806 1721 828 1737.50Q850 1754 863 1776Q876 1798 879 1824L1060 1824Q1058 1768 1033 1719.50Q1008 1671 963 1634.50Q918 1598 853 1577Q788 1556 707 1556Q626 1556 561 1577Q496 1598 451 1634.50Q406 1671 381 1719.50Q356 1768 354 1824L535 1824M840 1874Q787 1874 751.50 1893.50Q716 1913 689 1937Q662 1961 639.50 1980.50Q617 2000 589 2000Q555 2000 537.50 1970.50Q520 1941 518 1896L354 1896Q354 1954 371 2000.50Q388 2047 418 2079.50Q448 2112 489 2129.50Q530 2147 578 2147Q632 2147 669 2127.50Q706 2108 733 2084.50Q760 2061 782 2041.50Q804 2022 828 2022Q860 2022 876.50 2051Q893 2080 896 2132L1060 2132Q1060 2073 1043 2025.50Q1026 1978 996.50 1944Q967 1910 926.50 1892Q886 1874 840 1874Z"  horiz-adv-x="1413" vert-adv-y="2048"  />

      
      <glyph glyph-name="uni1EB2" unicode="&#x1EB2;" d="M955 350L448 350L338 0L28 0L529 1443L884 1443L1386 0L1065 0L955 350M513 576L890 576L705 1167L698 1167L513 576M520 2152Q541 2163 580 2170.50Q619 2178 657 2178Q708 2178 748.50 2165.50Q789 2153 817.50 2130Q846 2107 861.50 2074Q877 2041 877 2001Q877 1968 863.50 1935.50Q850 1903 826 1874.50Q802 1846 769 1822.50Q736 1799 697 1786L622 1880Q664 1894 688.50 1921Q713 1948 713 1978Q713 2008 687 2027Q661 2046 619 2046Q592 2046 566 2040.50Q540 2035 520 2026L520 2152M536 1824Q539 1797 552.50 1774.50Q566 1752 588.50 1736Q611 1720 641 1711Q671 1702 707 1702Q743 1702 773 1711Q803 1720 826 1736Q849 1752 863 1774.50Q877 1797 880 1824L1061 1824Q1059 1764 1032 1715Q1005 1666 958.50 1630.50Q912 1595 847.50 1575.50Q783 1556 707 1556Q630 1556 566.50 1575.50Q503 1595 456.50 1630.50Q410 1666 383.50 1715Q357 1764 355 1824L536 1824Z"  horiz-adv-x="1413" vert-adv-y="2048"  />

      
      <glyph glyph-name="uni1EB6" unicode="&#x1EB6;" d="M955 350L448 350L338 0L28 0L529 1443L884 1443L1386 0L1065 0L955 350M513 576L890 576L705 1167L698 1167L513 576M707-458Q675-458 648-446.50Q621-435 601-414.50Q581-394 569.50-367Q558-340 558-309Q558-278 569.50-251Q581-224 601-204Q621-184 648-172.50Q675-161 707-161Q738-161 765.50-172.50Q793-184 813-204Q833-224 844.50-251Q856-278 856-309Q856-340 844.50-367Q833-394 813-414.50Q793-435 765.50-446.50Q738-458 707-458M532 1860Q533 1823 545.50 1791.50Q558 1760 581 1737Q604 1714 636 1701Q668 1688 707 1688Q746 1688 778 1701Q810 1714 833 1737Q856 1760 868.50 1791.50Q881 1823 882 1860L1060 1860Q1059 1793 1034.50 1735Q1010 1677 964.50 1634.50Q919 1592 854 1567.50Q789 1543 707 1543Q625 1543 560 1567.50Q495 1592 449.50 1634.50Q404 1677 379.50 1735Q355 1793 354 1860L532 1860Z"  horiz-adv-x="1413" vert-adv-y="2048"  />

      
      <glyph glyph-name="uni0202" unicode="&#x0202;" d="M955 350L448 350L338 0L28 0L529 1443L884 1443L1386 0L1065 0L955 350M513 576L890 576L705 1167L698 1167L513 576M354 1543Q355 1610 379.50 1667.50Q404 1725 449.50 1768Q495 1811 560 1835.50Q625 1860 707 1860Q789 1860 854 1835.50Q919 1811 964.50 1768Q1010 1725 1034.50 1667.50Q1059 1610 1060 1543L882 1543Q881 1580 868.50 1611.50Q856 1643 833 1666Q810 1689 778 1702Q746 1715 707 1715Q668 1715 636 1702Q604 1689 581 1666Q558 1643 545.50 1611.50Q533 1580 532 1543L354 1543Z"  horiz-adv-x="1413" vert-adv-y="2048"  />

      
      <glyph glyph-name="uni01CD" unicode="&#x01CD;" d="M955 350L448 350L338 0L28 0L529 1443L884 1443L1386 0L1065 0L955 350M513 576L890 576L705 1167L698 1167L513 576M319 1861L541 1861L704 1664L710 1664L873 1861L1095 1861L821 1543L593 1543L319 1861Z"  horiz-adv-x="1413" vert-adv-y="2048"  />

      
      <glyph glyph-name="uni0226" unicode="&#x0226;" d="M955 350L448 350L338 0L28 0L529 1443L884 1443L1386 0L1065 0L955 350M513 576L890 576L705 1167L698 1167L513 576M707 1561Q675 1561 648 1572.50Q621 1584 601 1604.50Q581 1625 569.50 1652Q558 1679 558 1710Q558 1741 569.50 1768Q581 1795 601 1815Q621 1835 648 1846.50Q675 1858 707 1858Q738 1858 765.50 1846.50Q793 1835 813 1815Q833 1795 844.50 1768Q856 1741 856 1710Q856 1679 844.50 1652Q833 1625 813 1604.50Q793 1584 765.50 1572.50Q738 1561 707 1561Z"  horiz-adv-x="1413" vert-adv-y="2048"  />

      
      <glyph glyph-name="uni1EA0" unicode="&#x1EA0;" d="M955 350L448 350L338 0L28 0L529 1443L884 1443L1386 0L1065 0L955 350M513 576L890 576L705 1167L698 1167L513 576M707-458Q675-458 648-446.50Q621-435 601-414.50Q581-394 569.50-367Q558-340 558-309Q558-278 569.50-251Q581-224 601-204Q621-184 648-172.50Q675-161 707-161Q738-161 765.50-172.50Q793-184 813-204Q833-224 844.50-251Q856-278 856-309Q856-340 844.50-367Q833-394 813-414.50Q793-435 765.50-446.50Q738-458 707-458Z"  horiz-adv-x="1413" vert-adv-y="2048"  />

      
      <glyph glyph-name="uni1EA2" unicode="&#x1EA2;" d="M955 350L448 350L338 0L28 0L529 1443L884 1443L1386 0L1065 0L955 350M513 576L890 576L705 1167L698 1167L513 576M522 1922Q548 1934 586.50 1940.50Q625 1947 665 1947Q719 1947 763 1933.50Q807 1920 837.50 1895Q868 1870 885 1833.50Q902 1797 902 1752Q902 1716 888 1681.50Q874 1647 849 1617.50Q824 1588 789.50 1564Q755 1540 714 1524L628 1629Q671 1644 698 1673.50Q725 1703 725 1736Q725 1768 698.50 1788.50Q672 1809 628 1809Q603 1809 573.50 1804Q544 1799 522 1790L522 1922Z"  horiz-adv-x="1413" vert-adv-y="2048"  />

      
      <glyph glyph-name="uni0200" unicode="&#x0200;" d="M955 350L448 350L338 0L28 0L529 1443L884 1443L1386 0L1065 0L955 350M513 576L890 576L705 1167L698 1167L513 576M519 1863L788 1863L1019 1553L797 1553L519 1863M124 1863L392 1863L624 1553L402 1553L124 1863Z"  horiz-adv-x="1413" vert-adv-y="2048"  />

      
      <glyph glyph-name="uni0100" unicode="&#x0100;" d="M955 350L448 350L338 0L28 0L529 1443L884 1443L1386 0L1065 0L955 350M513 576L890 576L705 1167L698 1167L513 576M1053 1624L361 1624L361 1767L1053 1767L1053 1624Z"  horiz-adv-x="1413" vert-adv-y="2048"  />

      
      <glyph glyph-name="uni0104" unicode="&#x0104;" d="M1236-453Q1180-453 1134-436.50Q1088-420 1055-390Q1022-360 1003.50-318.50Q985-277 985-227Q985-81 1136 11L1062 11L955 350L448 350L338 0L28 0L529 1443L884 1443L1383 7L1330 7Q1185-65 1185-177Q1185-226 1217.50-256Q1250-286 1301-286Q1317-286 1332-284.50Q1347-283 1362-281L1362-436Q1336-445 1305-449Q1274-453 1236-453M513 576L890 576L708 1160L696 1160L513 576Z"  horiz-adv-x="1413" vert-adv-y="2048"  />

      
      <glyph glyph-name="uni42" unicode="&#x42;" d="M120 0L120 1443L757 1443Q859 1443 940.50 1418Q1022 1393 1079 1346Q1136 1299 1167 1232.50Q1198 1166 1198 1083Q1198 1024 1177 971Q1156 918 1119.50 876Q1083 834 1033.50 806.50Q984 779 927 770L927 762Q1000 756 1062.50 728Q1125 700 1170.50 653.50Q1216 607 1241.50 546Q1267 485 1267 413Q1267 318 1232.50 241.50Q1198 165 1133 111.50Q1068 58 975.50 29Q883 0 768 0L120 0M422 843L648 843Q769 843 835 893.50Q901 944 901 1036Q901 1124 843 1171Q785 1218 679 1218L422 1218L422 843M691 225Q822 225 890.50 279Q959 333 959 437Q959 539 888.50 591.50Q818 644 684 644L422 644L422 225L691 225Z"  horiz-adv-x="1319" vert-adv-y="2048"  />

      
      <glyph glyph-name="uni1E06" unicode="&#x1E06;" d="M120 0L120 1443L757 1443Q859 1443 940.50 1418Q1022 1393 1079 1346Q1136 1299 1167 1232.50Q1198 1166 1198 1083Q1198 1024 1177 971Q1156 918 1119.50 876Q1083 834 1033.50 806.50Q984 779 927 770L927 762Q1000 756 1062.50 728Q1125 700 1170.50 653.50Q1216 607 1241.50 546Q1267 485 1267 413Q1267 318 1232.50 241.50Q1198 165 1133 111.50Q1068 58 975.50 29Q883 0 768 0L120 0M422 843L648 843Q769 843 835 893.50Q901 944 901 1036Q901 1124 843 1171Q785 1218 679 1218L422 1218L422 843M691 225Q822 225 890.50 279Q959 333 959 437Q959 539 888.50 591.50Q818 644 684 644L422 644L422 225L691 225M972-373L280-373L280-230L972-230L972-373Z"  horiz-adv-x="1319" vert-adv-y="2048"  />

      
      <glyph glyph-name="uni1E04" unicode="&#x1E04;" d="M626-458Q594-458 567-446.50Q540-435 520-414.50Q500-394 488.50-367Q477-340 477-309Q477-278 488.50-251Q500-224 520-204Q540-184 567-172.50Q594-161 626-161Q657-161 684.50-172.50Q712-184 732-204Q752-224 763.50-251Q775-278 775-309Q775-340 763.50-367Q752-394 732-414.50Q712-435 684.50-446.50Q657-458 626-458M120 0L120 1443L757 1443Q859 1443 940.50 1418Q1022 1393 1079 1346Q1136 1299 1167 1232.50Q1198 1166 1198 1083Q1198 1024 1177 971Q1156 918 1119.50 876Q1083 834 1033.50 806.50Q984 779 927 770L927 762Q1000 756 1062.50 728Q1125 700 1170.50 653.50Q1216 607 1241.50 546Q1267 485 1267 413Q1267 318 1232.50 241.50Q1198 165 1133 111.50Q1068 58 975.50 29Q883 0 768 0L120 0M422 843L648 843Q769 843 835 893.50Q901 944 901 1036Q901 1124 843 1171Q785 1218 679 1218L422 1218L422 843M691 225Q822 225 890.50 279Q959 333 959 437Q959 539 888.50 591.50Q818 644 684 644L422 644L422 225L691 225Z"  horiz-adv-x="1319" vert-adv-y="2048"  />

      
      <glyph glyph-name="uni1E02" unicode="&#x1E02;" d="M626 1561Q594 1561 567 1572.50Q540 1584 520 1604.50Q500 1625 488.50 1652Q477 1679 477 1710Q477 1741 488.50 1768Q500 1795 520 1815Q540 1835 567 1846.50Q594 1858 626 1858Q657 1858 684.50 1846.50Q712 1835 732 1815Q752 1795 763.50 1768Q775 1741 775 1710Q775 1679 763.50 1652Q752 1625 732 1604.50Q712 1584 684.50 1572.50Q657 1561 626 1561M120 0L120 1443L757 1443Q859 1443 940.50 1418Q1022 1393 1079 1346Q1136 1299 1167 1232.50Q1198 1166 1198 1083Q1198 1024 1177 971Q1156 918 1119.50 876Q1083 834 1033.50 806.50Q984 779 927 770L927 762Q1000 756 1062.50 728Q1125 700 1170.50 653.50Q1216 607 1241.50 546Q1267 485 1267 413Q1267 318 1232.50 241.50Q1198 165 1133 111.50Q1068 58 975.50 29Q883 0 768 0L120 0M422 843L648 843Q769 843 835 893.50Q901 944 901 1036Q901 1124 843 1171Q785 1218 679 1218L422 1218L422 843M691 225Q822 225 890.50 279Q959 333 959 437Q959 539 888.50 591.50Q818 644 684 644L422 644L422 225L691 225Z"  horiz-adv-x="1319" vert-adv-y="2048"  />

      
      <glyph glyph-name="uni43" unicode="&#x43;" d="M758-25Q600-25 474 26Q348 77 259 173.50Q170 270 122.50 408.50Q75 547 75 722Q75 896 123 1034.50Q171 1173 260 1269.50Q349 1366 475 1417Q601 1468 758 1468Q888 1468 1000 1428.50Q1112 1389 1196.50 1317.50Q1281 1246 1332 1146Q1383 1046 1392 925L1098 925Q1087 991 1057.50 1045.50Q1028 1100 983.50 1138Q939 1176 881.50 1197Q824 1218 758 1218Q672 1218 603 1183.50Q534 1149 485 1084.50Q436 1020 409.50 928.50Q383 837 383 723Q383 607 409.50 515Q436 423 484.50 358.50Q533 294 602.50 259.50Q672 225 759 225Q826 225 883 244Q940 263 984 299Q1028 335 1057.50 386Q1087 437 1099 501L1393 501Q1380 380 1329 283Q1278 186 1195.50 117.50Q1113 49 1002 12Q891-25 758-25Z"  horiz-adv-x="1459" vert-adv-y="2048"  />

      
      <glyph glyph-name="uni0106" unicode="&#x0106;" d="M626 1554L858 1864L1131 1864L854 1554L626 1554M758-25Q600-25 474 26Q348 77 259 173.50Q170 270 122.50 408.50Q75 547 75 722Q75 896 123 1034.50Q171 1173 260 1269.50Q349 1366 475 1417Q601 1468 758 1468Q888 1468 1000 1428.50Q1112 1389 1196.50 1317.50Q1281 1246 1332 1146Q1383 1046 1392 925L1098 925Q1087 991 1057.50 1045.50Q1028 1100 983.50 1138Q939 1176 881.50 1197Q824 1218 758 1218Q672 1218 603 1183.50Q534 1149 485 1084.50Q436 1020 409.50 928.50Q383 837 383 723Q383 607 409.50 515Q436 423 484.50 358.50Q533 294 602.50 259.50Q672 225 759 225Q826 225 883 244Q940 263 984 299Q1028 335 1057.50 386Q1087 437 1099 501L1393 501Q1380 380 1329 283Q1278 186 1195.50 117.50Q1113 49 1002 12Q891-25 758-25Z"  horiz-adv-x="1459" vert-adv-y="2048"  />

      
      <glyph glyph-name="uni010C" unicode="&#x010C;" d="M758-25Q600-25 474 26Q348 77 259 173.50Q170 270 122.50 408.50Q75 547 75 722Q75 896 123 1034.50Q171 1173 260 1269.50Q349 1366 475 1417Q601 1468 758 1468Q888 1468 1000 1428.50Q1112 1389 1196.50 1317.50Q1281 1246 1332 1146Q1383 1046 1392 925L1098 925Q1087 991 1057.50 1045.50Q1028 1100 983.50 1138Q939 1176 881.50 1197Q824 1218 758 1218Q672 1218 603 1183.50Q534 1149 485 1084.50Q436 1020 409.50 928.50Q383 837 383 723Q383 607 409.50 515Q436 423 484.50 358.50Q533 294 602.50 259.50Q672 225 759 225Q826 225 883 244Q940 263 984 299Q1028 335 1057.50 386Q1087 437 1099 501L1393 501Q1380 380 1329 283Q1278 186 1195.50 117.50Q1113 49 1002 12Q891-25 758-25M357 1862L579 1862L742 1665L748 1665L911 1862L1133 1862L859 1544L631 1544L357 1862Z"  horiz-adv-x="1459" vert-adv-y="2048"  />

      
      <glyph glyph-name="uni0108" unicode="&#x0108;" d="M758-25Q600-25 474 26Q348 77 259 173.50Q170 270 122.50 408.50Q75 547 75 722Q75 896 123 1034.50Q171 1173 260 1269.50Q349 1366 475 1417Q601 1468 758 1468Q888 1468 1000 1428.50Q1112 1389 1196.50 1317.50Q1281 1246 1332 1146Q1383 1046 1392 925L1098 925Q1087 991 1057.50 1045.50Q1028 1100 983.50 1138Q939 1176 881.50 1197Q824 1218 758 1218Q672 1218 603 1183.50Q534 1149 485 1084.50Q436 1020 409.50 928.50Q383 837 383 723Q383 607 409.50 515Q436 423 484.50 358.50Q533 294 602.50 259.50Q672 225 759 225Q826 225 883 244Q940 263 984 299Q1028 335 1057.50 386Q1087 437 1099 501L1393 501Q1380 380 1329 283Q1278 186 1195.50 117.50Q1113 49 1002 12Q891-25 758-25M859 1862L1133 1544L911 1544L748 1741L742 1741L579 1544L357 1544L631 1862L859 1862Z"  horiz-adv-x="1459" vert-adv-y="2048"  />

      
      <glyph glyph-name="uni010A" unicode="&#x010A;" d="M745 1562Q713 1562 686 1573.50Q659 1585 639 1605.50Q619 1626 607.50 1653Q596 1680 596 1711Q596 1742 607.50 1769Q619 1796 639 1816Q659 1836 686 1847.50Q713 1859 745 1859Q776 1859 803.50 1847.50Q831 1836 851 1816Q871 1796 882.50 1769Q894 1742 894 1711Q894 1680 882.50 1653Q871 1626 851 1605.50Q831 1585 803.50 1573.50Q776 1562 745 1562M758-25Q600-25 474 26Q348 77 259 173.50Q170 270 122.50 408.50Q75 547 75 722Q75 896 123 1034.50Q171 1173 260 1269.50Q349 1366 475 1417Q601 1468 758 1468Q888 1468 1000 1428.50Q1112 1389 1196.50 1317.50Q1281 1246 1332 1146Q1383 1046 1392 925L1098 925Q1087 991 1057.50 1045.50Q1028 1100 983.50 1138Q939 1176 881.50 1197Q824 1218 758 1218Q672 1218 603 1183.50Q534 1149 485 1084.50Q436 1020 409.50 928.50Q383 837 383 723Q383 607 409.50 515Q436 423 484.50 358.50Q533 294 602.50 259.50Q672 225 759 225Q826 225 883 244Q940 263 984 299Q1028 335 1057.50 386Q1087 437 1099 501L1393 501Q1380 380 1329 283Q1278 186 1195.50 117.50Q1113 49 1002 12Q891-25 758-25Z"  horiz-adv-x="1459" vert-adv-y="2048"  />

      
      <glyph glyph-name="unic7" unicode="&#xc7;" d="M1393 501Q1381 388 1335.50 296Q1290 204 1217 136.50Q1144 69 1045 28Q946-13 828-22L788-116Q876-116 924.50-157.50Q973-199 973-275Q973-362 909.50-411Q846-460 732-461Q690-461 654.50-457Q619-453 592-445L592-325Q609-331 641-335Q673-339 703-339Q810-339 810-284Q810-253 781.50-240.50Q753-228 685-228L629-228L629-127L677-21Q537-8 425.50 48.50Q314 105 236 200Q158 295 116.50 427Q75 559 75 722Q75 896 123 1034.50Q171 1173 260 1269.50Q349 1366 475 1417Q601 1468 758 1468Q888 1468 1000 1428.50Q1112 1389 1196.50 1317.50Q1281 1246 1332 1146Q1383 1046 1392 925L1098 925Q1087 991 1057.50 1045.50Q1028 1100 983.50 1138Q939 1176 881.50 1197Q824 1218 758 1218Q672 1218 603 1183.50Q534 1149 485 1084.50Q436 1020 409.50 928.50Q383 837 383 723Q383 607 409.50 515Q436 423 484.50 358.50Q533 294 602.50 259.50Q672 225 759 225Q826 225 883 244Q940 263 984 299Q1028 335 1057.50 386Q1087 437 1099 501L1393 501Z"  horiz-adv-x="1459" vert-adv-y="2048"  />

      
      <glyph glyph-name="uni1E08" unicode="&#x1E08;" d="M854 1554L626 1554L858 1864L1131 1864L854 1554M1393 501Q1381 388 1335.50 296Q1290 204 1217 136.50Q1144 69 1045 28Q946-13 828-22L788-116Q876-116 924.50-157.50Q973-199 973-275Q973-362 909.50-411Q846-460 732-461Q690-461 654.50-457Q619-453 592-445L592-325Q609-331 641-335Q673-339 703-339Q810-339 810-284Q810-253 781.50-240.50Q753-228 685-228L629-228L629-127L677-21Q537-8 425.50 48.50Q314 105 236 200Q158 295 116.50 427Q75 559 75 722Q75 896 123 1034.50Q171 1173 260 1269.50Q349 1366 475 1417Q601 1468 758 1468Q888 1468 1000 1428.50Q1112 1389 1196.50 1317.50Q1281 1246 1332 1146Q1383 1046 1392 925L1098 925Q1087 991 1057.50 1045.50Q1028 1100 983.50 1138Q939 1176 881.50 1197Q824 1218 758 1218Q672 1218 603 1183.50Q534 1149 485 1084.50Q436 1020 409.50 928.50Q383 837 383 723Q383 607 409.50 515Q436 423 484.50 358.50Q533 294 602.50 259.50Q672 225 759 225Q826 225 883 244Q940 263 984 299Q1028 335 1057.50 386Q1087 437 1099 501L1393 501Z"  horiz-adv-x="1459" vert-adv-y="2048"  />

      
      <glyph glyph-name="uni44" unicode="&#x44;" d="M676 1443Q838 1443 966 1395.50Q1094 1348 1182.50 1256.50Q1271 1165 1317.50 1032Q1364 899 1364 727Q1364 555 1317.50 420Q1271 285 1182.50 191.50Q1094 98 966 49Q838 0 676 0L120 0L120 1443L676 1443M422 250L640 250Q844 250 950 370.50Q1056 491 1056 726Q1056 839 1028.50 926.50Q1001 1014 948 1073.50Q895 1133 817.50 1163.50Q740 1194 640 1194L422 1194L422 250Z"  horiz-adv-x="1438" vert-adv-y="2048"  />

      
      <glyph glyph-name="uni1E0A" unicode="&#x1E0A;" d="M644 1561Q612 1561 585 1572.50Q558 1584 538 1604.50Q518 1625 506.50 1652Q495 1679 495 1710Q495 1741 506.50 1768Q518 1795 538 1815Q558 1835 585 1846.50Q612 1858 644 1858Q675 1858 702.50 1846.50Q730 1835 750 1815Q770 1795 781.50 1768Q793 1741 793 1710Q793 1679 781.50 1652Q770 1625 750 1604.50Q730 1584 702.50 1572.50Q675 1561 644 1561M676 1443Q838 1443 966 1395.50Q1094 1348 1182.50 1256.50Q1271 1165 1317.50 1032Q1364 899 1364 727Q1364 555 1317.50 420Q1271 285 1182.50 191.50Q1094 98 966 49Q838 0 676 0L120 0L120 1443L676 1443M422 250L640 250Q844 250 950 370.50Q1056 491 1056 726Q1056 839 1028.50 926.50Q1001 1014 948 1073.50Q895 1133 817.50 1163.50Q740 1194 640 1194L422 1194L422 250Z"  horiz-adv-x="1438" vert-adv-y="2048"  />

      
      <glyph glyph-name="uni1E12" unicode="&#x1E12;" d="M676 1443Q838 1443 966 1395.50Q1094 1348 1182.50 1256.50Q1271 1165 1317.50 1032Q1364 899 1364 727Q1364 555 1317.50 420Q1271 285 1182.50 191.50Q1094 98 966 49Q838 0 676 0L120 0L120 1443L676 1443M422 250L640 250Q844 250 950 370.50Q1056 491 1056 726Q1056 839 1028.50 926.50Q1001 1014 948 1073.50Q895 1133 817.50 1163.50Q740 1194 640 1194L422 1194L422 250M758-160L1032-478L810-478L647-281L641-281L478-478L256-478L530-160L758-160Z"  horiz-adv-x="1438" vert-adv-y="2048"  />

      
      <glyph glyph-name="uni1E10" unicode="&#x1E10;" d="M405-500L526-155L782-155L622-500L405-500M676 1443Q838 1443 966 1395.50Q1094 1348 1182.50 1256.50Q1271 1165 1317.50 1032Q1364 899 1364 727Q1364 555 1317.50 420Q1271 285 1182.50 191.50Q1094 98 966 49Q838 0 676 0L120 0L120 1443L676 1443M422 250L640 250Q844 250 950 370.50Q1056 491 1056 726Q1056 839 1028.50 926.50Q1001 1014 948 1073.50Q895 1133 817.50 1163.50Q740 1194 640 1194L422 1194L422 250Z"  horiz-adv-x="1438" vert-adv-y="2048"  />

      
      <glyph glyph-name="uni1E0E" unicode="&#x1E0E;" d="M990-373L298-373L298-230L990-230L990-373M676 1443Q838 1443 966 1395.50Q1094 1348 1182.50 1256.50Q1271 1165 1317.50 1032Q1364 899 1364 727Q1364 555 1317.50 420Q1271 285 1182.50 191.50Q1094 98 966 49Q838 0 676 0L120 0L120 1443L676 1443M422 250L640 250Q844 250 950 370.50Q1056 491 1056 726Q1056 839 1028.50 926.50Q1001 1014 948 1073.50Q895 1133 817.50 1163.50Q740 1194 640 1194L422 1194L422 250Z"  horiz-adv-x="1438" vert-adv-y="2048"  />

      
      <glyph glyph-name="uni010E" unicode="&#x010E;" d="M256 1861L478 1861L641 1664L647 1664L810 1861L1032 1861L758 1543L530 1543L256 1861M676 1443Q838 1443 966 1395.50Q1094 1348 1182.50 1256.50Q1271 1165 1317.50 1032Q1364 899 1364 727Q1364 555 1317.50 420Q1271 285 1182.50 191.50Q1094 98 966 49Q838 0 676 0L120 0L120 1443L676 1443M422 250L640 250Q844 250 950 370.50Q1056 491 1056 726Q1056 839 1028.50 926.50Q1001 1014 948 1073.50Q895 1133 817.50 1163.50Q740 1194 640 1194L422 1194L422 250Z"  horiz-adv-x="1438" vert-adv-y="2048"  />

      
      <glyph glyph-name="uni1E0C" unicode="&#x1E0C;" d="M644-458Q612-458 585-446.50Q558-435 538-414.50Q518-394 506.50-367Q495-340 495-309Q495-278 506.50-251Q518-224 538-204Q558-184 585-172.50Q612-161 644-161Q675-161 702.50-172.50Q730-184 750-204Q770-224 781.50-251Q793-278 793-309Q793-340 781.50-367Q770-394 750-414.50Q730-435 702.50-446.50Q675-458 644-458M676 1443Q838 1443 966 1395.50Q1094 1348 1182.50 1256.50Q1271 1165 1317.50 1032Q1364 899 1364 727Q1364 555 1317.50 420Q1271 285 1182.50 191.50Q1094 98 966 49Q838 0 676 0L120 0L120 1443L676 1443M422 250L640 250Q844 250 950 370.50Q1056 491 1056 726Q1056 839 1028.50 926.50Q1001 1014 948 1073.50Q895 1133 817.50 1163.50Q740 1194 640 1194L422 1194L422 250Z"  horiz-adv-x="1438" vert-adv-y="2048"  />

      
      <glyph glyph-name="uni0110" unicode="&#x0110;" d="M693 250Q897 250 1003 370.50Q1109 491 1109 726Q1109 839 1081.50 926.50Q1054 1014 1001 1073.50Q948 1133 870.50 1163.50Q793 1194 693 1194L475 1194L475 843L740 843L740 622L475 622L475 250L693 250M729 1443Q891 1443 1019 1395.50Q1147 1348 1235.50 1256.50Q1324 1165 1370.50 1032Q1417 899 1417 727Q1417 555 1370.50 420Q1324 285 1235.50 191.50Q1147 98 1019 49Q891 0 729 0L173 0L173 622L85 622L85 843L173 843L173 1443L729 1443Z"  horiz-adv-x="1517" vert-adv-y="2048"  />

      
      <glyph glyph-name="uni45" unicode="&#x45;" d="M1076 0L120 0L120 1443L1076 1443L1076 1194L422 1194L422 846L1039 846L1039 614L422 614L422 250L1076 250L1076 0Z"  horiz-adv-x="1174" vert-adv-y="2048"  />

      
      <glyph glyph-name="unic8" unicode="&#xc8;" d="M210 1868L483 1868L715 1558L488 1558L210 1868M1076 0L120 0L120 1443L1076 1443L1076 1194L422 1194L422 846L1039 846L1039 614L422 614L422 250L1076 250L1076 0Z"  horiz-adv-x="1174" vert-adv-y="2048"  />

      
      <glyph glyph-name="uni0204" unicode="&#x0204;" d="M410 1863L679 1863L910 1553L688 1553L410 1863M15 1863L283 1863L515 1553L293 1553L15 1863M1076 0L120 0L120 1443L1076 1443L1076 1194L422 1194L422 846L1039 846L1039 614L422 614L422 250L1076 250L1076 0Z"  horiz-adv-x="1174" vert-adv-y="2048"  />

      
      <glyph glyph-name="unic9" unicode="&#xc9;" d="M479 1553L711 1863L984 1863L707 1553L479 1553M1076 0L120 0L120 1443L1076 1443L1076 1194L422 1194L422 846L1039 846L1039 614L422 614L422 250L1076 250L1076 0Z"  horiz-adv-x="1174" vert-adv-y="2048"  />

      
      <glyph glyph-name="unica" unicode="&#xca;" d="M712 1861L986 1543L764 1543L601 1740L595 1740L432 1543L210 1543L484 1861L712 1861M1076 0L120 0L120 1443L1076 1443L1076 1194L422 1194L422 846L1039 846L1039 614L422 614L422 250L1076 250L1076 0Z"  horiz-adv-x="1174" vert-adv-y="2048"  />

      
      <glyph glyph-name="uni1EC2" unicode="&#x1EC2;" d="M1076 0L120 0L120 1443L1076 1443L1076 1194L422 1194L422 846L1039 846L1039 614L422 614L422 250L1076 250L1076 0M716 1820L976 1556L745 1556L605 1705L593 1705L453 1556L222 1556L483 1820L716 1820M716 2107Q740 2119 776.50 2126Q813 2133 851 2133Q902 2133 943 2120Q984 2107 1013.50 2082Q1043 2057 1058.50 2022Q1074 1987 1074 1944Q1074 1911 1064 1880Q1054 1849 1034.50 1821.50Q1015 1794 987 1772Q959 1750 923 1737L831 1835Q869 1849 887 1874.50Q905 1900 905 1929Q905 1960 880.50 1979Q856 1998 814 1998Q789 1998 762 1993.50Q735 1989 716 1981L716 2107Z"  horiz-adv-x="1174" vert-adv-y="2048"  />

      
      <glyph glyph-name="uni1EC0" unicode="&#x1EC0;" d="M1076 0L120 0L120 1443L1076 1443L1076 1194L422 1194L422 846L1039 846L1039 614L422 614L422 250L1076 250L1076 0M714 1820L975 1556L744 1556L604 1705L592 1705L452 1556L221 1556L482 1820L714 1820M731 1887L493 2130L748 2130L942 1887L731 1887Z"  horiz-adv-x="1174" vert-adv-y="2048"  />

      
      <glyph glyph-name="uni1EC4" unicode="&#x1EC4;" d="M732 1873Q696 1873 669 1882.50Q642 1892 620.50 1906Q599 1920 582 1937Q565 1954 549 1968Q533 1982 516.50 1991.50Q500 2001 481 2001Q445 2001 428 1972Q411 1943 409 1891L254 1891Q254 1952 270 1999.50Q286 2047 315 2080Q344 2113 383.50 2130Q423 2147 470 2147Q506 2147 534 2137.50Q562 2128 584 2114Q606 2100 623.50 2083.50Q641 2067 656.50 2053Q672 2039 687 2029.50Q702 2020 720 2020Q755 2020 772 2049Q789 2078 792 2132L946 2132Q946 2072 929.50 2024Q913 1976 884.50 1942.50Q856 1909 817 1891Q778 1873 732 1873M714 1811L975 1556L744 1556L604 1696L592 1696L452 1556L221 1556L482 1811L714 1811M1076 0L120 0L120 1443L1076 1443L1076 1194L422 1194L422 846L1039 846L1039 614L422 614L422 250L1076 250L1076 0Z"  horiz-adv-x="1174" vert-adv-y="2048"  />

      
      <glyph glyph-name="uni1EC6" unicode="&#x1EC6;" d="M598-458Q566-458 539-446.50Q512-435 492-414.50Q472-394 460.50-367Q449-340 449-309Q449-278 460.50-251Q472-224 492-204Q512-184 539-172.50Q566-161 598-161Q629-161 656.50-172.50Q684-184 704-204Q724-224 735.50-251Q747-278 747-309Q747-340 735.50-367Q724-394 704-414.50Q684-435 656.50-446.50Q629-458 598-458M712 1861L986 1543L764 1543L601 1740L595 1740L432 1543L210 1543L484 1861L712 1861M1076 0L120 0L120 1443L1076 1443L1076 1194L422 1194L422 846L1039 846L1039 614L422 614L422 250L1076 250L1076 0Z"  horiz-adv-x="1174" vert-adv-y="2048"  />

      
      <glyph glyph-name="uni1EBE" unicode="&#x1EBE;" d="M1076 0L120 0L120 1443L1076 1443L1076 1194L422 1194L422 846L1039 846L1039 614L422 614L422 250L1076 250L1076 0M716 1820L977 1556L745 1556L606 1705L594 1705L454 1556L222 1556L483 1820L716 1820M878 2130L1133 2130L896 1887L685 1887L878 2130Z"  horiz-adv-x="1174" vert-adv-y="2048"  />

      
      <glyph glyph-name="unicb" unicode="&#xcb;" d="M389 1561Q360 1561 335.50 1571.50Q311 1582 293 1599.50Q275 1617 264.50 1641Q254 1665 254 1692Q254 1719 264.50 1743Q275 1767 293 1784.50Q311 1802 335.50 1812.50Q360 1823 389 1823Q418 1823 442.50 1812.50Q467 1802 485 1784.50Q503 1767 513.50 1743Q524 1719 524 1692Q524 1665 513.50 1641Q503 1617 485 1599.50Q467 1582 442.50 1571.50Q418 1561 389 1561M808 1561Q779 1561 754.50 1571.50Q730 1582 712 1599.50Q694 1617 683.50 1641Q673 1665 673 1692Q673 1719 683.50 1743Q694 1767 712 1784.50Q730 1802 754.50 1812.50Q779 1823 808 1823Q837 1823 861.50 1812.50Q886 1802 904 1784.50Q922 1767 932.50 1743Q943 1719 943 1692Q943 1665 932.50 1641Q922 1617 904 1599.50Q886 1582 861.50 1571.50Q837 1561 808 1561M1076 0L120 0L120 1443L1076 1443L1076 1194L422 1194L422 846L1039 846L1039 614L422 614L422 250L1076 250L1076 0Z"  horiz-adv-x="1174" vert-adv-y="2048"  />

      
      <glyph glyph-name="uni1EB8" unicode="&#x1EB8;" d="M598-458Q566-458 539-446.50Q512-435 492-414.50Q472-394 460.50-367Q449-340 449-309Q449-278 460.50-251Q472-224 492-204Q512-184 539-172.50Q566-161 598-161Q629-161 656.50-172.50Q684-184 704-204Q724-224 735.50-251Q747-278 747-309Q747-340 735.50-367Q724-394 704-414.50Q684-435 656.50-446.50Q629-458 598-458M1076 0L120 0L120 1443L1076 1443L1076 1194L422 1194L422 846L1039 846L1039 614L422 614L422 250L1076 250L1076 0Z"  horiz-adv-x="1174" vert-adv-y="2048"  />

      
      <glyph glyph-name="uni0206" unicode="&#x0206;" d="M1076 0L120 0L120 1443L1076 1443L1076 1194L422 1194L422 846L1039 846L1039 614L422 614L422 250L1076 250L1076 0M245 1543Q246 1610 270.50 1667.50Q295 1725 340.50 1768Q386 1811 451 1835.50Q516 1860 598 1860Q680 1860 745 1835.50Q810 1811 855.50 1768Q901 1725 925.50 1667.50Q950 1610 951 1543L773 1543Q772 1580 759.50 1611.50Q747 1643 724 1666Q701 1689 669 1702Q637 1715 598 1715Q559 1715 527 1702Q495 1689 472 1666Q449 1643 436.50 1611.50Q424 1580 423 1543L245 1543Z"  horiz-adv-x="1174" vert-adv-y="2048"  />

      
      <glyph glyph-name="uni1EBA" unicode="&#x1EBA;" d="M1076 0L120 0L120 1443L1076 1443L1076 1194L422 1194L422 846L1039 846L1039 614L422 614L422 250L1076 250L1076 0M413 1922Q439 1934 477.50 1940.50Q516 1947 556 1947Q610 1947 654 1933.50Q698 1920 728.50 1895Q759 1870 776 1833.50Q793 1797 793 1752Q793 1716 779 1681.50Q765 1647 740 1617.50Q715 1588 680.50 1564Q646 1540 605 1524L519 1629Q562 1644 589 1673.50Q616 1703 616 1736Q616 1768 589.50 1788.50Q563 1809 519 1809Q494 1809 464.50 1804Q435 1799 413 1790L413 1922Z"  horiz-adv-x="1174" vert-adv-y="2048"  />

      
      <glyph glyph-name="uni011A" unicode="&#x011A;" d="M210 1861L432 1861L595 1664L601 1664L764 1861L986 1861L712 1543L484 1543L210 1861M1076 0L120 0L120 1443L1076 1443L1076 1194L422 1194L422 846L1039 846L1039 614L422 614L422 250L1076 250L1076 0Z"  horiz-adv-x="1174" vert-adv-y="2048"  />

      
      <glyph glyph-name="uni0112" unicode="&#x0112;" d="M1076 0L120 0L120 1443L1076 1443L1076 1194L422 1194L422 846L1039 846L1039 614L422 614L422 250L1076 250L1076 0M944 1624L252 1624L252 1767L944 1767L944 1624Z"  horiz-adv-x="1174" vert-adv-y="2048"  />

      
      <glyph glyph-name="uni1E14" unicode="&#x1E14;" d="M252 1767L944 1767L944 1624L252 1624L252 1767M499 1887L262 2130L516 2130L710 1887L499 1887M1076 0L120 0L120 1443L1076 1443L1076 1194L422 1194L422 846L1039 846L1039 614L422 614L422 250L1076 250L1076 0Z"  horiz-adv-x="1174" vert-adv-y="2048"  />

      
      <glyph glyph-name="uni1E16" unicode="&#x1E16;" d="M252 1624L252 1767L944 1767L944 1624L252 1624M680 2130L934 2130L697 1887L486 1887L680 2130M1076 0L120 0L120 1443L1076 1443L1076 1194L422 1194L422 846L1039 846L1039 614L422 614L422 250L1076 250L1076 0Z"  horiz-adv-x="1174" vert-adv-y="2048"  />

      
      <glyph glyph-name="uni1EBC" unicode="&#x1EBC;" d="M1076 0L120 0L120 1443L1076 1443L1076 1194L422 1194L422 846L1039 846L1039 614L422 614L422 250L1076 250L1076 0M738 1541Q704 1541 676.50 1551Q649 1561 626.50 1576Q604 1591 585.50 1609Q567 1627 549.50 1642Q532 1657 515 1667Q498 1677 480 1677Q446 1677 429 1644Q412 1611 411 1558L253 1558Q253 1622 269.50 1672.50Q286 1723 314.50 1758Q343 1793 382.50 1811Q422 1829 468 1829Q521 1829 558.50 1808Q596 1787 625 1761.50Q654 1736 678 1715Q702 1694 729 1694Q761 1694 777 1726Q793 1758 794 1816L952 1816Q952 1752 935.50 1701Q919 1650 890.50 1614.50Q862 1579 822.50 1560Q783 1541 738 1541Z"  horiz-adv-x="1174" vert-adv-y="2048"  />

      
      <glyph glyph-name="uni1E18" unicode="&#x1E18;" d="M1076 0L120 0L120 1443L1076 1443L1076 1194L422 1194L422 846L1039 846L1039 614L422 614L422 250L1076 250L1076 0M712-160L986-478L764-478L601-281L595-281L432-478L210-478L484-160L712-160Z"  horiz-adv-x="1174" vert-adv-y="2048"  />

      
      <glyph glyph-name="uni0114" unicode="&#x0114;" d="M1076 0L120 0L120 1443L1076 1443L1076 1194L422 1194L422 846L1039 846L1039 614L422 614L422 250L1076 250L1076 0M423 1860Q424 1823 436.50 1791.50Q449 1760 472 1737Q495 1714 527 1701Q559 1688 598 1688Q637 1688 669 1701Q701 1714 724 1737Q747 1760 759.50 1791.50Q772 1823 773 1860L951 1860Q950 1793 925.50 1735Q901 1677 855.50 1634.50Q810 1592 745 1567.50Q680 1543 598 1543Q516 1543 451 1567.50Q386 1592 340.50 1634.50Q295 1677 270.50 1735Q246 1793 245 1860L423 1860Z"  horiz-adv-x="1174" vert-adv-y="2048"  />

      
      <glyph glyph-name="uni1E1A" unicode="&#x1E1A;" d="M738-435Q704-435 676.50-425Q649-415 626.50-400Q604-385 585.50-367Q567-349 549.50-334Q532-319 515-309Q498-299 480-299Q446-299 429-332Q412-365 411-418L253-418Q253-354 269.50-303.50Q286-253 314.50-218Q343-183 382.50-165Q422-147 468-147Q521-147 558.50-168Q596-189 625-214.50Q654-240 678-261Q702-282 729-282Q761-282 777-250Q793-218 794-160L952-160Q952-224 935.50-275Q919-326 890.50-361.50Q862-397 822.50-416Q783-435 738-435M1076 0L120 0L120 1443L1076 1443L1076 1194L422 1194L422 846L1039 846L1039 614L422 614L422 250L1076 250L1076 0Z"  horiz-adv-x="1174" vert-adv-y="2048"  />

      
      <glyph glyph-name="uni0116" unicode="&#x0116;" d="M598 1561Q566 1561 539 1572.50Q512 1584 492 1604.50Q472 1625 460.50 1652Q449 1679 449 1710Q449 1741 460.50 1768Q472 1795 492 1815Q512 1835 539 1846.50Q566 1858 598 1858Q629 1858 656.50 1846.50Q684 1835 704 1815Q724 1795 735.50 1768Q747 1741 747 1710Q747 1679 735.50 1652Q724 1625 704 1604.50Q684 1584 656.50 1572.50Q629 1561 598 1561M1076 0L120 0L120 1443L1076 1443L1076 1194L422 1194L422 846L1039 846L1039 614L422 614L422 250L1076 250L1076 0Z"  horiz-adv-x="1174" vert-adv-y="2048"  />

      
      <glyph glyph-name="uni0228" unicode="&#x0228;" d="M422 1194L422 846L1039 846L1039 614L422 614L422 250L1076 250L1076 0L690 0L641-116Q729-116 777.50-157.50Q826-199 826-275Q826-362 762.50-411Q699-460 585-461Q543-461 507.50-457Q472-453 445-445L445-325Q462-331 494-335Q526-339 556-339Q663-339 663-284Q663-253 634.50-240.50Q606-228 538-228L482-228L482-127L540 0L120 0L120 1443L1076 1443L1076 1194L422 1194Z"  horiz-adv-x="1174" vert-adv-y="2048"  />

      
      <glyph glyph-name="uni1E1C" unicode="&#x1E1C;" d="M951 1860Q950 1793 925.50 1735Q901 1677 855.50 1634.50Q810 1592 745 1567.50Q680 1543 598 1543Q516 1543 451 1567.50Q386 1592 340.50 1634.50Q295 1677 270.50 1735Q246 1793 245 1860L423 1860Q424 1823 436.50 1791.50Q449 1760 472 1737Q495 1714 527 1701Q559 1688 598 1688Q637 1688 669 1701Q701 1714 724 1737Q747 1760 759.50 1791.50Q772 1823 773 1860L951 1860M422 1194L422 846L1039 846L1039 614L422 614L422 250L1076 250L1076 0L690 0L641-116Q729-116 777.50-157.50Q826-199 826-275Q826-362 762.50-411Q699-460 585-461Q543-461 507.50-457Q472-453 445-445L445-325Q462-331 494-335Q526-339 556-339Q663-339 663-284Q663-253 634.50-240.50Q606-228 538-228L482-228L482-127L540 0L120 0L120 1443L1076 1443L1076 1194L422 1194Z"  horiz-adv-x="1174" vert-adv-y="2048"  />

      
      <glyph glyph-name="uni0118" unicode="&#x0118;" d="M120 0L120 1443L1076 1443L1076 1194L422 1194L422 846L1039 846L1039 614L422 614L422 250L1076 250L1076 29Q887-57 887-184Q887-230 918.50-258Q950-286 1004-286Q1026-286 1043-284.50Q1060-283 1076-278L1076-432Q1054-442 1018-447.50Q982-453 939-453Q881-453 834-437.50Q787-422 754-394Q721-366 703-326Q685-286 685-237Q685-162 720-105Q755-48 830 0L120 0Z"  horiz-adv-x="1174" vert-adv-y="2048"  />

      
      <glyph glyph-name="uni46" unicode="&#x46;" d="M120 0L120 1443L1065 1443L1065 1194L422 1194L422 807L1009 807L1009 568L422 568L422 0L120 0Z"  horiz-adv-x="1123" vert-adv-y="2048"  />

      
      <glyph glyph-name="uni1E1E" unicode="&#x1E1E;" d="M580 1561Q548 1561 521 1572.50Q494 1584 474 1604.50Q454 1625 442.50 1652Q431 1679 431 1710Q431 1741 442.50 1768Q454 1795 474 1815Q494 1835 521 1846.50Q548 1858 580 1858Q611 1858 638.50 1846.50Q666 1835 686 1815Q706 1795 717.50 1768Q729 1741 729 1710Q729 1679 717.50 1652Q706 1625 686 1604.50Q666 1584 638.50 1572.50Q611 1561 580 1561M120 0L120 1443L1065 1443L1065 1194L422 1194L422 807L1009 807L1009 568L422 568L422 0L120 0Z"  horiz-adv-x="1123" vert-adv-y="2048"  />

      
      <glyph glyph-name="uni47" unicode="&#x47;" d="M1410 606Q1410 459 1366.50 342Q1323 225 1240.50 143.50Q1158 62 1039.50 18.50Q921-25 770-25Q608-25 479.50 26.50Q351 78 261 174.50Q171 271 123 410.50Q75 550 75 726Q75 899 123 1036.50Q171 1174 260 1270Q349 1366 476.50 1417Q604 1468 763 1468Q889 1468 998 1432.50Q1107 1397 1190 1332Q1273 1267 1327 1176.50Q1381 1086 1397 977L1094 977Q1077 1034 1046.50 1078.50Q1016 1123 973.50 1154Q931 1185 878 1201.50Q825 1218 764 1218Q675 1218 604 1185Q533 1152 484 1089Q435 1026 409 935.50Q383 845 383 730Q383 613 410.50 519.50Q438 426 489 360.50Q540 295 612.50 260.50Q685 226 775 226Q849 226 910.50 247.50Q972 269 1016.50 308.50Q1061 348 1087 403.50Q1113 459 1115 526L1116 549L802 549L802 769L1410 769L1410 606L1410 606Z"  horiz-adv-x="1489" vert-adv-y="2048"  />

      
      <glyph glyph-name="uni01F4" unicode="&#x01F4;" d="M632 1553L864 1863L1137 1863L860 1553L632 1553M1410 606Q1410 459 1366.50 342Q1323 225 1240.50 143.50Q1158 62 1039.50 18.50Q921-25 770-25Q608-25 479.50 26.50Q351 78 261 174.50Q171 271 123 410.50Q75 550 75 726Q75 899 123 1036.50Q171 1174 260 1270Q349 1366 476.50 1417Q604 1468 763 1468Q889 1468 998 1432.50Q1107 1397 1190 1332Q1273 1267 1327 1176.50Q1381 1086 1397 977L1094 977Q1077 1034 1046.50 1078.50Q1016 1123 973.50 1154Q931 1185 878 1201.50Q825 1218 764 1218Q675 1218 604 1185Q533 1152 484 1089Q435 1026 409 935.50Q383 845 383 730Q383 613 410.50 519.50Q438 426 489 360.50Q540 295 612.50 260.50Q685 226 775 226Q849 226 910.50 247.50Q972 269 1016.50 308.50Q1061 348 1087 403.50Q1113 459 1115 526L1116 549L802 549L802 769L1410 769L1410 606Z"  horiz-adv-x="1489" vert-adv-y="2048"  />

      
      <glyph glyph-name="uni01E6" unicode="&#x01E6;" d="M363 1861L585 1861L748 1664L754 1664L917 1861L1139 1861L865 1543L637 1543L363 1861M1410 606Q1410 459 1366.50 342Q1323 225 1240.50 143.50Q1158 62 1039.50 18.50Q921-25 770-25Q608-25 479.50 26.50Q351 78 261 174.50Q171 271 123 410.50Q75 550 75 726Q75 899 123 1036.50Q171 1174 260 1270Q349 1366 476.50 1417Q604 1468 763 1468Q889 1468 998 1432.50Q1107 1397 1190 1332Q1273 1267 1327 1176.50Q1381 1086 1397 977L1094 977Q1077 1034 1046.50 1078.50Q1016 1123 973.50 1154Q931 1185 878 1201.50Q825 1218 764 1218Q675 1218 604 1185Q533 1152 484 1089Q435 1026 409 935.50Q383 845 383 730Q383 613 410.50 519.50Q438 426 489 360.50Q540 295 612.50 260.50Q685 226 775 226Q849 226 910.50 247.50Q972 269 1016.50 308.50Q1061 348 1087 403.50Q1113 459 1115 526L1116 549L802 549L802 769L1410 769L1410 606Z"  horiz-adv-x="1489" vert-adv-y="2048"  />

      
      <glyph glyph-name="uni011C" unicode="&#x011C;" d="M865 1861L1139 1543L917 1543L754 1740L748 1740L585 1543L363 1543L637 1861L865 1861M1410 606Q1410 459 1366.50 342Q1323 225 1240.50 143.50Q1158 62 1039.50 18.50Q921-25 770-25Q608-25 479.50 26.50Q351 78 261 174.50Q171 271 123 410.50Q75 550 75 726Q75 899 123 1036.50Q171 1174 260 1270Q349 1366 476.50 1417Q604 1468 763 1468Q889 1468 998 1432.50Q1107 1397 1190 1332Q1273 1267 1327 1176.50Q1381 1086 1397 977L1094 977Q1077 1034 1046.50 1078.50Q1016 1123 973.50 1154Q931 1185 878 1201.50Q825 1218 764 1218Q675 1218 604 1185Q533 1152 484 1089Q435 1026 409 935.50Q383 845 383 730Q383 613 410.50 519.50Q438 426 489 360.50Q540 295 612.50 260.50Q685 226 775 226Q849 226 910.50 247.50Q972 269 1016.50 308.50Q1061 348 1087 403.50Q1113 459 1115 526L1116 549L802 549L802 769L1410 769L1410 606Z"  horiz-adv-x="1489" vert-adv-y="2048"  />

      
      <glyph glyph-name="uni011E" unicode="&#x011E;" d="M1410 606Q1410 459 1366.50 342Q1323 225 1240.50 143.50Q1158 62 1039.50 18.50Q921-25 770-25Q608-25 479.50 26.50Q351 78 261 174.50Q171 271 123 410.50Q75 550 75 726Q75 899 123 1036.50Q171 1174 260 1270Q349 1366 476.50 1417Q604 1468 763 1468Q889 1468 998 1432.50Q1107 1397 1190 1332Q1273 1267 1327 1176.50Q1381 1086 1397 977L1094 977Q1077 1034 1046.50 1078.50Q1016 1123 973.50 1154Q931 1185 878 1201.50Q825 1218 764 1218Q675 1218 604 1185Q533 1152 484 1089Q435 1026 409 935.50Q383 845 383 730Q383 613 410.50 519.50Q438 426 489 360.50Q540 295 612.50 260.50Q685 226 775 226Q849 226 910.50 247.50Q972 269 1016.50 308.50Q1061 348 1087 403.50Q1113 459 1115 526L1116 549L802 549L802 769L1410 769L1410 606M576 1860Q577 1823 589.50 1791.50Q602 1760 625 1737Q648 1714 680 1701Q712 1688 751 1688Q790 1688 822 1701Q854 1714 877 1737Q900 1760 912.50 1791.50Q925 1823 926 1860L1104 1860Q1103 1793 1078.50 1735Q1054 1677 1008.50 1634.50Q963 1592 898 1567.50Q833 1543 751 1543Q669 1543 604 1567.50Q539 1592 493.50 1634.50Q448 1677 423.50 1735Q399 1793 398 1860L576 1860Z"  horiz-adv-x="1489" vert-adv-y="2048"  />

      
      <glyph glyph-name="uni1E20" unicode="&#x1E20;" d="M1410 606Q1410 459 1366.50 342Q1323 225 1240.50 143.50Q1158 62 1039.50 18.50Q921-25 770-25Q608-25 479.50 26.50Q351 78 261 174.50Q171 271 123 410.50Q75 550 75 726Q75 899 123 1036.50Q171 1174 260 1270Q349 1366 476.50 1417Q604 1468 763 1468Q889 1468 998 1432.50Q1107 1397 1190 1332Q1273 1267 1327 1176.50Q1381 1086 1397 977L1094 977Q1077 1034 1046.50 1078.50Q1016 1123 973.50 1154Q931 1185 878 1201.50Q825 1218 764 1218Q675 1218 604 1185Q533 1152 484 1089Q435 1026 409 935.50Q383 845 383 730Q383 613 410.50 519.50Q438 426 489 360.50Q540 295 612.50 260.50Q685 226 775 226Q849 226 910.50 247.50Q972 269 1016.50 308.50Q1061 348 1087 403.50Q1113 459 1115 526L1116 549L802 549L802 769L1410 769L1410 606M1097 1624L405 1624L405 1767L1097 1767L1097 1624Z"  horiz-adv-x="1489" vert-adv-y="2048"  />

      
      <glyph glyph-name="uni0120" unicode="&#x0120;" d="M751 1561Q719 1561 692 1572.50Q665 1584 645 1604.50Q625 1625 613.50 1652Q602 1679 602 1710Q602 1741 613.50 1768Q625 1795 645 1815Q665 1835 692 1846.50Q719 1858 751 1858Q782 1858 809.50 1846.50Q837 1835 857 1815Q877 1795 888.50 1768Q900 1741 900 1710Q900 1679 888.50 1652Q877 1625 857 1604.50Q837 1584 809.50 1572.50Q782 1561 751 1561M1410 606Q1410 459 1366.50 342Q1323 225 1240.50 143.50Q1158 62 1039.50 18.50Q921-25 770-25Q608-25 479.50 26.50Q351 78 261 174.50Q171 271 123 410.50Q75 550 75 726Q75 899 123 1036.50Q171 1174 260 1270Q349 1366 476.50 1417Q604 1468 763 1468Q889 1468 998 1432.50Q1107 1397 1190 1332Q1273 1267 1327 1176.50Q1381 1086 1397 977L1094 977Q1077 1034 1046.50 1078.50Q1016 1123 973.50 1154Q931 1185 878 1201.50Q825 1218 764 1218Q675 1218 604 1185Q533 1152 484 1089Q435 1026 409 935.50Q383 845 383 730Q383 613 410.50 519.50Q438 426 489 360.50Q540 295 612.50 260.50Q685 226 775 226Q849 226 910.50 247.50Q972 269 1016.50 308.50Q1061 348 1087 403.50Q1113 459 1115 526L1116 549L802 549L802 769L1410 769L1410 606Z"  horiz-adv-x="1489" vert-adv-y="2048"  />

      
      <glyph glyph-name="uni0122" unicode="&#x0122;" d="M512-500L633-155L889-155L729-500L512-500M1410 606Q1410 459 1366.50 342Q1323 225 1240.50 143.50Q1158 62 1039.50 18.50Q921-25 770-25Q608-25 479.50 26.50Q351 78 261 174.50Q171 271 123 410.50Q75 550 75 726Q75 899 123 1036.50Q171 1174 260 1270Q349 1366 476.50 1417Q604 1468 763 1468Q889 1468 998 1432.50Q1107 1397 1190 1332Q1273 1267 1327 1176.50Q1381 1086 1397 977L1094 977Q1077 1034 1046.50 1078.50Q1016 1123 973.50 1154Q931 1185 878 1201.50Q825 1218 764 1218Q675 1218 604 1185Q533 1152 484 1089Q435 1026 409 935.50Q383 845 383 730Q383 613 410.50 519.50Q438 426 489 360.50Q540 295 612.50 260.50Q685 226 775 226Q849 226 910.50 247.50Q972 269 1016.50 308.50Q1061 348 1087 403.50Q1113 459 1115 526L1116 549L802 549L802 769L1410 769L1410 606Z"  horiz-adv-x="1489" vert-adv-y="2048"  />

      
      <glyph glyph-name="uni48" unicode="&#x48;" d="M1072 0L1072 608L422 608L422 0L120 0L120 1443L422 1443L422 857L1072 857L1072 1443L1374 1443L1374 0L1072 0Z"  horiz-adv-x="1494" vert-adv-y="2048"  />

      
      <glyph glyph-name="uni1E26" unicode="&#x1E26;" d="M1072 0L1072 608L422 608L422 0L120 0L120 1443L422 1443L422 857L1072 857L1072 1443L1374 1443L1374 0L1072 0M538 1561Q509 1561 484.50 1571.50Q460 1582 442 1599.50Q424 1617 413.50 1641Q403 1665 403 1692Q403 1719 413.50 1743Q424 1767 442 1784.50Q460 1802 484.50 1812.50Q509 1823 538 1823Q567 1823 591.50 1812.50Q616 1802 634 1784.50Q652 1767 662.50 1743Q673 1719 673 1692Q673 1665 662.50 1641Q652 1617 634 1599.50Q616 1582 591.50 1571.50Q567 1561 538 1561M957 1561Q928 1561 903.50 1571.50Q879 1582 861 1599.50Q843 1617 832.50 1641Q822 1665 822 1692Q822 1719 832.50 1743Q843 1767 861 1784.50Q879 1802 903.50 1812.50Q928 1823 957 1823Q986 1823 1010.50 1812.50Q1035 1802 1053 1784.50Q1071 1767 1081.50 1743Q1092 1719 1092 1692Q1092 1665 1081.50 1641Q1071 1617 1053 1599.50Q1035 1582 1010.50 1571.50Q986 1561 957 1561Z"  horiz-adv-x="1494" vert-adv-y="2048"  />

      
      <glyph glyph-name="uni021E" unicode="&#x021E;" d="M1072 0L1072 608L422 608L422 0L120 0L120 1443L422 1443L422 857L1072 857L1072 1443L1374 1443L1374 0L1072 0M359 1861L581 1861L744 1664L750 1664L913 1861L1135 1861L861 1543L633 1543L359 1861Z"  horiz-adv-x="1494" vert-adv-y="2048"  />

      
      <glyph glyph-name="uni0124" unicode="&#x0124;" d="M1072 0L1072 608L422 608L422 0L120 0L120 1443L422 1443L422 857L1072 857L1072 1443L1374 1443L1374 0L1072 0M861 1861L1135 1543L913 1543L750 1740L744 1740L581 1543L359 1543L633 1861L861 1861Z"  horiz-adv-x="1494" vert-adv-y="2048"  />

      
      <glyph glyph-name="uni1E24" unicode="&#x1E24;" d="M1072 0L1072 608L422 608L422 0L120 0L120 1443L422 1443L422 857L1072 857L1072 1443L1374 1443L1374 0L1072 0M747-458Q715-458 688-446.50Q661-435 641-414.50Q621-394 609.50-367Q598-340 598-309Q598-278 609.50-251Q621-224 641-204Q661-184 688-172.50Q715-161 747-161Q778-161 805.50-172.50Q833-184 853-204Q873-224 884.50-251Q896-278 896-309Q896-340 884.50-367Q873-394 853-414.50Q833-435 805.50-446.50Q778-458 747-458Z"  horiz-adv-x="1494" vert-adv-y="2048"  />

      
      <glyph glyph-name="uni1E22" unicode="&#x1E22;" d="M1072 0L1072 608L422 608L422 0L120 0L120 1443L422 1443L422 857L1072 857L1072 1443L1374 1443L1374 0L1072 0M747 1561Q715 1561 688 1572.50Q661 1584 641 1604.50Q621 1625 609.50 1652Q598 1679 598 1710Q598 1741 609.50 1768Q621 1795 641 1815Q661 1835 688 1846.50Q715 1858 747 1858Q778 1858 805.50 1846.50Q833 1835 853 1815Q873 1795 884.50 1768Q896 1741 896 1710Q896 1679 884.50 1652Q873 1625 853 1604.50Q833 1584 805.50 1572.50Q778 1561 747 1561Z"  horiz-adv-x="1494" vert-adv-y="2048"  />

      
      <glyph glyph-name="uni1E2A" unicode="&#x1E2A;" d="M572-176Q573-213 585.50-244.50Q598-276 621-299Q644-322 676-335Q708-348 747-348Q786-348 818-335Q850-322 873-299Q896-276 908.50-244.50Q921-213 922-176L1100-176Q1099-243 1074.50-301Q1050-359 1004.50-401.50Q959-444 894-468.50Q829-493 747-493Q665-493 600-468.50Q535-444 489.50-401.50Q444-359 419.50-301Q395-243 394-176L572-176M1072 0L1072 608L422 608L422 0L120 0L120 1443L422 1443L422 857L1072 857L1072 1443L1374 1443L1374 0L1072 0Z"  horiz-adv-x="1494" vert-adv-y="2048"  />

      
      <glyph glyph-name="uni1E28" unicode="&#x1E28;" d="M1374 1443L1374 0L1072 0L1072 608L422 608L422 0L312 0L263-116Q351-116 399.50-157.50Q448-199 448-275Q448-362 384.50-411Q321-460 207-461Q165-461 129.50-457Q94-453 67-445L67-325Q84-331 116-335Q148-339 178-339Q285-339 285-284Q285-253 256.50-240.50Q228-228 160-228L104-228L104-127L162 0L120 0L120 1443L422 1443L422 857L1072 857L1072 1443L1374 1443Z"  horiz-adv-x="1494" vert-adv-y="2048"  />

      
      <glyph glyph-name="uni0126" unicode="&#x0126;" d="M1093 1052L443 1052L443 857L1093 857L1093 1052M1501 1052L1395 1052L1395 0L1093 0L1093 608L443 608L443 0L141 0L141 1052L36 1052L36 1263L141 1263L141 1443L443 1443L443 1263L1093 1263L1093 1443L1395 1443L1395 1263L1501 1263L1501 1052Z"  horiz-adv-x="1536" vert-adv-y="2048"  />

      
      <glyph glyph-name="uni49" unicode="&#x49;" d="M120 0L120 1443L422 1443L422 0L120 0Z"  horiz-adv-x="542" vert-adv-y="2048"  />

      
      <glyph glyph-name="uni0130" unicode="&#x0130;" d="M120 0L120 1443L422 1443L422 0L120 0M271 1561Q239 1561 212 1572.50Q185 1584 165 1604.50Q145 1625 133.50 1652Q122 1679 122 1710Q122 1741 133.50 1768Q145 1795 165 1815Q185 1835 212 1846.50Q239 1858 271 1858Q302 1858 329.50 1846.50Q357 1835 377 1815Q397 1795 408.50 1768Q420 1741 420 1710Q420 1679 408.50 1652Q397 1625 377 1604.50Q357 1584 329.50 1572.50Q302 1561 271 1561Z"  horiz-adv-x="542" vert-adv-y="2048"  />

      
      <glyph glyph-name="unicc" unicode="&#xcc;" d="M120 0L120 1443L422 1443L422 0L120 0M-117 1868L156 1868L388 1558L161 1558L-117 1868Z"  horiz-adv-x="542" vert-adv-y="2048"  />

      
      <glyph glyph-name="uni0208" unicode="&#x0208;" d="M120 0L120 1443L422 1443L422 0L120 0M83 1863L352 1863L583 1553L361 1553L83 1863M-312 1863L-44 1863L188 1553L-34 1553L-312 1863Z"  horiz-adv-x="542" vert-adv-y="2048"  />

      
      <glyph glyph-name="unicd" unicode="&#xcd;" d="M120 0L120 1443L422 1443L422 0L120 0M152 1553L384 1863L657 1863L380 1553L152 1553Z"  horiz-adv-x="542" vert-adv-y="2048"  />

      
      <glyph glyph-name="unice" unicode="&#xce;" d="M120 0L120 1443L422 1443L422 0L120 0M385 1861L659 1543L437 1543L274 1740L268 1740L105 1543L-117 1543L157 1861L385 1861Z"  horiz-adv-x="542" vert-adv-y="2048"  />

      
      <glyph glyph-name="uni01CF" unicode="&#x01CF;" d="M120 0L120 1443L422 1443L422 0L120 0M-117 1861L105 1861L268 1664L274 1664L437 1861L659 1861L385 1543L157 1543L-117 1861Z"  horiz-adv-x="542" vert-adv-y="2048"  />

      
      <glyph glyph-name="unicf" unicode="&#xcf;" d="M120 0L120 1443L422 1443L422 0L120 0M62 1561Q33 1561 8.50 1571.50Q-16 1582-34 1599.50Q-52 1617-62.50 1641Q-73 1665-73 1692Q-73 1719-62.50 1743Q-52 1767-34 1784.50Q-16 1802 8.50 1812.50Q33 1823 62 1823Q91 1823 115.50 1812.50Q140 1802 158 1784.50Q176 1767 186.50 1743Q197 1719 197 1692Q197 1665 186.50 1641Q176 1617 158 1599.50Q140 1582 115.50 1571.50Q91 1561 62 1561M481 1561Q452 1561 427.50 1571.50Q403 1582 385 1599.50Q367 1617 356.50 1641Q346 1665 346 1692Q346 1719 356.50 1743Q367 1767 385 1784.50Q403 1802 427.50 1812.50Q452 1823 481 1823Q510 1823 534.50 1812.50Q559 1802 577 1784.50Q595 1767 605.50 1743Q616 1719 616 1692Q616 1665 605.50 1641Q595 1617 577 1599.50Q559 1582 534.50 1571.50Q510 1561 481 1561Z"  horiz-adv-x="542" vert-adv-y="2048"  />

      
      <glyph glyph-name="uni1E2E" unicode="&#x1E2E;" d="M120 0L120 1443L422 1443L422 0L120 0M353 2130L607 2130L370 1887L159 1887L353 2130M67 1564Q39 1564 15.50 1574Q-8 1584-25.50 1601Q-43 1618-52.50 1640.50Q-62 1663-62 1689Q-62 1714-52.50 1737Q-43 1760-25.50 1776.50Q-8 1793 15.50 1803Q39 1813 67 1813Q94 1813 117.50 1803Q141 1793 158 1776.50Q175 1760 185 1737Q195 1714 195 1689Q195 1663 185 1640.50Q175 1618 158 1601Q141 1584 117.50 1574Q94 1564 67 1564M475 1564Q448 1564 424.50 1574Q401 1584 384 1601Q367 1618 357 1640.50Q347 1663 347 1689Q347 1714 357 1737Q367 1760 384 1776.50Q401 1793 424.50 1803Q448 1813 475 1813Q503 1813 526.50 1803Q550 1793 567 1776.50Q584 1760 594 1737Q604 1714 604 1689Q604 1663 594 1640.50Q584 1618 567 1601Q550 1584 526.50 1574Q503 1564 475 1564Z"  horiz-adv-x="542" vert-adv-y="2048"  />

      
      <glyph glyph-name="uni012C" unicode="&#x012C;" d="M120 0L120 1443L422 1443L422 0L120 0M96 1860Q97 1823 109.50 1791.50Q122 1760 145 1737Q168 1714 200 1701Q232 1688 271 1688Q310 1688 342 1701Q374 1714 397 1737Q420 1760 432.50 1791.50Q445 1823 446 1860L624 1860Q623 1793 598.50 1735Q574 1677 528.50 1634.50Q483 1592 418 1567.50Q353 1543 271 1543Q189 1543 124 1567.50Q59 1592 13.50 1634.50Q-32 1677-56.50 1735Q-81 1793-82 1860L96 1860Z"  horiz-adv-x="542" vert-adv-y="2048"  />

      
      <glyph glyph-name="uni1ECA" unicode="&#x1ECA;" d="M120 0L120 1443L422 1443L422 0L120 0M271-458Q239-458 212-446.50Q185-435 165-414.50Q145-394 133.50-367Q122-340 122-309Q122-278 133.50-251Q145-224 165-204Q185-184 212-172.50Q239-161 271-161Q302-161 329.50-172.50Q357-184 377-204Q397-224 408.50-251Q420-278 420-309Q420-340 408.50-367Q397-394 377-414.50Q357-435 329.50-446.50Q302-458 271-458Z"  horiz-adv-x="542" vert-adv-y="2048"  />

      
      <glyph glyph-name="uni020A" unicode="&#x020A;" d="M120 0L120 1443L422 1443L422 0L120 0M-82 1543Q-81 1610-56.50 1667.50Q-32 1725 13.50 1768Q59 1811 124 1835.50Q189 1860 271 1860Q353 1860 418 1835.50Q483 1811 528.50 1768Q574 1725 598.50 1667.50Q623 1610 624 1543L446 1543Q445 1580 432.50 1611.50Q420 1643 397 1666Q374 1689 342 1702Q310 1715 271 1715Q232 1715 200 1702Q168 1689 145 1666Q122 1643 109.50 1611.50Q97 1580 96 1543L-82 1543Z"  horiz-adv-x="542" vert-adv-y="2048"  />

      
      <glyph glyph-name="uni012A" unicode="&#x012A;" d="M120 0L120 1443L422 1443L422 0L120 0M617 1624L-75 1624L-75 1767L617 1767L617 1624Z"  horiz-adv-x="542" vert-adv-y="2048"  />

      
      <glyph glyph-name="uni1E2C" unicode="&#x1E2C;" d="M120 0L120 1443L422 1443L422 0L120 0M411-435Q377-435 349.50-425Q322-415 299.50-400Q277-385 258.50-367Q240-349 222.50-334Q205-319 188-309Q171-299 153-299Q119-299 102-332Q85-365 84-418L-74-418Q-74-354-57.50-303.50Q-41-253-12.50-218Q16-183 55.50-165Q95-147 141-147Q194-147 231.50-168Q269-189 298-214.50Q327-240 351-261Q375-282 402-282Q434-282 450-250Q466-218 467-160L625-160Q625-224 608.50-275Q592-326 563.50-361.50Q535-397 495.50-416Q456-435 411-435Z"  horiz-adv-x="542" vert-adv-y="2048"  />

      
      <glyph glyph-name="uni1EC8" unicode="&#x1EC8;" d="M120 0L120 1443L422 1443L422 0L120 0M86 1922Q112 1934 150.50 1940.50Q189 1947 229 1947Q283 1947 327 1933.50Q371 1920 401.50 1895Q432 1870 449 1833.50Q466 1797 466 1752Q466 1716 452 1681.50Q438 1647 413 1617.50Q388 1588 353.50 1564Q319 1540 278 1524L192 1629Q235 1644 262 1673.50Q289 1703 289 1736Q289 1768 262.50 1788.50Q236 1809 192 1809Q167 1809 137.50 1804Q108 1799 86 1790L86 1922Z"  horiz-adv-x="542" vert-adv-y="2048"  />

      
      <glyph glyph-name="uni0128" unicode="&#x0128;" d="M120 0L120 1443L422 1443L422 0L120 0M411 1541Q377 1541 349.50 1551Q322 1561 299.50 1576Q277 1591 258.50 1609Q240 1627 222.50 1642Q205 1657 188 1667Q171 1677 153 1677Q119 1677 102 1644Q85 1611 84 1558L-74 1558Q-74 1622-57.50 1672.50Q-41 1723-12.50 1758Q16 1793 55.50 1811Q95 1829 141 1829Q194 1829 231.50 1808Q269 1787 298 1761.50Q327 1736 351 1715Q375 1694 402 1694Q434 1694 450 1726Q466 1758 467 1816L625 1816Q625 1752 608.50 1701Q592 1650 563.50 1614.50Q535 1579 495.50 1560Q456 1541 411 1541Z"  horiz-adv-x="542" vert-adv-y="2048"  />

      
      <glyph glyph-name="uni012E" unicode="&#x012E;" d="M273-453Q218-453 172.50-437Q127-421 94-391.50Q61-362 43-321.50Q25-281 25-232Q25-154 61.50-96Q98-38 179 12L120 12L120 1443L422 1443L422 7L368 7Q222-67 222-177Q222-227 254-256.50Q286-286 337-286Q353-286 367-284.50Q381-283 395-281L395-436Q344-453 273-453Z"  horiz-adv-x="542" vert-adv-y="2048"  />

      
      <glyph glyph-name="uni4a" unicode="&#x4a;" d="M324 425Q325 381 339 345.50Q353 310 378 284.50Q403 259 438 245Q473 231 516 231Q611 231 660.50 288Q710 345 710 454L710 1443L1012 1443L1012 452Q1012 337 978.50 247Q945 157 881.50 95.50Q818 34 726.50 2Q635-30 519-30Q408-30 318 2.50Q228 35 164.50 94Q101 153 66 237Q31 321 31 425L324 425Z"  horiz-adv-x="1143" vert-adv-y="2048"  />

      
      <glyph glyph-name="uni0134" unicode="&#x0134;" d="M324 425Q325 381 339 345.50Q353 310 378 284.50Q403 259 438 245Q473 231 516 231Q611 231 660.50 288Q710 345 710 454L710 1443L1012 1443L1012 452Q1012 337 978.50 247Q945 157 881.50 95.50Q818 34 726.50 2Q635-30 519-30Q408-30 318 2.50Q228 35 164.50 94Q101 153 66 237Q31 321 31 425L324 425M979 1861L1253 1543L1031 1543L868 1740L862 1740L699 1543L477 1543L751 1861L979 1861Z"  horiz-adv-x="1143" vert-adv-y="2048"  />

      
      <glyph glyph-name="uni4b" unicode="&#x4b;" d="M120 0L120 1443L422 1443L422 785L431 785L973 1443L1309 1443L775 803L1346 0L985 0L557 603L422 441L422 0L120 0Z"  horiz-adv-x="1353" vert-adv-y="2048"  />

      
      <glyph glyph-name="uni1E30" unicode="&#x1E30;" d="M547 1553L779 1863L1052 1863L775 1553L547 1553M120 0L120 1443L422 1443L422 785L431 785L973 1443L1309 1443L775 803L1346 0L985 0L557 603L422 441L422 0L120 0Z"  horiz-adv-x="1353" vert-adv-y="2048"  />

      
      <glyph glyph-name="uni01E8" unicode="&#x01E8;" d="M120 0L120 1443L422 1443L422 785L431 785L973 1443L1309 1443L775 803L1346 0L985 0L557 603L422 441L422 0L120 0M278 1861L500 1861L663 1664L669 1664L832 1861L1054 1861L780 1543L552 1543L278 1861Z"  horiz-adv-x="1353" vert-adv-y="2048"  />

      
      <glyph glyph-name="uni1E32" unicode="&#x1E32;" d="M666-458Q634-458 607-446.50Q580-435 560-414.50Q540-394 528.50-367Q517-340 517-309Q517-278 528.50-251Q540-224 560-204Q580-184 607-172.50Q634-161 666-161Q697-161 724.50-172.50Q752-184 772-204Q792-224 803.50-251Q815-278 815-309Q815-340 803.50-367Q792-394 772-414.50Q752-435 724.50-446.50Q697-458 666-458M120 0L120 1443L422 1443L422 785L431 785L973 1443L1309 1443L775 803L1346 0L985 0L557 603L422 441L422 0L120 0Z"  horiz-adv-x="1353" vert-adv-y="2048"  />

      
      <glyph glyph-name="uni1E34" unicode="&#x1E34;" d="M120 0L120 1443L422 1443L422 785L431 785L973 1443L1309 1443L775 803L1346 0L985 0L557 603L422 441L422 0L120 0M1012-373L320-373L320-230L1012-230L1012-373Z"  horiz-adv-x="1353" vert-adv-y="2048"  />

      
      <glyph glyph-name="uni0136" unicode="&#x0136;" d="M120 0L120 1443L422 1443L422 785L431 785L973 1443L1309 1443L775 803L1346 0L985 0L557 603L422 441L422 0L120 0M427-500L548-155L804-155L644-500L427-500Z"  horiz-adv-x="1353" vert-adv-y="2048"  />

      
      <glyph glyph-name="uni4c" unicode="&#x4c;" d="M1053 0L120 0L120 1443L422 1443L422 250L1053 250L1053 0Z"  horiz-adv-x="1112" vert-adv-y="2048"  />

      
      <glyph glyph-name="uni0139" unicode="&#x0139;" d="M152 1553L384 1863L657 1863L380 1553L152 1553M1053 0L120 0L120 1443L422 1443L422 250L1053 250L1053 0Z"  horiz-adv-x="1112" vert-adv-y="2048"  />

      
      <glyph glyph-name="uni1E3C" unicode="&#x1E3C;" d="M1053 0L120 0L120 1443L422 1443L422 250L1053 250L1053 0M691-160L965-478L743-478L580-281L574-281L411-478L189-478L463-160L691-160Z"  horiz-adv-x="1112" vert-adv-y="2048"  />

      
      <glyph glyph-name="uni1E36" unicode="&#x1E36;" d="M577-458Q545-458 518-446.50Q491-435 471-414.50Q451-394 439.50-367Q428-340 428-309Q428-278 439.50-251Q451-224 471-204Q491-184 518-172.50Q545-161 577-161Q608-161 635.50-172.50Q663-184 683-204Q703-224 714.50-251Q726-278 726-309Q726-340 714.50-367Q703-394 683-414.50Q663-435 635.50-446.50Q608-458 577-458M1053 0L120 0L120 1443L422 1443L422 250L1053 250L1053 0Z"  horiz-adv-x="1112" vert-adv-y="2048"  />

      
      <glyph glyph-name="uni1E38" unicode="&#x1E38;" d="M577-458Q545-458 518-446.50Q491-435 471-414.50Q451-394 439.50-367Q428-340 428-309Q428-278 439.50-251Q451-224 471-204Q491-184 518-172.50Q545-161 577-161Q608-161 635.50-172.50Q663-184 683-204Q703-224 714.50-251Q726-278 726-309Q726-340 714.50-367Q703-394 683-414.50Q663-435 635.50-446.50Q608-458 577-458M1053 0L120 0L120 1443L422 1443L422 250L1053 250L1053 0M617 1624L-75 1624L-75 1767L617 1767L617 1624Z"  horiz-adv-x="1112" vert-adv-y="2048"  />

      
      <glyph glyph-name="uni1E3A" unicode="&#x1E3A;" d="M923-373L231-373L231-230L923-230L923-373M1053 0L120 0L120 1443L422 1443L422 250L1053 250L1053 0Z"  horiz-adv-x="1112" vert-adv-y="2048"  />

      
      <glyph glyph-name="uni013B" unicode="&#x013B;" d="M338-500L459-155L715-155L555-500L338-500M1053 0L120 0L120 1443L422 1443L422 250L1053 250L1053 0Z"  horiz-adv-x="1112" vert-adv-y="2048"  />

      
      <glyph glyph-name="uni013D" unicode="&#x013D;" d="M921 1443L871 940L675 940L675 1443L921 1443M1053 0L120 0L120 1443L422 1443L422 250L1053 250L1053 0Z"  horiz-adv-x="1112" vert-adv-y="2048"  />

      
      <glyph glyph-name="uni0141" unicode="&#x0141;" d="M1069 250L1069 0L136 0L136 638L39 589L39 788L136 837L136 1443L438 1443L438 989L731 1137L731 937L438 790L438 250L1069 250Z"  horiz-adv-x="1128" vert-adv-y="2048"  />

      
      <glyph glyph-name="uni4d" unicode="&#x4d;" d="M1648 0L1379 0L1379 974L1371 974L979 14L789 14L397 974L389 974L389 0L120 0L120 1443L470 1443L880 420L888 420L1298 1443L1648 1443L1648 0Z"  horiz-adv-x="1768" vert-adv-y="2048"  />

      
      <glyph glyph-name="uni1E3E" unicode="&#x1E3E;" d="M1648 0L1379 0L1379 974L1371 974L979 14L789 14L397 974L389 974L389 0L120 0L120 1443L470 1443L880 420L888 420L1298 1443L1648 1443L1648 0M765 1553L997 1863L1270 1863L993 1553L765 1553Z"  horiz-adv-x="1768" vert-adv-y="2048"  />

      
      <glyph glyph-name="uni1E40" unicode="&#x1E40;" d="M1648 0L1379 0L1379 974L1371 974L979 14L789 14L397 974L389 974L389 0L120 0L120 1443L470 1443L880 420L888 420L1298 1443L1648 1443L1648 0M884 1561Q852 1561 825 1572.50Q798 1584 778 1604.50Q758 1625 746.50 1652Q735 1679 735 1710Q735 1741 746.50 1768Q758 1795 778 1815Q798 1835 825 1846.50Q852 1858 884 1858Q915 1858 942.50 1846.50Q970 1835 990 1815Q1010 1795 1021.50 1768Q1033 1741 1033 1710Q1033 1679 1021.50 1652Q1010 1625 990 1604.50Q970 1584 942.50 1572.50Q915 1561 884 1561Z"  horiz-adv-x="1768" vert-adv-y="2048"  />

      
      <glyph glyph-name="uni1E42" unicode="&#x1E42;" d="M1648 0L1379 0L1379 974L1371 974L979 14L789 14L397 974L389 974L389 0L120 0L120 1443L470 1443L880 420L888 420L1298 1443L1648 1443L1648 0M884-458Q852-458 825-446.50Q798-435 778-414.50Q758-394 746.50-367Q735-340 735-309Q735-278 746.50-251Q758-224 778-204Q798-184 825-172.50Q852-161 884-161Q915-161 942.50-172.50Q970-184 990-204Q1010-224 1021.50-251Q1033-278 1033-309Q1033-340 1021.50-367Q1010-394 990-414.50Q970-435 942.50-446.50Q915-458 884-458Z"  horiz-adv-x="1768" vert-adv-y="2048"  />

      
      <glyph glyph-name="uni4e" unicode="&#x4e;" d="M120 0L120 1443L372 1443L1046 503L1054 503L1054 1443L1343 1443L1343 0L1093 0L418 945L409 945L409 0L120 0Z"  horiz-adv-x="1463" vert-adv-y="2048"  />

      
      <glyph glyph-name="uni01F8" unicode="&#x01F8;" d="M344 1868L617 1868L849 1558L622 1558L344 1868M120 0L120 1443L372 1443L1046 503L1054 503L1054 1443L1343 1443L1343 0L1093 0L418 945L409 945L409 0L120 0Z"  horiz-adv-x="1463" vert-adv-y="2048"  />

      
      <glyph glyph-name="uni0143" unicode="&#x0143;" d="M613 1553L845 1863L1118 1863L841 1553L613 1553M120 0L120 1443L372 1443L1046 503L1054 503L1054 1443L1343 1443L1343 0L1093 0L418 945L409 945L409 0L120 0Z"  horiz-adv-x="1463" vert-adv-y="2048"  />

      
      <glyph glyph-name="unid1" unicode="&#xd1;" d="M872 1541Q838 1541 810.50 1551Q783 1561 760.50 1576Q738 1591 719.50 1609Q701 1627 683.50 1642Q666 1657 649 1667Q632 1677 614 1677Q580 1677 563 1644Q546 1611 545 1558L387 1558Q387 1622 403.50 1672.50Q420 1723 448.50 1758Q477 1793 516.50 1811Q556 1829 602 1829Q655 1829 692.50 1808Q730 1787 759 1761.50Q788 1736 812 1715Q836 1694 863 1694Q895 1694 911 1726Q927 1758 928 1816L1086 1816Q1086 1752 1069.50 1701Q1053 1650 1024.50 1614.50Q996 1579 956.50 1560Q917 1541 872 1541M120 0L120 1443L372 1443L1046 503L1054 503L1054 1443L1343 1443L1343 0L1093 0L418 945L409 945L409 0L120 0Z"  horiz-adv-x="1463" vert-adv-y="2048"  />

      
      <glyph glyph-name="uni1E46" unicode="&#x1E46;" d="M732-458Q700-458 673-446.50Q646-435 626-414.50Q606-394 594.50-367Q583-340 583-309Q583-278 594.50-251Q606-224 626-204Q646-184 673-172.50Q700-161 732-161Q763-161 790.50-172.50Q818-184 838-204Q858-224 869.50-251Q881-278 881-309Q881-340 869.50-367Q858-394 838-414.50Q818-435 790.50-446.50Q763-458 732-458M120 0L120 1443L372 1443L1046 503L1054 503L1054 1443L1343 1443L1343 0L1093 0L418 945L409 945L409 0L120 0Z"  horiz-adv-x="1463" vert-adv-y="2048"  />

      
      <glyph glyph-name="uni1E44" unicode="&#x1E44;" d="M732 1561Q700 1561 673 1572.50Q646 1584 626 1604.50Q606 1625 594.50 1652Q583 1679 583 1710Q583 1741 594.50 1768Q606 1795 626 1815Q646 1835 673 1846.50Q700 1858 732 1858Q763 1858 790.50 1846.50Q818 1835 838 1815Q858 1795 869.50 1768Q881 1741 881 1710Q881 1679 869.50 1652Q858 1625 838 1604.50Q818 1584 790.50 1572.50Q763 1561 732 1561M120 0L120 1443L372 1443L1046 503L1054 503L1054 1443L1343 1443L1343 0L1093 0L418 945L409 945L409 0L120 0Z"  horiz-adv-x="1463" vert-adv-y="2048"  />

      
      <glyph glyph-name="uni0147" unicode="&#x0147;" d="M344 1861L566 1861L729 1664L735 1664L898 1861L1120 1861L846 1543L618 1543L344 1861M120 0L120 1443L372 1443L1046 503L1054 503L1054 1443L1343 1443L1343 0L1093 0L418 945L409 945L409 0L120 0Z"  horiz-adv-x="1463" vert-adv-y="2048"  />

      
      <glyph glyph-name="uni1E4A" unicode="&#x1E4A;" d="M120 0L120 1443L372 1443L1046 503L1054 503L1054 1443L1343 1443L1343 0L1093 0L418 945L409 945L409 0L120 0M846-160L1120-478L898-478L735-281L729-281L566-478L344-478L618-160L846-160Z"  horiz-adv-x="1463" vert-adv-y="2048"  />

      
      <glyph glyph-name="uni1E48" unicode="&#x1E48;" d="M1078-373L386-373L386-230L1078-230L1078-373M120 0L120 1443L372 1443L1046 503L1054 503L1054 1443L1343 1443L1343 0L1093 0L418 945L409 945L409 0L120 0Z"  horiz-adv-x="1463" vert-adv-y="2048"  />

      
      <glyph glyph-name="uni0145" unicode="&#x0145;" d="M493-500L614-155L870-155L710-500L493-500M120 0L120 1443L372 1443L1046 503L1054 503L1054 1443L1343 1443L1343 0L1093 0L418 945L409 945L409 0L120 0Z"  horiz-adv-x="1463" vert-adv-y="2048"  />

      
      <glyph glyph-name="uni4f" unicode="&#x4f;" d="M771 1468Q931 1468 1060 1416Q1189 1364 1279.50 1267Q1370 1170 1418.50 1031.50Q1467 893 1467 721Q1467 549 1418.50 411Q1370 273 1279.50 176Q1189 79 1060 27Q931-25 771-25Q610-25 481.50 27Q353 79 262.50 176Q172 273 123.50 411Q75 549 75 721Q75 893 123.50 1031.50Q172 1170 262.50 1267Q353 1364 481.50 1416Q610 1468 771 1468M771 1216Q682 1216 610.50 1181.50Q539 1147 488.50 1082.50Q438 1018 410.50 926.50Q383 835 383 721Q383 608 410.50 516.50Q438 425 488.50 361Q539 297 610.50 262.50Q682 228 771 228Q859 228 931 262.50Q1003 297 1053 361Q1103 425 1130.50 516.50Q1158 608 1158 721Q1158 835 1130.50 926.50Q1103 1018 1053 1082.50Q1003 1147 931 1181.50Q859 1216 771 1216Z"  horiz-adv-x="1541" vert-adv-y="2048"  />

      
      <glyph glyph-name="unid6" unicode="&#xd6;" d="M562 1561Q533 1561 508.50 1571.50Q484 1582 466 1599.50Q448 1617 437.50 1641Q427 1665 427 1692Q427 1719 437.50 1743Q448 1767 466 1784.50Q484 1802 508.50 1812.50Q533 1823 562 1823Q591 1823 615.50 1812.50Q640 1802 658 1784.50Q676 1767 686.50 1743Q697 1719 697 1692Q697 1665 686.50 1641Q676 1617 658 1599.50Q640 1582 615.50 1571.50Q591 1561 562 1561M981 1561Q952 1561 927.50 1571.50Q903 1582 885 1599.50Q867 1617 856.50 1641Q846 1665 846 1692Q846 1719 856.50 1743Q867 1767 885 1784.50Q903 1802 927.50 1812.50Q952 1823 981 1823Q1010 1823 1034.50 1812.50Q1059 1802 1077 1784.50Q1095 1767 1105.50 1743Q1116 1719 1116 1692Q1116 1665 1105.50 1641Q1095 1617 1077 1599.50Q1059 1582 1034.50 1571.50Q1010 1561 981 1561M771 1468Q931 1468 1060 1416Q1189 1364 1279.50 1267Q1370 1170 1418.50 1031.50Q1467 893 1467 721Q1467 549 1418.50 411Q1370 273 1279.50 176Q1189 79 1060 27Q931-25 771-25Q610-25 481.50 27Q353 79 262.50 176Q172 273 123.50 411Q75 549 75 721Q75 893 123.50 1031.50Q172 1170 262.50 1267Q353 1364 481.50 1416Q610 1468 771 1468M771 1216Q682 1216 610.50 1181.50Q539 1147 488.50 1082.50Q438 1018 410.50 926.50Q383 835 383 721Q383 608 410.50 516.50Q438 425 488.50 361Q539 297 610.50 262.50Q682 228 771 228Q859 228 931 262.50Q1003 297 1053 361Q1103 425 1130.50 516.50Q1158 608 1158 721Q1158 835 1130.50 926.50Q1103 1018 1053 1082.50Q1003 1147 931 1181.50Q859 1216 771 1216Z"  horiz-adv-x="1541" vert-adv-y="2048"  />

      
      <glyph glyph-name="unid8" unicode="&#xd8;" d="M576 282Q618 256 666.50 242Q715 228 771 228Q859 228 931 262.50Q1003 297 1053 361Q1103 425 1130.50 516.50Q1158 608 1158 721Q1158 818 1138.50 898.50Q1119 979 1081 1041L576 282M998 1139Q952 1177 895 1196.50Q838 1216 771 1216Q682 1216 610.50 1181.50Q539 1147 488.50 1082.50Q438 1018 410.50 926.50Q383 835 383 721Q383 609 409 519.50Q435 430 484 366L998 1139M1250 1296Q1355 1198 1411 1053Q1467 908 1467 721Q1467 549 1418.50 411Q1370 273 1279.50 176Q1189 79 1060 27Q931-25 771-25Q671-25 584.50-5Q498 15 424 53L344-67L242 1L322 121Q203 218 139 369.50Q75 521 75 721Q75 893 123.50 1031.50Q172 1170 262.50 1267Q353 1364 481.50 1416Q610 1468 771 1468Q882 1468 977.50 1443Q1073 1418 1152 1370L1242 1506L1350 1446L1250 1296Z"  horiz-adv-x="1541" vert-adv-y="2048"  />

      
      <glyph glyph-name="unid5" unicode="&#xd5;" d="M771 1468Q931 1468 1060 1416Q1189 1364 1279.50 1267Q1370 1170 1418.50 1031.50Q1467 893 1467 721Q1467 549 1418.50 411Q1370 273 1279.50 176Q1189 79 1060 27Q931-25 771-25Q610-25 481.50 27Q353 79 262.50 176Q172 273 123.50 411Q75 549 75 721Q75 893 123.50 1031.50Q172 1170 262.50 1267Q353 1364 481.50 1416Q610 1468 771 1468M771 1216Q682 1216 610.50 1181.50Q539 1147 488.50 1082.50Q438 1018 410.50 926.50Q383 835 383 721Q383 608 410.50 516.50Q438 425 488.50 361Q539 297 610.50 262.50Q682 228 771 228Q859 228 931 262.50Q1003 297 1053 361Q1103 425 1130.50 516.50Q1158 608 1158 721Q1158 835 1130.50 926.50Q1103 1018 1053 1082.50Q1003 1147 931 1181.50Q859 1216 771 1216M911 1541Q877 1541 849.50 1551Q822 1561 799.50 1576Q777 1591 758.50 1609Q740 1627 722.50 1642Q705 1657 688 1667Q671 1677 653 1677Q619 1677 602 1644Q585 1611 584 1558L426 1558Q426 1622 442.50 1672.50Q459 1723 487.50 1758Q516 1793 555.50 1811Q595 1829 641 1829Q694 1829 731.50 1808Q769 1787 798 1761.50Q827 1736 851 1715Q875 1694 902 1694Q934 1694 950 1726Q966 1758 967 1816L1125 1816Q1125 1752 1108.50 1701Q1092 1650 1063.50 1614.50Q1035 1579 995.50 1560Q956 1541 911 1541Z"  horiz-adv-x="1541" vert-adv-y="2048"  />

      
      <glyph glyph-name="unid3" unicode="&#xd3;" d="M652 1553L884 1863L1157 1863L880 1553L652 1553M771 1468Q931 1468 1060 1416Q1189 1364 1279.50 1267Q1370 1170 1418.50 1031.50Q1467 893 1467 721Q1467 549 1418.50 411Q1370 273 1279.50 176Q1189 79 1060 27Q931-25 771-25Q610-25 481.50 27Q353 79 262.50 176Q172 273 123.50 411Q75 549 75 721Q75 893 123.50 1031.50Q172 1170 262.50 1267Q353 1364 481.50 1416Q610 1468 771 1468M771 1216Q682 1216 610.50 1181.50Q539 1147 488.50 1082.50Q438 1018 410.50 926.50Q383 835 383 721Q383 608 410.50 516.50Q438 425 488.50 361Q539 297 610.50 262.50Q682 228 771 228Q859 228 931 262.50Q1003 297 1053 361Q1103 425 1130.50 516.50Q1158 608 1158 721Q1158 835 1130.50 926.50Q1103 1018 1053 1082.50Q1003 1147 931 1181.50Q859 1216 771 1216Z"  horiz-adv-x="1541" vert-adv-y="2048"  />

      
      <glyph glyph-name="unid4" unicode="&#xd4;" d="M885 1861L1159 1543L937 1543L774 1740L768 1740L605 1543L383 1543L657 1861L885 1861M771 1468Q931 1468 1060 1416Q1189 1364 1279.50 1267Q1370 1170 1418.50 1031.50Q1467 893 1467 721Q1467 549 1418.50 411Q1370 273 1279.50 176Q1189 79 1060 27Q931-25 771-25Q610-25 481.50 27Q353 79 262.50 176Q172 273 123.50 411Q75 549 75 721Q75 893 123.50 1031.50Q172 1170 262.50 1267Q353 1364 481.50 1416Q610 1468 771 1468M771 1216Q682 1216 610.50 1181.50Q539 1147 488.50 1082.50Q438 1018 410.50 926.50Q383 835 383 721Q383 608 410.50 516.50Q438 425 488.50 361Q539 297 610.50 262.50Q682 228 771 228Q859 228 931 262.50Q1003 297 1053 361Q1103 425 1130.50 516.50Q1158 608 1158 721Q1158 835 1130.50 926.50Q1103 1018 1053 1082.50Q1003 1147 931 1181.50Q859 1216 771 1216Z"  horiz-adv-x="1541" vert-adv-y="2048"  />

      
      <glyph glyph-name="unid2" unicode="&#xd2;" d="M383 1868L656 1868L888 1558L661 1558L383 1868M771 1468Q931 1468 1060 1416Q1189 1364 1279.50 1267Q1370 1170 1418.50 1031.50Q1467 893 1467 721Q1467 549 1418.50 411Q1370 273 1279.50 176Q1189 79 1060 27Q931-25 771-25Q610-25 481.50 27Q353 79 262.50 176Q172 273 123.50 411Q75 549 75 721Q75 893 123.50 1031.50Q172 1170 262.50 1267Q353 1364 481.50 1416Q610 1468 771 1468M771 1216Q682 1216 610.50 1181.50Q539 1147 488.50 1082.50Q438 1018 410.50 926.50Q383 835 383 721Q383 608 410.50 516.50Q438 425 488.50 361Q539 297 610.50 262.50Q682 228 771 228Q859 228 931 262.50Q1003 297 1053 361Q1103 425 1130.50 516.50Q1158 608 1158 721Q1158 835 1130.50 926.50Q1103 1018 1053 1082.50Q1003 1147 931 1181.50Q859 1216 771 1216Z"  horiz-adv-x="1541" vert-adv-y="2048"  />

      
      <glyph glyph-name="uni1ED4" unicode="&#x1ED4;" d="M889 1820L1149 1556L918 1556L778 1705L766 1705L626 1556L395 1556L656 1820L889 1820M889 2107Q913 2119 949.50 2126Q986 2133 1024 2133Q1075 2133 1116 2120Q1157 2107 1186.50 2082Q1216 2057 1231.50 2022Q1247 1987 1247 1944Q1247 1911 1237 1880Q1227 1849 1207.50 1821.50Q1188 1794 1160 1772Q1132 1750 1096 1737L1004 1835Q1042 1849 1060 1874.50Q1078 1900 1078 1929Q1078 1960 1053.50 1979Q1029 1998 987 1998Q962 1998 935 1993.50Q908 1989 889 1981L889 2107M771 1468Q931 1468 1060 1416Q1189 1364 1279.50 1267Q1370 1170 1418.50 1031.50Q1467 893 1467 721Q1467 549 1418.50 411Q1370 273 1279.50 176Q1189 79 1060 27Q931-25 771-25Q610-25 481.50 27Q353 79 262.50 176Q172 273 123.50 411Q75 549 75 721Q75 893 123.50 1031.50Q172 1170 262.50 1267Q353 1364 481.50 1416Q610 1468 771 1468M771 1216Q682 1216 610.50 1181.50Q539 1147 488.50 1082.50Q438 1018 410.50 926.50Q383 835 383 721Q383 608 410.50 516.50Q438 425 488.50 361Q539 297 610.50 262.50Q682 228 771 228Q859 228 931 262.50Q1003 297 1053 361Q1103 425 1130.50 516.50Q1158 608 1158 721Q1158 835 1130.50 926.50Q1103 1018 1053 1082.50Q1003 1147 931 1181.50Q859 1216 771 1216Z"  horiz-adv-x="1541" vert-adv-y="2048"  />

      
      <glyph glyph-name="uni1ED2" unicode="&#x1ED2;" d="M887 1820L1148 1556L917 1556L777 1705L765 1705L625 1556L394 1556L655 1820L887 1820M904 1887L666 2130L921 2130L1115 1887L904 1887M771 1468Q931 1468 1060 1416Q1189 1364 1279.50 1267Q1370 1170 1418.50 1031.50Q1467 893 1467 721Q1467 549 1418.50 411Q1370 273 1279.50 176Q1189 79 1060 27Q931-25 771-25Q610-25 481.50 27Q353 79 262.50 176Q172 273 123.50 411Q75 549 75 721Q75 893 123.50 1031.50Q172 1170 262.50 1267Q353 1364 481.50 1416Q610 1468 771 1468M771 1216Q682 1216 610.50 1181.50Q539 1147 488.50 1082.50Q438 1018 410.50 926.50Q383 835 383 721Q383 608 410.50 516.50Q438 425 488.50 361Q539 297 610.50 262.50Q682 228 771 228Q859 228 931 262.50Q1003 297 1053 361Q1103 425 1130.50 516.50Q1158 608 1158 721Q1158 835 1130.50 926.50Q1103 1018 1053 1082.50Q1003 1147 931 1181.50Q859 1216 771 1216Z"  horiz-adv-x="1541" vert-adv-y="2048"  />

      
      <glyph glyph-name="uni1ECC" unicode="&#x1ECC;" d="M771-458Q739-458 712-446.50Q685-435 665-414.50Q645-394 633.50-367Q622-340 622-309Q622-278 633.50-251Q645-224 665-204Q685-184 712-172.50Q739-161 771-161Q802-161 829.50-172.50Q857-184 877-204Q897-224 908.50-251Q920-278 920-309Q920-340 908.50-367Q897-394 877-414.50Q857-435 829.50-446.50Q802-458 771-458M771 1468Q931 1468 1060 1416Q1189 1364 1279.50 1267Q1370 1170 1418.50 1031.50Q1467 893 1467 721Q1467 549 1418.50 411Q1370 273 1279.50 176Q1189 79 1060 27Q931-25 771-25Q610-25 481.50 27Q353 79 262.50 176Q172 273 123.50 411Q75 549 75 721Q75 893 123.50 1031.50Q172 1170 262.50 1267Q353 1364 481.50 1416Q610 1468 771 1468M771 1216Q682 1216 610.50 1181.50Q539 1147 488.50 1082.50Q438 1018 410.50 926.50Q383 835 383 721Q383 608 410.50 516.50Q438 425 488.50 361Q539 297 610.50 262.50Q682 228 771 228Q859 228 931 262.50Q1003 297 1053 361Q1103 425 1130.50 516.50Q1158 608 1158 721Q1158 835 1130.50 926.50Q1103 1018 1053 1082.50Q1003 1147 931 1181.50Q859 1216 771 1216Z"  horiz-adv-x="1541" vert-adv-y="2048"  />

      
      <glyph glyph-name="uni020C" unicode="&#x020C;" d="M583 1863L852 1863L1083 1553L861 1553L583 1863M188 1863L456 1863L688 1553L466 1553L188 1863M771 1468Q931 1468 1060 1416Q1189 1364 1279.50 1267Q1370 1170 1418.50 1031.50Q1467 893 1467 721Q1467 549 1418.50 411Q1370 273 1279.50 176Q1189 79 1060 27Q931-25 771-25Q610-25 481.50 27Q353 79 262.50 176Q172 273 123.50 411Q75 549 75 721Q75 893 123.50 1031.50Q172 1170 262.50 1267Q353 1364 481.50 1416Q610 1468 771 1468M771 1216Q682 1216 610.50 1181.50Q539 1147 488.50 1082.50Q438 1018 410.50 926.50Q383 835 383 721Q383 608 410.50 516.50Q438 425 488.50 361Q539 297 610.50 262.50Q682 228 771 228Q859 228 931 262.50Q1003 297 1053 361Q1103 425 1130.50 516.50Q1158 608 1158 721Q1158 835 1130.50 926.50Q1103 1018 1053 1082.50Q1003 1147 931 1181.50Q859 1216 771 1216Z"  horiz-adv-x="1541" vert-adv-y="2048"  />

      
      <glyph glyph-name="uni1E4C" unicode="&#x1E4C;" d="M771 1468Q931 1468 1060 1416Q1189 1364 1279.50 1267Q1370 1170 1418.50 1031.50Q1467 893 1467 721Q1467 549 1418.50 411Q1370 273 1279.50 176Q1189 79 1060 27Q931-25 771-25Q610-25 481.50 27Q353 79 262.50 176Q172 273 123.50 411Q75 549 75 721Q75 893 123.50 1031.50Q172 1170 262.50 1267Q353 1364 481.50 1416Q610 1468 771 1468M771 1216Q682 1216 610.50 1181.50Q539 1147 488.50 1082.50Q438 1018 410.50 926.50Q383 835 383 721Q383 608 410.50 516.50Q438 425 488.50 361Q539 297 610.50 262.50Q682 228 771 228Q859 228 931 262.50Q1003 297 1053 361Q1103 425 1130.50 516.50Q1158 608 1158 721Q1158 835 1130.50 926.50Q1103 1018 1053 1082.50Q1003 1147 931 1181.50Q859 1216 771 1216M907 1536Q872 1536 844.50 1546Q817 1556 794.50 1571Q772 1586 753 1604Q734 1622 716.50 1637Q699 1652 682 1662Q665 1672 647 1672Q613 1672 596 1639.50Q579 1607 578 1553L420 1553Q420 1617 436 1668Q452 1719 480.50 1753.50Q509 1788 548 1806.50Q587 1825 634 1825Q669 1825 697.50 1815Q726 1805 749.50 1789.50Q773 1774 792 1756.50Q811 1739 828.50 1723.50Q846 1708 862.50 1698Q879 1688 897 1688Q929 1688 945 1720.50Q961 1753 962 1810L1120 1810Q1120 1746 1104 1695.50Q1088 1645 1059.50 1609.50Q1031 1574 992 1555Q953 1536 907 1536M854 2130L1108 2130L871 1887L660 1887L854 2130Z"  horiz-adv-x="1541" vert-adv-y="2048"  />

      
      <glyph glyph-name="uni1E52" unicode="&#x1E52;" d="M425 1624L425 1767L1117 1767L1117 1624L425 1624M853 2130L1107 2130L870 1887L659 1887L853 2130M771 1468Q931 1468 1060 1416Q1189 1364 1279.50 1267Q1370 1170 1418.50 1031.50Q1467 893 1467 721Q1467 549 1418.50 411Q1370 273 1279.50 176Q1189 79 1060 27Q931-25 771-25Q610-25 481.50 27Q353 79 262.50 176Q172 273 123.50 411Q75 549 75 721Q75 893 123.50 1031.50Q172 1170 262.50 1267Q353 1364 481.50 1416Q610 1468 771 1468M771 1216Q682 1216 610.50 1181.50Q539 1147 488.50 1082.50Q438 1018 410.50 926.50Q383 835 383 721Q383 608 410.50 516.50Q438 425 488.50 361Q539 297 610.50 262.50Q682 228 771 228Q859 228 931 262.50Q1003 297 1053 361Q1103 425 1130.50 516.50Q1158 608 1158 721Q1158 835 1130.50 926.50Q1103 1018 1053 1082.50Q1003 1147 931 1181.50Q859 1216 771 1216Z"  horiz-adv-x="1541" vert-adv-y="2048"  />

      
      <glyph glyph-name="uni1ED6" unicode="&#x1ED6;" d="M905 1873Q869 1873 842 1882.50Q815 1892 793.50 1906Q772 1920 755 1937Q738 1954 722 1968Q706 1982 689.50 1991.50Q673 2001 654 2001Q618 2001 601 1972Q584 1943 582 1891L427 1891Q427 1952 443 1999.50Q459 2047 488 2080Q517 2113 556.50 2130Q596 2147 643 2147Q679 2147 707 2137.50Q735 2128 757 2114Q779 2100 796.50 2083.50Q814 2067 829.50 2053Q845 2039 860 2029.50Q875 2020 893 2020Q928 2020 945 2049Q962 2078 965 2132L1119 2132Q1119 2072 1102.50 2024Q1086 1976 1057.50 1942.50Q1029 1909 990 1891Q951 1873 905 1873M887 1811L1148 1556L917 1556L777 1696L765 1696L625 1556L394 1556L655 1811L887 1811M771 1468Q931 1468 1060 1416Q1189 1364 1279.50 1267Q1370 1170 1418.50 1031.50Q1467 893 1467 721Q1467 549 1418.50 411Q1370 273 1279.50 176Q1189 79 1060 27Q931-25 771-25Q610-25 481.50 27Q353 79 262.50 176Q172 273 123.50 411Q75 549 75 721Q75 893 123.50 1031.50Q172 1170 262.50 1267Q353 1364 481.50 1416Q610 1468 771 1468M771 1216Q682 1216 610.50 1181.50Q539 1147 488.50 1082.50Q438 1018 410.50 926.50Q383 835 383 721Q383 608 410.50 516.50Q438 425 488.50 361Q539 297 610.50 262.50Q682 228 771 228Q859 228 931 262.50Q1003 297 1053 361Q1103 425 1130.50 516.50Q1158 608 1158 721Q1158 835 1130.50 926.50Q1103 1018 1053 1082.50Q1003 1147 931 1181.50Q859 1216 771 1216Z"  horiz-adv-x="1541" vert-adv-y="2048"  />

      
      <glyph glyph-name="uni0230" unicode="&#x0230;" d="M771 1555Q741 1555 716 1565.50Q691 1576 672.50 1594Q654 1612 643.50 1636.50Q633 1661 633 1689Q633 1716 643.50 1740Q654 1764 672.50 1782Q691 1800 716 1810.50Q741 1821 771 1821Q801 1821 826 1810.50Q851 1800 869.50 1782Q888 1764 898.50 1740Q909 1716 909 1689Q909 1661 898.50 1636.50Q888 1612 869.50 1594Q851 1576 826 1565.50Q801 1555 771 1555M1117 1930L425 1930L425 2073L1117 2073L1117 1930M771 1468Q931 1468 1060 1416Q1189 1364 1279.50 1267Q1370 1170 1418.50 1031.50Q1467 893 1467 721Q1467 549 1418.50 411Q1370 273 1279.50 176Q1189 79 1060 27Q931-25 771-25Q610-25 481.50 27Q353 79 262.50 176Q172 273 123.50 411Q75 549 75 721Q75 893 123.50 1031.50Q172 1170 262.50 1267Q353 1364 481.50 1416Q610 1468 771 1468M771 1216Q682 1216 610.50 1181.50Q539 1147 488.50 1082.50Q438 1018 410.50 926.50Q383 835 383 721Q383 608 410.50 516.50Q438 425 488.50 361Q539 297 610.50 262.50Q682 228 771 228Q859 228 931 262.50Q1003 297 1053 361Q1103 425 1130.50 516.50Q1158 608 1158 721Q1158 835 1130.50 926.50Q1103 1018 1053 1082.50Q1003 1147 931 1181.50Q859 1216 771 1216Z"  horiz-adv-x="1541" vert-adv-y="2048"  />

      
      <glyph glyph-name="uni1E50" unicode="&#x1E50;" d="M425 1767L1117 1767L1117 1624L425 1624L425 1767M672 1887L435 2130L689 2130L883 1887L672 1887M771 1468Q931 1468 1060 1416Q1189 1364 1279.50 1267Q1370 1170 1418.50 1031.50Q1467 893 1467 721Q1467 549 1418.50 411Q1370 273 1279.50 176Q1189 79 1060 27Q931-25 771-25Q610-25 481.50 27Q353 79 262.50 176Q172 273 123.50 411Q75 549 75 721Q75 893 123.50 1031.50Q172 1170 262.50 1267Q353 1364 481.50 1416Q610 1468 771 1468M771 1216Q682 1216 610.50 1181.50Q539 1147 488.50 1082.50Q438 1018 410.50 926.50Q383 835 383 721Q383 608 410.50 516.50Q438 425 488.50 361Q539 297 610.50 262.50Q682 228 771 228Q859 228 931 262.50Q1003 297 1053 361Q1103 425 1130.50 516.50Q1158 608 1158 721Q1158 835 1130.50 926.50Q1103 1018 1053 1082.50Q1003 1147 931 1181.50Q859 1216 771 1216Z"  horiz-adv-x="1541" vert-adv-y="2048"  />

      
      <glyph glyph-name="uni01D1" unicode="&#x01D1;" d="M383 1861L605 1861L768 1664L774 1664L937 1861L1159 1861L885 1543L657 1543L383 1861M771 1468Q931 1468 1060 1416Q1189 1364 1279.50 1267Q1370 1170 1418.50 1031.50Q1467 893 1467 721Q1467 549 1418.50 411Q1370 273 1279.50 176Q1189 79 1060 27Q931-25 771-25Q610-25 481.50 27Q353 79 262.50 176Q172 273 123.50 411Q75 549 75 721Q75 893 123.50 1031.50Q172 1170 262.50 1267Q353 1364 481.50 1416Q610 1468 771 1468M771 1216Q682 1216 610.50 1181.50Q539 1147 488.50 1082.50Q438 1018 410.50 926.50Q383 835 383 721Q383 608 410.50 516.50Q438 425 488.50 361Q539 297 610.50 262.50Q682 228 771 228Q859 228 931 262.50Q1003 297 1053 361Q1103 425 1130.50 516.50Q1158 608 1158 721Q1158 835 1130.50 926.50Q1103 1018 1053 1082.50Q1003 1147 931 1181.50Q859 1216 771 1216Z"  horiz-adv-x="1541" vert-adv-y="2048"  />

      
      <glyph glyph-name="uni01FE" unicode="&#x01FE;" d="M905 1553L677 1553L909 1863L1182 1863L905 1553M576 282Q618 256 666.50 242Q715 228 771 228Q859 228 931 262.50Q1003 297 1053 361Q1103 425 1130.50 516.50Q1158 608 1158 721Q1158 818 1138.50 898.50Q1119 979 1081 1041L576 282M998 1139Q952 1177 895 1196.50Q838 1216 771 1216Q682 1216 610.50 1181.50Q539 1147 488.50 1082.50Q438 1018 410.50 926.50Q383 835 383 721Q383 609 409 519.50Q435 430 484 366L998 1139M1250 1296Q1355 1198 1411 1053Q1467 908 1467 721Q1467 549 1418.50 411Q1370 273 1279.50 176Q1189 79 1060 27Q931-25 771-25Q671-25 584.50-5Q498 15 424 53L344-67L242 1L322 121Q203 218 139 369.50Q75 521 75 721Q75 893 123.50 1031.50Q172 1170 262.50 1267Q353 1364 481.50 1416Q610 1468 771 1468Q882 1468 977.50 1443Q1073 1418 1152 1370L1242 1506L1350 1446L1250 1296Z"  horiz-adv-x="1541" vert-adv-y="2048"  />

      
      <glyph glyph-name="uni0150" unicode="&#x0150;" d="M854 1553L1086 1863L1354 1863L1076 1553L854 1553M459 1553L690 1863L959 1863L681 1553L459 1553M771 1468Q931 1468 1060 1416Q1189 1364 1279.50 1267Q1370 1170 1418.50 1031.50Q1467 893 1467 721Q1467 549 1418.50 411Q1370 273 1279.50 176Q1189 79 1060 27Q931-25 771-25Q610-25 481.50 27Q353 79 262.50 176Q172 273 123.50 411Q75 549 75 721Q75 893 123.50 1031.50Q172 1170 262.50 1267Q353 1364 481.50 1416Q610 1468 771 1468M771 1216Q682 1216 610.50 1181.50Q539 1147 488.50 1082.50Q438 1018 410.50 926.50Q383 835 383 721Q383 608 410.50 516.50Q438 425 488.50 361Q539 297 610.50 262.50Q682 228 771 228Q859 228 931 262.50Q1003 297 1053 361Q1103 425 1130.50 516.50Q1158 608 1158 721Q1158 835 1130.50 926.50Q1103 1018 1053 1082.50Q1003 1147 931 1181.50Q859 1216 771 1216Z"  horiz-adv-x="1541" vert-adv-y="2048"  />

      
      <glyph glyph-name="uni014E" unicode="&#x014E;" d="M771 1468Q931 1468 1060 1416Q1189 1364 1279.50 1267Q1370 1170 1418.50 1031.50Q1467 893 1467 721Q1467 549 1418.50 411Q1370 273 1279.50 176Q1189 79 1060 27Q931-25 771-25Q610-25 481.50 27Q353 79 262.50 176Q172 273 123.50 411Q75 549 75 721Q75 893 123.50 1031.50Q172 1170 262.50 1267Q353 1364 481.50 1416Q610 1468 771 1468M771 1216Q682 1216 610.50 1181.50Q539 1147 488.50 1082.50Q438 1018 410.50 926.50Q383 835 383 721Q383 608 410.50 516.50Q438 425 488.50 361Q539 297 610.50 262.50Q682 228 771 228Q859 228 931 262.50Q1003 297 1053 361Q1103 425 1130.50 516.50Q1158 608 1158 721Q1158 835 1130.50 926.50Q1103 1018 1053 1082.50Q1003 1147 931 1181.50Q859 1216 771 1216M596 1860Q597 1823 609.50 1791.50Q622 1760 645 1737Q668 1714 700 1701Q732 1688 771 1688Q810 1688 842 1701Q874 1714 897 1737Q920 1760 932.50 1791.50Q945 1823 946 1860L1124 1860Q1123 1793 1098.50 1735Q1074 1677 1028.50 1634.50Q983 1592 918 1567.50Q853 1543 771 1543Q689 1543 624 1567.50Q559 1592 513.50 1634.50Q468 1677 443.50 1735Q419 1793 418 1860L596 1860Z"  horiz-adv-x="1541" vert-adv-y="2048"  />

      
      <glyph glyph-name="uni020E" unicode="&#x020E;" d="M418 1543Q419 1610 443.50 1667.50Q468 1725 513.50 1768Q559 1811 624 1835.50Q689 1860 771 1860Q853 1860 918 1835.50Q983 1811 1028.50 1768Q1074 1725 1098.50 1667.50Q1123 1610 1124 1543L946 1543Q945 1580 932.50 1611.50Q920 1643 897 1666Q874 1689 842 1702Q810 1715 771 1715Q732 1715 700 1702Q668 1689 645 1666Q622 1643 609.50 1611.50Q597 1580 596 1543L418 1543M771 1468Q931 1468 1060 1416Q1189 1364 1279.50 1267Q1370 1170 1418.50 1031.50Q1467 893 1467 721Q1467 549 1418.50 411Q1370 273 1279.50 176Q1189 79 1060 27Q931-25 771-25Q610-25 481.50 27Q353 79 262.50 176Q172 273 123.50 411Q75 549 75 721Q75 893 123.50 1031.50Q172 1170 262.50 1267Q353 1364 481.50 1416Q610 1468 771 1468M771 1216Q682 1216 610.50 1181.50Q539 1147 488.50 1082.50Q438 1018 410.50 926.50Q383 835 383 721Q383 608 410.50 516.50Q438 425 488.50 361Q539 297 610.50 262.50Q682 228 771 228Q859 228 931 262.50Q1003 297 1053 361Q1103 425 1130.50 516.50Q1158 608 1158 721Q1158 835 1130.50 926.50Q1103 1018 1053 1082.50Q1003 1147 931 1181.50Q859 1216 771 1216Z"  horiz-adv-x="1541" vert-adv-y="2048"  />

      
      <glyph glyph-name="uni1ECE" unicode="&#x1ECE;" d="M586 1922Q612 1934 650.50 1940.50Q689 1947 729 1947Q783 1947 827 1933.50Q871 1920 901.50 1895Q932 1870 949 1833.50Q966 1797 966 1752Q966 1716 952 1681.50Q938 1647 913 1617.50Q888 1588 853.50 1564Q819 1540 778 1524L692 1629Q735 1644 762 1673.50Q789 1703 789 1736Q789 1768 762.50 1788.50Q736 1809 692 1809Q667 1809 637.50 1804Q608 1799 586 1790L586 1922M771 1468Q931 1468 1060 1416Q1189 1364 1279.50 1267Q1370 1170 1418.50 1031.50Q1467 893 1467 721Q1467 549 1418.50 411Q1370 273 1279.50 176Q1189 79 1060 27Q931-25 771-25Q610-25 481.50 27Q353 79 262.50 176Q172 273 123.50 411Q75 549 75 721Q75 893 123.50 1031.50Q172 1170 262.50 1267Q353 1364 481.50 1416Q610 1468 771 1468M771 1216Q682 1216 610.50 1181.50Q539 1147 488.50 1082.50Q438 1018 410.50 926.50Q383 835 383 721Q383 608 410.50 516.50Q438 425 488.50 361Q539 297 610.50 262.50Q682 228 771 228Q859 228 931 262.50Q1003 297 1053 361Q1103 425 1130.50 516.50Q1158 608 1158 721Q1158 835 1130.50 926.50Q1103 1018 1053 1082.50Q1003 1147 931 1181.50Q859 1216 771 1216Z"  horiz-adv-x="1541" vert-adv-y="2048"  />

      
      <glyph glyph-name="uni022A" unicode="&#x022A;" d="M771 1468Q931 1468 1060 1416Q1189 1364 1279.50 1267Q1370 1170 1418.50 1031.50Q1467 893 1467 721Q1467 549 1418.50 411Q1370 273 1279.50 176Q1189 79 1060 27Q931-25 771-25Q610-25 481.50 27Q353 79 262.50 176Q172 273 123.50 411Q75 549 75 721Q75 893 123.50 1031.50Q172 1170 262.50 1267Q353 1364 481.50 1416Q610 1468 771 1468M771 1216Q682 1216 610.50 1181.50Q539 1147 488.50 1082.50Q438 1018 410.50 926.50Q383 835 383 721Q383 608 410.50 516.50Q438 425 488.50 361Q539 297 610.50 262.50Q682 228 771 228Q859 228 931 262.50Q1003 297 1053 361Q1103 425 1130.50 516.50Q1158 608 1158 721Q1158 835 1130.50 926.50Q1103 1018 1053 1082.50Q1003 1147 931 1181.50Q859 1216 771 1216M567 1813Q594 1813 617.50 1803Q641 1793 658 1776.50Q675 1760 685 1737Q695 1714 695 1689Q695 1663 685 1640.50Q675 1618 658 1601Q641 1584 617.50 1574Q594 1564 567 1564Q539 1564 515.50 1574Q492 1584 474.50 1601Q457 1618 447.50 1640.50Q438 1663 438 1689Q438 1714 447.50 1737Q457 1760 474.50 1776.50Q492 1793 515.50 1803Q539 1813 567 1813M1117 2073L1117 1930L425 1930L425 2073L1117 2073M975 1813Q1003 1813 1026.50 1803Q1050 1793 1067 1776.50Q1084 1760 1094 1737Q1104 1714 1104 1689Q1104 1663 1094 1640.50Q1084 1618 1067 1601Q1050 1584 1026.50 1574Q1003 1564 975 1564Q948 1564 924.50 1574Q901 1584 884 1601Q867 1618 857 1640.50Q847 1663 847 1689Q847 1714 857 1737Q867 1760 884 1776.50Q901 1793 924.50 1803Q948 1813 975 1813Z"  horiz-adv-x="1541" vert-adv-y="2048"  />

      
      <glyph glyph-name="uni022C" unicode="&#x022C;" d="M906 1536Q872 1536 844 1546Q816 1556 793.50 1571Q771 1586 752 1604Q733 1622 715.50 1637Q698 1652 681 1662Q664 1672 646 1672Q612 1672 595 1639.50Q578 1607 577 1553L419 1553Q419 1617 435 1668Q451 1719 479.50 1753.50Q508 1788 547 1806.50Q586 1825 633 1825Q668 1825 696.50 1815Q725 1805 748.50 1789.50Q772 1774 791 1756.50Q810 1739 827.50 1723.50Q845 1708 861.50 1698Q878 1688 896 1688Q928 1688 944 1720.50Q960 1753 961 1810L1119 1810Q1119 1746 1103 1695.50Q1087 1645 1058.50 1609.50Q1030 1574 991 1555Q952 1536 906 1536M1117 1930L425 1930L425 2073L1117 2073L1117 1930M771 1468Q931 1468 1060 1416Q1189 1364 1279.50 1267Q1370 1170 1418.50 1031.50Q1467 893 1467 721Q1467 549 1418.50 411Q1370 273 1279.50 176Q1189 79 1060 27Q931-25 771-25Q610-25 481.50 27Q353 79 262.50 176Q172 273 123.50 411Q75 549 75 721Q75 893 123.50 1031.50Q172 1170 262.50 1267Q353 1364 481.50 1416Q610 1468 771 1468M771 1216Q682 1216 610.50 1181.50Q539 1147 488.50 1082.50Q438 1018 410.50 926.50Q383 835 383 721Q383 608 410.50 516.50Q438 425 488.50 361Q539 297 610.50 262.50Q682 228 771 228Q859 228 931 262.50Q1003 297 1053 361Q1103 425 1130.50 516.50Q1158 608 1158 721Q1158 835 1130.50 926.50Q1103 1018 1053 1082.50Q1003 1147 931 1181.50Q859 1216 771 1216Z"  horiz-adv-x="1541" vert-adv-y="2048"  />

      
      </font>
</defs>
</svg>
